G04 EAGLE Gerber RS-274X export*
G75*
%MOMM*%
%FSLAX34Y34*%
%LPD*%
%INSilkscreen Bottom*%
%IPPOS*%
%AMOC8*
5,1,8,0,0,1.08239X$1,22.5*%
G01*
%ADD10C,0.152400*%
%ADD11R,7.924800X0.076200*%
%ADD12R,8.229600X0.076200*%
%ADD13R,8.382000X0.076200*%
%ADD14R,0.457200X0.076200*%
%ADD15R,0.533400X0.076200*%
%ADD16R,0.381000X0.076200*%
%ADD17R,9.296400X0.076200*%
%ADD18R,1.752600X0.076200*%
%ADD19R,0.076200X0.076200*%
%ADD20R,1.981200X0.076200*%
%ADD21R,2.057400X0.076200*%
%ADD22R,0.685800X0.076200*%
%ADD23R,0.762000X0.076200*%
%ADD24R,0.304800X0.076200*%
%ADD25R,0.914400X0.076200*%
%ADD26R,0.609600X0.076200*%
%ADD27R,15.087600X0.076200*%
%ADD28R,15.240000X0.076200*%
%ADD29R,16.154400X0.076200*%
%ADD30R,16.002000X0.076200*%
%ADD31R,1.371600X0.076200*%
%ADD32R,1.066800X0.076200*%
%ADD33R,1.143000X0.076200*%
%ADD34R,1.524000X0.076200*%
%ADD35R,0.990600X0.076200*%
%ADD36R,1.828800X0.076200*%
%ADD37R,1.600200X0.076200*%
%ADD38R,1.905000X0.076200*%
%ADD39R,0.838200X0.076200*%
%ADD40R,0.152400X0.076200*%
%ADD41R,1.295400X0.076200*%
%ADD42R,1.447800X0.076200*%
%ADD43R,3.200400X0.076200*%
%ADD44R,1.219200X0.076200*%
%ADD45R,0.228600X0.076200*%
%ADD46R,1.676400X0.076200*%
%ADD47C,0.127000*%
%ADD48C,0.050800*%
%ADD49C,0.101600*%
%ADD50C,0.200000*%
%ADD51C,0.076200*%

G36*
X1642180Y244845D02*
X1642180Y244845D01*
X1642182Y244847D01*
X1642183Y244846D01*
X1642854Y245081D01*
X1642855Y245082D01*
X1642856Y245082D01*
X1643458Y245460D01*
X1643459Y245462D01*
X1643461Y245462D01*
X1643963Y245964D01*
X1643963Y245966D01*
X1643965Y245967D01*
X1644343Y246569D01*
X1644343Y246570D01*
X1644344Y246571D01*
X1644579Y247242D01*
X1644579Y247244D01*
X1644580Y247245D01*
X1644614Y247545D01*
X1644614Y247546D01*
X1644615Y247557D01*
X1644651Y247880D01*
X1644653Y247892D01*
X1644659Y247951D01*
X1644659Y247952D01*
X1644658Y247953D01*
X1644659Y247954D01*
X1644580Y248660D01*
X1644578Y248662D01*
X1644579Y248663D01*
X1644344Y249334D01*
X1644343Y249335D01*
X1644343Y249336D01*
X1643965Y249938D01*
X1643963Y249939D01*
X1643963Y249941D01*
X1643461Y250443D01*
X1643459Y250443D01*
X1643458Y250445D01*
X1642856Y250823D01*
X1642855Y250823D01*
X1642854Y250824D01*
X1642183Y251059D01*
X1642181Y251059D01*
X1642180Y251060D01*
X1641474Y251139D01*
X1641472Y251138D01*
X1641471Y251139D01*
X1640765Y251060D01*
X1640763Y251058D01*
X1640762Y251059D01*
X1640091Y250824D01*
X1640090Y250823D01*
X1640089Y250823D01*
X1639487Y250445D01*
X1639486Y250443D01*
X1639484Y250443D01*
X1638982Y249941D01*
X1638982Y249939D01*
X1638980Y249938D01*
X1638602Y249336D01*
X1638602Y249335D01*
X1638601Y249334D01*
X1638366Y248663D01*
X1638367Y248661D01*
X1638365Y248660D01*
X1638352Y248539D01*
X1638350Y248527D01*
X1638314Y248205D01*
X1638313Y248193D01*
X1638286Y247954D01*
X1638287Y247952D01*
X1638286Y247951D01*
X1638365Y247245D01*
X1638367Y247243D01*
X1638366Y247242D01*
X1638601Y246571D01*
X1638602Y246570D01*
X1638602Y246569D01*
X1638980Y245967D01*
X1638982Y245966D01*
X1638982Y245964D01*
X1639484Y245462D01*
X1639486Y245462D01*
X1639487Y245460D01*
X1640089Y245082D01*
X1640090Y245082D01*
X1640091Y245081D01*
X1640762Y244846D01*
X1640764Y244847D01*
X1640765Y244845D01*
X1641471Y244766D01*
X1641473Y244767D01*
X1641474Y244766D01*
X1642180Y244845D01*
G37*
D10*
X130213Y253210D02*
X130213Y255016D01*
X121182Y255016D01*
X125698Y238760D01*
X115485Y238760D02*
X110067Y255016D01*
X104648Y238760D01*
X106003Y242824D02*
X114131Y242824D01*
X125133Y71120D02*
X125133Y69314D01*
X125133Y71120D02*
X116102Y71120D01*
X120618Y54864D01*
X110405Y54864D02*
X104987Y71120D01*
X99568Y54864D01*
X100923Y58928D02*
X109051Y58928D01*
D11*
X811657Y222250D03*
D12*
X811657Y223012D03*
X811657Y223774D03*
D13*
X811657Y224536D03*
X811657Y225298D03*
X811657Y226060D03*
D14*
X851281Y226822D03*
X772033Y226822D03*
X851281Y227584D03*
X772033Y227584D03*
D15*
X851662Y228346D03*
X771652Y228346D03*
D14*
X852043Y229108D03*
D15*
X771652Y229108D03*
D14*
X852043Y229870D03*
X771271Y229870D03*
X852043Y230632D03*
X771271Y230632D03*
D15*
X852424Y231394D03*
X770890Y231394D03*
D14*
X852805Y232156D03*
X770509Y232156D03*
X852805Y232918D03*
X770509Y232918D03*
X852805Y233680D03*
X770509Y233680D03*
X852805Y234442D03*
X770509Y234442D03*
X853567Y235204D03*
X769747Y235204D03*
X853567Y235966D03*
X769747Y235966D03*
X853567Y236728D03*
X769747Y236728D03*
X853567Y237490D03*
X769747Y237490D03*
D16*
X853948Y238252D03*
X769366Y238252D03*
X853948Y239014D03*
X769366Y239014D03*
D14*
X854329Y239776D03*
X768985Y239776D03*
X854329Y240538D03*
X768985Y240538D03*
D16*
X854710Y241300D03*
X768604Y241300D03*
X854710Y242062D03*
X768604Y242062D03*
D14*
X855091Y242824D03*
X768223Y242824D03*
X855091Y243586D03*
X768223Y243586D03*
X855091Y244348D03*
X768223Y244348D03*
X855091Y245110D03*
X768223Y245110D03*
D17*
X811657Y245872D03*
X811657Y246634D03*
X811657Y247396D03*
X811657Y248158D03*
X811657Y248920D03*
X811657Y249682D03*
D14*
X856615Y250444D03*
X766699Y250444D03*
X856615Y251206D03*
X766699Y251206D03*
X856615Y251968D03*
X766699Y251968D03*
X856615Y252730D03*
X766699Y252730D03*
X857377Y253492D03*
X765937Y253492D03*
X857377Y254254D03*
X765937Y254254D03*
X857377Y255016D03*
X765937Y255016D03*
X857377Y255778D03*
X765937Y255778D03*
X857377Y256540D03*
X765937Y256540D03*
X858139Y257302D03*
X765175Y257302D03*
X858139Y258064D03*
X765175Y258064D03*
X858139Y258826D03*
X765175Y258826D03*
X858139Y259588D03*
X765175Y259588D03*
X858139Y260350D03*
X765175Y260350D03*
X858901Y261112D03*
X764413Y261112D03*
X858901Y261874D03*
X764413Y261874D03*
X858901Y262636D03*
X764413Y262636D03*
X858901Y263398D03*
X764413Y263398D03*
X858901Y264160D03*
X764413Y264160D03*
X859663Y264922D03*
X763651Y264922D03*
X859663Y265684D03*
X763651Y265684D03*
X859663Y266446D03*
X763651Y266446D03*
X859663Y267208D03*
X763651Y267208D03*
X859663Y267970D03*
X763651Y267970D03*
X860425Y268732D03*
X762889Y268732D03*
X860425Y269494D03*
X762889Y269494D03*
X860425Y270256D03*
X762889Y270256D03*
X860425Y271018D03*
X762889Y271018D03*
D16*
X860806Y271780D03*
X762508Y271780D03*
D14*
X861187Y272542D03*
X762127Y272542D03*
X861187Y273304D03*
X762127Y273304D03*
X861187Y274066D03*
X762127Y274066D03*
X861187Y274828D03*
X762127Y274828D03*
X861949Y275590D03*
X761365Y275590D03*
X861949Y276352D03*
X761365Y276352D03*
X861949Y277114D03*
X761365Y277114D03*
X861949Y277876D03*
X761365Y277876D03*
D16*
X862330Y278638D03*
X760984Y278638D03*
D14*
X862711Y279400D03*
X760603Y279400D03*
X862711Y280162D03*
X760603Y280162D03*
X862711Y280924D03*
X760603Y280924D03*
X862711Y281686D03*
X760603Y281686D03*
X863473Y282448D03*
X759841Y282448D03*
X863473Y283210D03*
X759841Y283210D03*
X863473Y283972D03*
X759841Y283972D03*
X863473Y284734D03*
X759841Y284734D03*
X863473Y285496D03*
X759841Y285496D03*
X864235Y286258D03*
X759079Y286258D03*
X864235Y287020D03*
X759079Y287020D03*
X864235Y287782D03*
X759079Y287782D03*
X864235Y288544D03*
X759079Y288544D03*
X864235Y289306D03*
X759079Y289306D03*
X864235Y290068D03*
X759079Y290068D03*
X864997Y290830D03*
X758317Y290830D03*
X864997Y291592D03*
X758317Y291592D03*
X864997Y292354D03*
X758317Y292354D03*
X864997Y293116D03*
X758317Y293116D03*
D16*
X865378Y293878D03*
D18*
X834898Y293878D03*
D19*
X796036Y293878D03*
D16*
X757936Y293878D03*
D14*
X865759Y294640D03*
D20*
X834517Y294640D03*
D16*
X796036Y294640D03*
D14*
X757555Y294640D03*
X865759Y295402D03*
D21*
X834898Y295402D03*
D15*
X796036Y295402D03*
D14*
X757555Y295402D03*
X865759Y296164D03*
D21*
X834898Y296164D03*
D22*
X796036Y296164D03*
D14*
X757555Y296164D03*
X865759Y296926D03*
D21*
X834898Y296926D03*
D23*
X796417Y296926D03*
D14*
X757555Y296926D03*
X866521Y297688D03*
D16*
X843280Y297688D03*
D24*
X826135Y297688D03*
D25*
X796417Y297688D03*
D14*
X756793Y297688D03*
X866521Y298450D03*
D24*
X843661Y298450D03*
X826135Y298450D03*
D14*
X799465Y298450D03*
X793369Y298450D03*
X756793Y298450D03*
X866521Y299212D03*
D24*
X843661Y299212D03*
X826135Y299212D03*
D14*
X800227Y299212D03*
D15*
X792226Y299212D03*
D14*
X756793Y299212D03*
X866521Y299974D03*
D24*
X843661Y299974D03*
X826135Y299974D03*
D14*
X800989Y299974D03*
D15*
X791464Y299974D03*
D14*
X756793Y299974D03*
D16*
X866902Y300736D03*
D24*
X843661Y300736D03*
X826135Y300736D03*
D14*
X801751Y300736D03*
X790321Y300736D03*
D16*
X756412Y300736D03*
D14*
X867283Y301498D03*
D24*
X843661Y301498D03*
X826135Y301498D03*
D14*
X802513Y301498D03*
D15*
X789940Y301498D03*
D14*
X756031Y301498D03*
X867283Y302260D03*
D24*
X843661Y302260D03*
X826135Y302260D03*
D14*
X803275Y302260D03*
D15*
X789178Y302260D03*
D14*
X756031Y302260D03*
X867283Y303022D03*
D24*
X843661Y303022D03*
X826135Y303022D03*
D14*
X804037Y303022D03*
D15*
X788416Y303022D03*
D14*
X756031Y303022D03*
X867283Y303784D03*
D24*
X843661Y303784D03*
X826135Y303784D03*
D14*
X804799Y303784D03*
D15*
X787654Y303784D03*
D14*
X756031Y303784D03*
X868045Y304546D03*
D24*
X843661Y304546D03*
X826135Y304546D03*
D14*
X805561Y304546D03*
X786511Y304546D03*
X755269Y304546D03*
X868045Y305308D03*
D24*
X843661Y305308D03*
X826135Y305308D03*
D14*
X806323Y305308D03*
X785749Y305308D03*
X755269Y305308D03*
X868045Y306070D03*
D24*
X843661Y306070D03*
X826135Y306070D03*
D14*
X807085Y306070D03*
X784987Y306070D03*
X755269Y306070D03*
X868045Y306832D03*
D24*
X843661Y306832D03*
X826135Y306832D03*
D14*
X807847Y306832D03*
X784225Y306832D03*
X755269Y306832D03*
D16*
X868426Y307594D03*
D24*
X843661Y307594D03*
X826135Y307594D03*
D14*
X808609Y307594D03*
X783463Y307594D03*
D16*
X754888Y307594D03*
D14*
X868807Y308356D03*
D24*
X843661Y308356D03*
X826135Y308356D03*
D14*
X809371Y308356D03*
D15*
X783082Y308356D03*
D14*
X754507Y308356D03*
X868807Y309118D03*
D24*
X843661Y309118D03*
X826135Y309118D03*
D14*
X810133Y309118D03*
X781939Y309118D03*
X754507Y309118D03*
X868807Y309880D03*
D24*
X843661Y309880D03*
X826135Y309880D03*
D14*
X810895Y309880D03*
X781177Y309880D03*
X754507Y309880D03*
X868807Y310642D03*
D24*
X843661Y310642D03*
X826135Y310642D03*
D14*
X811657Y310642D03*
X780415Y310642D03*
X754507Y310642D03*
X868807Y311404D03*
D24*
X843661Y311404D03*
X826135Y311404D03*
D14*
X812419Y311404D03*
X779653Y311404D03*
X754507Y311404D03*
X869569Y312166D03*
D24*
X843661Y312166D03*
X826135Y312166D03*
D14*
X813181Y312166D03*
X778891Y312166D03*
X753745Y312166D03*
X869569Y312928D03*
D24*
X843661Y312928D03*
X826135Y312928D03*
D14*
X813943Y312928D03*
X778129Y312928D03*
X753745Y312928D03*
X869569Y313690D03*
D24*
X843661Y313690D03*
X826135Y313690D03*
D14*
X814705Y313690D03*
X777367Y313690D03*
X753745Y313690D03*
X869569Y314452D03*
D24*
X843661Y314452D03*
X826135Y314452D03*
D14*
X815467Y314452D03*
X776605Y314452D03*
X753745Y314452D03*
X869569Y315214D03*
D24*
X843661Y315214D03*
X826135Y315214D03*
D14*
X816229Y315214D03*
X775843Y315214D03*
X753745Y315214D03*
X870331Y315976D03*
D24*
X843661Y315976D03*
X826135Y315976D03*
D14*
X816991Y315976D03*
X775081Y315976D03*
X752983Y315976D03*
X870331Y316738D03*
D24*
X843661Y316738D03*
X826135Y316738D03*
D14*
X817753Y316738D03*
X774319Y316738D03*
X752983Y316738D03*
X870331Y317500D03*
D24*
X843661Y317500D03*
X826135Y317500D03*
D14*
X818515Y317500D03*
X773557Y317500D03*
X752983Y317500D03*
X870331Y318262D03*
D24*
X843661Y318262D03*
X826135Y318262D03*
D14*
X819277Y318262D03*
D16*
X773176Y318262D03*
D14*
X752983Y318262D03*
X870331Y319024D03*
D24*
X843661Y319024D03*
X826135Y319024D03*
D14*
X819277Y319024D03*
D16*
X773176Y319024D03*
D14*
X752983Y319024D03*
X871093Y319786D03*
D24*
X843661Y319786D03*
X826135Y319786D03*
D14*
X818515Y319786D03*
X773557Y319786D03*
X752221Y319786D03*
X871093Y320548D03*
D24*
X843661Y320548D03*
X826135Y320548D03*
D14*
X817753Y320548D03*
X774319Y320548D03*
X752221Y320548D03*
X871093Y321310D03*
D24*
X843661Y321310D03*
X826135Y321310D03*
D14*
X816991Y321310D03*
X775081Y321310D03*
X752221Y321310D03*
X871093Y322072D03*
D24*
X843661Y322072D03*
X826135Y322072D03*
D14*
X816229Y322072D03*
X775843Y322072D03*
X752221Y322072D03*
D16*
X871474Y322834D03*
D24*
X843661Y322834D03*
X826135Y322834D03*
D14*
X815467Y322834D03*
X776605Y322834D03*
D16*
X751840Y322834D03*
D14*
X871855Y323596D03*
D24*
X843661Y323596D03*
X826135Y323596D03*
D14*
X814705Y323596D03*
X777367Y323596D03*
X751459Y323596D03*
X871855Y324358D03*
D24*
X843661Y324358D03*
X826135Y324358D03*
D14*
X813943Y324358D03*
X778129Y324358D03*
X751459Y324358D03*
X871855Y325120D03*
D24*
X843661Y325120D03*
X826135Y325120D03*
D14*
X813181Y325120D03*
X778891Y325120D03*
X751459Y325120D03*
X871855Y325882D03*
D24*
X843661Y325882D03*
X826135Y325882D03*
D14*
X812419Y325882D03*
X779653Y325882D03*
X751459Y325882D03*
X872617Y326644D03*
D24*
X843661Y326644D03*
X826135Y326644D03*
D14*
X811657Y326644D03*
X780415Y326644D03*
X750697Y326644D03*
X872617Y327406D03*
D24*
X843661Y327406D03*
X826135Y327406D03*
D14*
X810895Y327406D03*
X781177Y327406D03*
X750697Y327406D03*
X872617Y328168D03*
D24*
X843661Y328168D03*
X826135Y328168D03*
D14*
X810133Y328168D03*
X781939Y328168D03*
X750697Y328168D03*
X872617Y328930D03*
D24*
X843661Y328930D03*
X826135Y328930D03*
D14*
X809371Y328930D03*
D15*
X783082Y328930D03*
D14*
X750697Y328930D03*
D16*
X872998Y329692D03*
D24*
X843661Y329692D03*
X826135Y329692D03*
D14*
X808609Y329692D03*
D15*
X783844Y329692D03*
D16*
X750316Y329692D03*
D14*
X873379Y330454D03*
D24*
X843661Y330454D03*
X826135Y330454D03*
D14*
X807847Y330454D03*
X784225Y330454D03*
X749935Y330454D03*
X873379Y331216D03*
D24*
X843661Y331216D03*
X826135Y331216D03*
D14*
X807085Y331216D03*
X784987Y331216D03*
X749935Y331216D03*
X873379Y331978D03*
D24*
X843661Y331978D03*
X826135Y331978D03*
D14*
X806323Y331978D03*
X785749Y331978D03*
X749935Y331978D03*
X873379Y332740D03*
D24*
X843661Y332740D03*
X826135Y332740D03*
D14*
X805561Y332740D03*
X786511Y332740D03*
X749935Y332740D03*
X874141Y333502D03*
D24*
X843661Y333502D03*
X826135Y333502D03*
D14*
X804799Y333502D03*
D15*
X787654Y333502D03*
D14*
X749173Y333502D03*
X874141Y334264D03*
D24*
X843661Y334264D03*
X826135Y334264D03*
D14*
X804037Y334264D03*
D15*
X788416Y334264D03*
D14*
X749173Y334264D03*
X874141Y335026D03*
D24*
X843661Y335026D03*
X826135Y335026D03*
D14*
X803275Y335026D03*
D15*
X789178Y335026D03*
D14*
X749173Y335026D03*
X874141Y335788D03*
D24*
X843661Y335788D03*
X826135Y335788D03*
D14*
X802513Y335788D03*
D15*
X789940Y335788D03*
D14*
X749173Y335788D03*
X874141Y336550D03*
D24*
X843661Y336550D03*
X826135Y336550D03*
D14*
X801751Y336550D03*
D15*
X790702Y336550D03*
D14*
X749173Y336550D03*
X874903Y337312D03*
D24*
X843661Y337312D03*
X826135Y337312D03*
D14*
X800989Y337312D03*
D15*
X791464Y337312D03*
D14*
X748411Y337312D03*
X874903Y338074D03*
D24*
X843661Y338074D03*
X826135Y338074D03*
D14*
X800227Y338074D03*
D15*
X792226Y338074D03*
D14*
X748411Y338074D03*
X874903Y338836D03*
D24*
X843661Y338836D03*
X826135Y338836D03*
D14*
X799465Y338836D03*
X793369Y338836D03*
X748411Y338836D03*
X874903Y339598D03*
D16*
X843280Y339598D03*
D24*
X826135Y339598D03*
D25*
X796417Y339598D03*
D14*
X748411Y339598D03*
X874903Y340360D03*
D21*
X834898Y340360D03*
D23*
X796417Y340360D03*
D14*
X748411Y340360D03*
X874903Y341122D03*
D21*
X834898Y341122D03*
D26*
X796417Y341122D03*
D14*
X748411Y341122D03*
X875665Y341884D03*
D21*
X834898Y341884D03*
D15*
X796036Y341884D03*
D14*
X747649Y341884D03*
X875665Y342646D03*
D20*
X834517Y342646D03*
D24*
X796417Y342646D03*
D14*
X747649Y342646D03*
X875665Y343408D03*
D18*
X834898Y343408D03*
D14*
X747649Y343408D03*
X875665Y344170D03*
X747649Y344170D03*
D16*
X876046Y344932D03*
X747268Y344932D03*
D14*
X876427Y345694D03*
X746887Y345694D03*
X876427Y346456D03*
X746887Y346456D03*
X876427Y347218D03*
X746887Y347218D03*
X876427Y347980D03*
X746887Y347980D03*
X877189Y348742D03*
X746125Y348742D03*
X877189Y349504D03*
X746125Y349504D03*
X877189Y350266D03*
X746125Y350266D03*
X877189Y351028D03*
X746125Y351028D03*
D16*
X877570Y351790D03*
X745744Y351790D03*
D14*
X877951Y352552D03*
X745363Y352552D03*
X877951Y353314D03*
X745363Y353314D03*
X877951Y354076D03*
X745363Y354076D03*
X877951Y354838D03*
X745363Y354838D03*
X878713Y355600D03*
X744601Y355600D03*
X878713Y356362D03*
X744601Y356362D03*
X878713Y357124D03*
X744601Y357124D03*
X878713Y357886D03*
X744601Y357886D03*
X878713Y358648D03*
X744601Y358648D03*
X879475Y359410D03*
X743839Y359410D03*
X879475Y360172D03*
X743839Y360172D03*
X879475Y360934D03*
X743839Y360934D03*
X879475Y361696D03*
X743839Y361696D03*
X879475Y362458D03*
X743839Y362458D03*
X880237Y363220D03*
X743077Y363220D03*
X880237Y363982D03*
X743077Y363982D03*
X880237Y364744D03*
X743077Y364744D03*
X880237Y365506D03*
X743077Y365506D03*
X880237Y366268D03*
X743077Y366268D03*
X880999Y367030D03*
X742315Y367030D03*
X880999Y367792D03*
X742315Y367792D03*
X880999Y368554D03*
X742315Y368554D03*
X880999Y369316D03*
X742315Y369316D03*
X880999Y370078D03*
X742315Y370078D03*
X881761Y370840D03*
X741553Y370840D03*
X881761Y371602D03*
X741553Y371602D03*
X881761Y372364D03*
X741553Y372364D03*
X881761Y373126D03*
X741553Y373126D03*
D16*
X882142Y373888D03*
X741172Y373888D03*
D14*
X882523Y374650D03*
X740791Y374650D03*
X882523Y375412D03*
X740791Y375412D03*
X882523Y376174D03*
X740791Y376174D03*
X882523Y376936D03*
X740791Y376936D03*
X883285Y377698D03*
X740029Y377698D03*
X883285Y378460D03*
X740029Y378460D03*
X883285Y379222D03*
X740029Y379222D03*
X883285Y379984D03*
X740029Y379984D03*
D16*
X883666Y380746D03*
X739648Y380746D03*
D14*
X884047Y381508D03*
X739267Y381508D03*
X884047Y382270D03*
X739267Y382270D03*
X884047Y383032D03*
X739267Y383032D03*
X884047Y383794D03*
X739267Y383794D03*
X884809Y384556D03*
X738505Y384556D03*
D27*
X811657Y385318D03*
X811657Y386080D03*
X811657Y386842D03*
X811657Y387604D03*
D28*
X811657Y388366D03*
X811657Y389128D03*
D15*
X885190Y389890D03*
X738124Y389890D03*
D14*
X885571Y390652D03*
X737743Y390652D03*
X885571Y391414D03*
X737743Y391414D03*
X885571Y392176D03*
X737743Y392176D03*
D15*
X885952Y392938D03*
X737362Y392938D03*
D14*
X886333Y393700D03*
X736981Y393700D03*
X886333Y394462D03*
X736981Y394462D03*
X886333Y395224D03*
X736981Y395224D03*
X886333Y395986D03*
X736981Y395986D03*
X887095Y396748D03*
X736219Y396748D03*
X887095Y397510D03*
X736219Y397510D03*
X887095Y398272D03*
X736219Y398272D03*
X887095Y399034D03*
X736219Y399034D03*
D15*
X887476Y399796D03*
X735838Y399796D03*
D14*
X887857Y400558D03*
X735457Y400558D03*
X887857Y401320D03*
X735457Y401320D03*
X887857Y402082D03*
X735457Y402082D03*
X887857Y402844D03*
X735457Y402844D03*
X888619Y403606D03*
X734695Y403606D03*
X888619Y404368D03*
X734695Y404368D03*
X888619Y405130D03*
X734695Y405130D03*
D16*
X889000Y405892D03*
X734314Y405892D03*
D14*
X889381Y406654D03*
X733933Y406654D03*
X889381Y407416D03*
X733933Y407416D03*
X889381Y408178D03*
X733933Y408178D03*
D16*
X889762Y408940D03*
X733552Y408940D03*
D14*
X890143Y409702D03*
X733171Y409702D03*
X890143Y410464D03*
X733171Y410464D03*
D29*
X811657Y411226D03*
X811657Y411988D03*
X811657Y412750D03*
X811657Y413512D03*
X811657Y414274D03*
D30*
X811657Y415036D03*
D25*
X900049Y485902D03*
D22*
X834136Y485902D03*
X806704Y485902D03*
X781558Y485902D03*
X725170Y485902D03*
D31*
X900049Y486664D03*
D15*
X880618Y486664D03*
X866902Y486664D03*
X853186Y486664D03*
D32*
X833755Y486664D03*
D33*
X806704Y486664D03*
D25*
X781939Y486664D03*
D15*
X770128Y486664D03*
X756412Y486664D03*
D26*
X744601Y486664D03*
D33*
X725170Y486664D03*
D34*
X900049Y487426D03*
D15*
X880618Y487426D03*
X866902Y487426D03*
X853186Y487426D03*
D31*
X833755Y487426D03*
X807085Y487426D03*
D35*
X782320Y487426D03*
D15*
X770128Y487426D03*
X756412Y487426D03*
D26*
X744601Y487426D03*
D31*
X725551Y487426D03*
D36*
X900049Y488188D03*
D15*
X880618Y488188D03*
X866902Y488188D03*
X853186Y488188D03*
D37*
X834136Y488188D03*
X806704Y488188D03*
D35*
X782320Y488188D03*
D15*
X770128Y488188D03*
X756412Y488188D03*
D26*
X744601Y488188D03*
D37*
X725170Y488188D03*
D38*
X900430Y488950D03*
D15*
X880618Y488950D03*
X866902Y488950D03*
X853186Y488950D03*
D18*
X834136Y488950D03*
X806704Y488950D03*
D32*
X782701Y488950D03*
D15*
X770128Y488950D03*
X756412Y488950D03*
D26*
X744601Y488950D03*
D18*
X725170Y488950D03*
D20*
X900049Y489712D03*
D15*
X880618Y489712D03*
X866902Y489712D03*
X853186Y489712D03*
D36*
X833755Y489712D03*
D38*
X806704Y489712D03*
D32*
X782701Y489712D03*
D15*
X770128Y489712D03*
X756412Y489712D03*
D26*
X744601Y489712D03*
D38*
X725170Y489712D03*
D23*
X905383Y490474D03*
D25*
X893953Y490474D03*
D15*
X880618Y490474D03*
X866902Y490474D03*
X853186Y490474D03*
D39*
X839470Y490474D03*
X828040Y490474D03*
X812800Y490474D03*
X801370Y490474D03*
D26*
X784987Y490474D03*
D15*
X770128Y490474D03*
X756412Y490474D03*
D26*
X744601Y490474D03*
D39*
X731266Y490474D03*
X719836Y490474D03*
D15*
X905764Y491236D03*
D22*
X892810Y491236D03*
D15*
X880618Y491236D03*
X866902Y491236D03*
X853186Y491236D03*
D22*
X840994Y491236D03*
X827278Y491236D03*
X813562Y491236D03*
X799846Y491236D03*
D15*
X785368Y491236D03*
X770128Y491236D03*
X756412Y491236D03*
D26*
X744601Y491236D03*
D22*
X732028Y491236D03*
X718312Y491236D03*
D24*
X906145Y491998D03*
D22*
X892048Y491998D03*
D15*
X880618Y491998D03*
X866902Y491998D03*
X853186Y491998D03*
D26*
X841375Y491998D03*
D22*
X826516Y491998D03*
X814324Y491998D03*
D26*
X799465Y491998D03*
D15*
X785368Y491998D03*
X770128Y491998D03*
X756412Y491998D03*
D26*
X744601Y491998D03*
D22*
X732790Y491998D03*
D26*
X717931Y491998D03*
D40*
X906145Y492760D03*
D26*
X891667Y492760D03*
D15*
X880618Y492760D03*
X866902Y492760D03*
X853186Y492760D03*
D26*
X842137Y492760D03*
X826135Y492760D03*
X814705Y492760D03*
X798703Y492760D03*
D15*
X785368Y492760D03*
X770128Y492760D03*
X756412Y492760D03*
D26*
X744601Y492760D03*
X733171Y492760D03*
X717169Y492760D03*
X891667Y493522D03*
D15*
X880618Y493522D03*
X866902Y493522D03*
X853186Y493522D03*
D26*
X842137Y493522D03*
D15*
X825754Y493522D03*
X815086Y493522D03*
X798322Y493522D03*
X785368Y493522D03*
X770128Y493522D03*
X756412Y493522D03*
D26*
X744601Y493522D03*
D15*
X733552Y493522D03*
X716788Y493522D03*
D26*
X891667Y494284D03*
D15*
X880618Y494284D03*
X866902Y494284D03*
X853186Y494284D03*
X842518Y494284D03*
D26*
X825373Y494284D03*
X815467Y494284D03*
D15*
X798322Y494284D03*
X785368Y494284D03*
X770128Y494284D03*
X756412Y494284D03*
D26*
X744601Y494284D03*
X733933Y494284D03*
D15*
X716788Y494284D03*
D26*
X891667Y495046D03*
D15*
X880618Y495046D03*
X866902Y495046D03*
X853186Y495046D03*
X842518Y495046D03*
X824992Y495046D03*
X815848Y495046D03*
X798322Y495046D03*
X785368Y495046D03*
X770128Y495046D03*
X756412Y495046D03*
D26*
X744601Y495046D03*
D15*
X734314Y495046D03*
D26*
X716407Y495046D03*
X891667Y495808D03*
D15*
X880618Y495808D03*
X866902Y495808D03*
X853186Y495808D03*
D26*
X842899Y495808D03*
D15*
X824992Y495808D03*
X815848Y495808D03*
X797560Y495808D03*
X785368Y495808D03*
X770128Y495808D03*
X756412Y495808D03*
D26*
X744601Y495808D03*
D15*
X734314Y495808D03*
X716026Y495808D03*
D26*
X891667Y496570D03*
D15*
X880618Y496570D03*
X866902Y496570D03*
X853186Y496570D03*
D26*
X842899Y496570D03*
D15*
X824992Y496570D03*
X815848Y496570D03*
X797560Y496570D03*
X785368Y496570D03*
X770128Y496570D03*
X756412Y496570D03*
D26*
X744601Y496570D03*
D15*
X734314Y496570D03*
X716026Y496570D03*
D22*
X892048Y497332D03*
D15*
X880618Y497332D03*
X866902Y497332D03*
X853186Y497332D03*
D26*
X842899Y497332D03*
D15*
X824992Y497332D03*
X815848Y497332D03*
X797560Y497332D03*
X785368Y497332D03*
X770128Y497332D03*
X756412Y497332D03*
D26*
X744601Y497332D03*
D15*
X734314Y497332D03*
X716026Y497332D03*
D39*
X892810Y498094D03*
D15*
X880618Y498094D03*
X866902Y498094D03*
X853186Y498094D03*
X842518Y498094D03*
X824992Y498094D03*
X815848Y498094D03*
D26*
X797941Y498094D03*
D15*
X785368Y498094D03*
X770128Y498094D03*
X756412Y498094D03*
D26*
X744601Y498094D03*
D15*
X734314Y498094D03*
D26*
X716407Y498094D03*
D25*
X893953Y498856D03*
D15*
X880618Y498856D03*
X866902Y498856D03*
X853186Y498856D03*
X842518Y498856D03*
D26*
X825373Y498856D03*
X815467Y498856D03*
D15*
X798322Y498856D03*
X785368Y498856D03*
X770128Y498856D03*
X756412Y498856D03*
D26*
X744601Y498856D03*
X733933Y498856D03*
D15*
X716788Y498856D03*
D33*
X895096Y499618D03*
D15*
X880618Y499618D03*
D26*
X866521Y499618D03*
D15*
X853186Y499618D03*
X842518Y499618D03*
D26*
X825373Y499618D03*
D15*
X815086Y499618D03*
X798322Y499618D03*
X785368Y499618D03*
X770128Y499618D03*
X756412Y499618D03*
D26*
X744601Y499618D03*
D15*
X733552Y499618D03*
X716788Y499618D03*
D41*
X896620Y500380D03*
D26*
X880237Y500380D03*
X866521Y500380D03*
D15*
X853186Y500380D03*
D26*
X842137Y500380D03*
X826135Y500380D03*
X814705Y500380D03*
X798703Y500380D03*
D15*
X785368Y500380D03*
D26*
X769747Y500380D03*
D15*
X756412Y500380D03*
D26*
X744601Y500380D03*
X733171Y500380D03*
X717169Y500380D03*
D31*
X897763Y501142D03*
D26*
X880237Y501142D03*
X866521Y501142D03*
X853567Y501142D03*
X841375Y501142D03*
X826135Y501142D03*
X814705Y501142D03*
X799465Y501142D03*
D15*
X785368Y501142D03*
D26*
X769747Y501142D03*
X756793Y501142D03*
X744601Y501142D03*
X733171Y501142D03*
D22*
X717550Y501142D03*
D42*
X898906Y501904D03*
D22*
X879856Y501904D03*
D23*
X866521Y501904D03*
D26*
X853567Y501904D03*
D22*
X840994Y501904D03*
D26*
X826897Y501904D03*
X813943Y501904D03*
D22*
X799846Y501904D03*
D15*
X785368Y501904D03*
D22*
X769366Y501904D03*
D26*
X756793Y501904D03*
X744601Y501904D03*
X732409Y501904D03*
D22*
X718312Y501904D03*
D42*
X899668Y502666D03*
D23*
X879475Y502666D03*
D35*
X866140Y502666D03*
D22*
X853948Y502666D03*
D23*
X839851Y502666D03*
X827659Y502666D03*
X813181Y502666D03*
X800989Y502666D03*
D26*
X785749Y502666D03*
D23*
X768985Y502666D03*
D22*
X757174Y502666D03*
D26*
X744601Y502666D03*
D23*
X731647Y502666D03*
X719455Y502666D03*
D31*
X900811Y503428D03*
D43*
X867283Y503428D03*
D38*
X834136Y503428D03*
X806704Y503428D03*
D34*
X784987Y503428D03*
D38*
X763270Y503428D03*
D26*
X744601Y503428D03*
D38*
X725170Y503428D03*
D44*
X902335Y504190D03*
D43*
X867283Y504190D03*
D18*
X834136Y504190D03*
X806704Y504190D03*
D34*
X784987Y504190D03*
D36*
X763651Y504190D03*
D26*
X744601Y504190D03*
D18*
X725170Y504190D03*
D35*
X903478Y504952D03*
D18*
X874522Y504952D03*
D44*
X858139Y504952D03*
D37*
X834136Y504952D03*
X806704Y504952D03*
D34*
X784987Y504952D03*
D18*
X764032Y504952D03*
D26*
X744601Y504952D03*
D37*
X725170Y504952D03*
D39*
X905002Y505714D03*
D15*
X880618Y505714D03*
D32*
X871855Y505714D03*
D33*
X857758Y505714D03*
D42*
X834136Y505714D03*
X806704Y505714D03*
D34*
X784987Y505714D03*
D15*
X770128Y505714D03*
D33*
X760984Y505714D03*
D26*
X744601Y505714D03*
D42*
X725170Y505714D03*
D23*
X905383Y506476D03*
D15*
X880618Y506476D03*
D35*
X871474Y506476D03*
D25*
X858139Y506476D03*
D44*
X833755Y506476D03*
D33*
X806704Y506476D03*
D34*
X784987Y506476D03*
D15*
X770128Y506476D03*
D35*
X760984Y506476D03*
D26*
X744601Y506476D03*
D33*
X725170Y506476D03*
D26*
X906145Y507238D03*
D14*
X880999Y507238D03*
D22*
X871474Y507238D03*
D23*
X858139Y507238D03*
D39*
X834136Y507238D03*
X806704Y507238D03*
D34*
X784987Y507238D03*
D15*
X770128Y507238D03*
D22*
X760984Y507238D03*
D14*
X744601Y507238D03*
D39*
X725170Y507238D03*
D26*
X906145Y508000D03*
D15*
X785368Y508000D03*
X770128Y508000D03*
D26*
X906145Y508762D03*
D15*
X785368Y508762D03*
X770128Y508762D03*
D26*
X906145Y509524D03*
D15*
X785368Y509524D03*
X770128Y509524D03*
D26*
X906145Y510286D03*
D15*
X785368Y510286D03*
X770128Y510286D03*
D26*
X906145Y511048D03*
D19*
X892810Y511048D03*
D15*
X785368Y511048D03*
X770128Y511048D03*
D22*
X905764Y511810D03*
D45*
X892810Y511810D03*
D15*
X785368Y511810D03*
X770128Y511810D03*
D24*
X744601Y511810D03*
D22*
X905002Y512572D03*
D16*
X892810Y512572D03*
D15*
X785368Y512572D03*
X770128Y512572D03*
X744982Y512572D03*
D36*
X899287Y513334D03*
D15*
X770128Y513334D03*
D26*
X744601Y513334D03*
D36*
X898525Y514096D03*
D15*
X770128Y514096D03*
D22*
X744982Y514096D03*
D36*
X897763Y514858D03*
D15*
X770128Y514858D03*
D23*
X744601Y514858D03*
D46*
X897763Y515620D03*
D15*
X770128Y515620D03*
D26*
X744601Y515620D03*
D42*
X897382Y516382D03*
D15*
X770128Y516382D03*
D26*
X744601Y516382D03*
D44*
X897763Y517144D03*
D15*
X770128Y517144D03*
D14*
X744601Y517144D03*
D23*
X897763Y517906D03*
D15*
X770128Y517906D03*
X770128Y518668D03*
X770128Y519430D03*
D47*
X1690399Y277319D02*
X1691472Y277319D01*
X1691537Y277321D01*
X1691601Y277327D01*
X1691665Y277337D01*
X1691729Y277350D01*
X1691791Y277368D01*
X1691852Y277389D01*
X1691912Y277413D01*
X1691970Y277442D01*
X1692027Y277474D01*
X1692081Y277509D01*
X1692133Y277547D01*
X1692183Y277589D01*
X1692230Y277633D01*
X1692274Y277680D01*
X1692316Y277730D01*
X1692354Y277782D01*
X1692389Y277836D01*
X1692421Y277893D01*
X1692450Y277951D01*
X1692474Y278011D01*
X1692495Y278072D01*
X1692513Y278134D01*
X1692526Y278198D01*
X1692536Y278262D01*
X1692542Y278326D01*
X1692544Y278391D01*
X1692544Y281073D01*
X1692542Y281138D01*
X1692536Y281202D01*
X1692526Y281266D01*
X1692513Y281330D01*
X1692495Y281392D01*
X1692474Y281453D01*
X1692450Y281513D01*
X1692421Y281571D01*
X1692389Y281628D01*
X1692354Y281682D01*
X1692316Y281734D01*
X1692274Y281784D01*
X1692230Y281831D01*
X1692183Y281875D01*
X1692133Y281917D01*
X1692081Y281955D01*
X1692027Y281990D01*
X1691970Y282022D01*
X1691912Y282051D01*
X1691852Y282075D01*
X1691791Y282096D01*
X1691729Y282114D01*
X1691665Y282127D01*
X1691601Y282137D01*
X1691537Y282143D01*
X1691472Y282145D01*
X1690399Y282145D01*
X1687943Y281073D02*
X1686603Y282145D01*
X1686603Y277319D01*
X1687943Y277319D02*
X1685262Y277319D01*
X1680982Y282145D02*
X1680914Y282143D01*
X1680847Y282137D01*
X1680780Y282128D01*
X1680713Y282115D01*
X1680648Y282098D01*
X1680583Y282077D01*
X1680520Y282053D01*
X1680458Y282025D01*
X1680398Y281994D01*
X1680340Y281960D01*
X1680284Y281922D01*
X1680229Y281882D01*
X1680178Y281838D01*
X1680129Y281791D01*
X1680082Y281742D01*
X1680038Y281691D01*
X1679998Y281636D01*
X1679960Y281580D01*
X1679926Y281522D01*
X1679895Y281462D01*
X1679867Y281400D01*
X1679843Y281337D01*
X1679822Y281272D01*
X1679805Y281207D01*
X1679792Y281140D01*
X1679783Y281073D01*
X1679777Y281006D01*
X1679775Y280938D01*
X1680982Y282145D02*
X1681060Y282143D01*
X1681138Y282137D01*
X1681215Y282127D01*
X1681292Y282114D01*
X1681368Y282096D01*
X1681443Y282075D01*
X1681517Y282050D01*
X1681589Y282021D01*
X1681660Y281989D01*
X1681729Y281953D01*
X1681797Y281914D01*
X1681862Y281871D01*
X1681925Y281825D01*
X1681986Y281776D01*
X1682044Y281724D01*
X1682099Y281669D01*
X1682152Y281612D01*
X1682201Y281552D01*
X1682248Y281489D01*
X1682291Y281424D01*
X1682331Y281358D01*
X1682368Y281289D01*
X1682401Y281218D01*
X1682431Y281146D01*
X1682457Y281072D01*
X1680178Y280000D02*
X1680129Y280049D01*
X1680082Y280101D01*
X1680039Y280156D01*
X1679998Y280213D01*
X1679960Y280272D01*
X1679926Y280333D01*
X1679895Y280396D01*
X1679867Y280460D01*
X1679843Y280526D01*
X1679823Y280592D01*
X1679806Y280660D01*
X1679793Y280729D01*
X1679784Y280798D01*
X1679778Y280868D01*
X1679776Y280938D01*
X1680178Y280000D02*
X1682457Y277319D01*
X1679776Y277319D01*
X1589565Y186661D02*
X1589565Y185588D01*
X1589567Y185523D01*
X1589573Y185459D01*
X1589583Y185395D01*
X1589596Y185331D01*
X1589614Y185269D01*
X1589635Y185208D01*
X1589659Y185148D01*
X1589688Y185090D01*
X1589720Y185033D01*
X1589755Y184979D01*
X1589793Y184927D01*
X1589835Y184877D01*
X1589879Y184830D01*
X1589926Y184786D01*
X1589976Y184744D01*
X1590028Y184706D01*
X1590082Y184671D01*
X1590139Y184639D01*
X1590197Y184610D01*
X1590257Y184586D01*
X1590318Y184565D01*
X1590380Y184547D01*
X1590444Y184534D01*
X1590508Y184524D01*
X1590572Y184518D01*
X1590637Y184516D01*
X1593319Y184516D01*
X1593384Y184518D01*
X1593448Y184524D01*
X1593512Y184534D01*
X1593576Y184547D01*
X1593638Y184565D01*
X1593699Y184586D01*
X1593759Y184610D01*
X1593817Y184639D01*
X1593874Y184671D01*
X1593928Y184706D01*
X1593980Y184744D01*
X1594030Y184786D01*
X1594077Y184830D01*
X1594121Y184877D01*
X1594163Y184927D01*
X1594201Y184979D01*
X1594236Y185033D01*
X1594268Y185090D01*
X1594297Y185148D01*
X1594321Y185208D01*
X1594342Y185269D01*
X1594360Y185331D01*
X1594373Y185395D01*
X1594383Y185459D01*
X1594389Y185523D01*
X1594391Y185588D01*
X1594391Y186661D01*
X1593319Y189117D02*
X1594391Y190457D01*
X1589565Y190457D01*
X1589565Y189117D02*
X1589565Y191798D01*
X1590637Y194603D02*
X1594391Y195675D01*
X1590637Y194603D02*
X1590637Y197284D01*
X1591710Y196480D02*
X1589565Y196480D01*
X1690399Y301719D02*
X1691472Y301719D01*
X1691537Y301721D01*
X1691601Y301727D01*
X1691665Y301737D01*
X1691729Y301750D01*
X1691791Y301768D01*
X1691852Y301789D01*
X1691912Y301813D01*
X1691970Y301842D01*
X1692027Y301874D01*
X1692081Y301909D01*
X1692133Y301947D01*
X1692183Y301989D01*
X1692230Y302033D01*
X1692274Y302080D01*
X1692316Y302130D01*
X1692354Y302182D01*
X1692389Y302236D01*
X1692421Y302293D01*
X1692450Y302351D01*
X1692474Y302411D01*
X1692495Y302472D01*
X1692513Y302534D01*
X1692526Y302598D01*
X1692536Y302662D01*
X1692542Y302726D01*
X1692544Y302791D01*
X1692544Y305473D01*
X1692542Y305538D01*
X1692536Y305602D01*
X1692526Y305666D01*
X1692513Y305730D01*
X1692495Y305792D01*
X1692474Y305853D01*
X1692450Y305913D01*
X1692421Y305971D01*
X1692389Y306028D01*
X1692354Y306082D01*
X1692316Y306134D01*
X1692274Y306184D01*
X1692230Y306231D01*
X1692183Y306275D01*
X1692133Y306317D01*
X1692081Y306355D01*
X1692027Y306390D01*
X1691970Y306422D01*
X1691912Y306451D01*
X1691852Y306475D01*
X1691791Y306496D01*
X1691729Y306514D01*
X1691665Y306527D01*
X1691601Y306537D01*
X1691537Y306543D01*
X1691472Y306545D01*
X1690399Y306545D01*
X1687943Y305473D02*
X1686603Y306545D01*
X1686603Y301719D01*
X1687943Y301719D02*
X1685262Y301719D01*
X1682457Y301719D02*
X1681117Y301719D01*
X1681046Y301721D01*
X1680974Y301727D01*
X1680904Y301736D01*
X1680834Y301749D01*
X1680764Y301766D01*
X1680696Y301787D01*
X1680629Y301811D01*
X1680563Y301839D01*
X1680499Y301870D01*
X1680436Y301905D01*
X1680376Y301943D01*
X1680317Y301984D01*
X1680261Y302028D01*
X1680207Y302075D01*
X1680156Y302124D01*
X1680108Y302177D01*
X1680062Y302232D01*
X1680020Y302289D01*
X1679980Y302349D01*
X1679944Y302410D01*
X1679911Y302474D01*
X1679882Y302539D01*
X1679856Y302605D01*
X1679833Y302673D01*
X1679814Y302742D01*
X1679799Y302812D01*
X1679788Y302882D01*
X1679780Y302953D01*
X1679776Y303024D01*
X1679776Y303096D01*
X1679780Y303167D01*
X1679788Y303238D01*
X1679799Y303308D01*
X1679814Y303378D01*
X1679833Y303447D01*
X1679856Y303515D01*
X1679882Y303581D01*
X1679911Y303646D01*
X1679944Y303710D01*
X1679980Y303771D01*
X1680020Y303831D01*
X1680062Y303888D01*
X1680108Y303943D01*
X1680156Y303996D01*
X1680207Y304045D01*
X1680261Y304092D01*
X1680317Y304136D01*
X1680376Y304177D01*
X1680436Y304215D01*
X1680499Y304250D01*
X1680563Y304281D01*
X1680629Y304309D01*
X1680696Y304333D01*
X1680764Y304354D01*
X1680834Y304371D01*
X1680904Y304384D01*
X1680974Y304393D01*
X1681046Y304399D01*
X1681117Y304401D01*
X1680848Y306545D02*
X1682457Y306545D01*
X1680848Y306545D02*
X1680783Y306543D01*
X1680719Y306537D01*
X1680655Y306527D01*
X1680591Y306514D01*
X1680529Y306496D01*
X1680468Y306475D01*
X1680408Y306451D01*
X1680350Y306422D01*
X1680293Y306390D01*
X1680239Y306355D01*
X1680187Y306317D01*
X1680137Y306275D01*
X1680090Y306231D01*
X1680046Y306184D01*
X1680004Y306134D01*
X1679966Y306082D01*
X1679931Y306028D01*
X1679899Y305971D01*
X1679870Y305913D01*
X1679846Y305853D01*
X1679825Y305792D01*
X1679807Y305730D01*
X1679794Y305666D01*
X1679784Y305602D01*
X1679778Y305538D01*
X1679776Y305473D01*
X1679778Y305408D01*
X1679784Y305344D01*
X1679794Y305280D01*
X1679807Y305216D01*
X1679825Y305154D01*
X1679846Y305093D01*
X1679870Y305033D01*
X1679899Y304975D01*
X1679931Y304918D01*
X1679966Y304864D01*
X1680004Y304812D01*
X1680046Y304762D01*
X1680090Y304715D01*
X1680137Y304671D01*
X1680187Y304629D01*
X1680239Y304591D01*
X1680293Y304556D01*
X1680350Y304524D01*
X1680408Y304495D01*
X1680468Y304471D01*
X1680529Y304450D01*
X1680591Y304432D01*
X1680655Y304419D01*
X1680719Y304409D01*
X1680783Y304403D01*
X1680848Y304401D01*
X1680848Y304400D02*
X1681921Y304400D01*
X1622315Y186661D02*
X1622315Y185588D01*
X1622317Y185523D01*
X1622323Y185459D01*
X1622333Y185395D01*
X1622346Y185331D01*
X1622364Y185269D01*
X1622385Y185208D01*
X1622409Y185148D01*
X1622438Y185090D01*
X1622470Y185033D01*
X1622505Y184979D01*
X1622543Y184927D01*
X1622585Y184877D01*
X1622629Y184830D01*
X1622676Y184786D01*
X1622726Y184744D01*
X1622778Y184706D01*
X1622832Y184671D01*
X1622889Y184639D01*
X1622947Y184610D01*
X1623007Y184586D01*
X1623068Y184565D01*
X1623130Y184547D01*
X1623194Y184534D01*
X1623258Y184524D01*
X1623322Y184518D01*
X1623387Y184516D01*
X1626069Y184516D01*
X1626134Y184518D01*
X1626198Y184524D01*
X1626262Y184534D01*
X1626326Y184547D01*
X1626388Y184565D01*
X1626449Y184586D01*
X1626509Y184610D01*
X1626567Y184639D01*
X1626624Y184671D01*
X1626678Y184706D01*
X1626730Y184744D01*
X1626780Y184786D01*
X1626827Y184830D01*
X1626871Y184877D01*
X1626913Y184927D01*
X1626951Y184979D01*
X1626986Y185033D01*
X1627018Y185090D01*
X1627047Y185148D01*
X1627071Y185208D01*
X1627092Y185269D01*
X1627110Y185331D01*
X1627123Y185395D01*
X1627133Y185459D01*
X1627139Y185523D01*
X1627141Y185588D01*
X1627141Y186661D01*
X1626069Y189117D02*
X1627141Y190457D01*
X1622315Y190457D01*
X1622315Y189117D02*
X1622315Y191798D01*
X1622315Y194603D02*
X1622315Y196212D01*
X1622317Y196277D01*
X1622323Y196341D01*
X1622333Y196405D01*
X1622346Y196469D01*
X1622364Y196531D01*
X1622385Y196592D01*
X1622409Y196652D01*
X1622438Y196710D01*
X1622470Y196767D01*
X1622505Y196821D01*
X1622543Y196873D01*
X1622585Y196923D01*
X1622629Y196970D01*
X1622676Y197014D01*
X1622726Y197056D01*
X1622778Y197094D01*
X1622832Y197129D01*
X1622889Y197161D01*
X1622947Y197190D01*
X1623007Y197214D01*
X1623068Y197235D01*
X1623130Y197253D01*
X1623194Y197266D01*
X1623258Y197276D01*
X1623322Y197282D01*
X1623387Y197284D01*
X1623924Y197284D01*
X1623989Y197282D01*
X1624053Y197276D01*
X1624117Y197266D01*
X1624181Y197253D01*
X1624243Y197235D01*
X1624304Y197214D01*
X1624364Y197190D01*
X1624422Y197161D01*
X1624479Y197129D01*
X1624533Y197094D01*
X1624585Y197056D01*
X1624635Y197014D01*
X1624682Y196970D01*
X1624726Y196923D01*
X1624768Y196873D01*
X1624806Y196821D01*
X1624841Y196767D01*
X1624873Y196710D01*
X1624902Y196652D01*
X1624926Y196592D01*
X1624947Y196531D01*
X1624965Y196469D01*
X1624978Y196405D01*
X1624988Y196341D01*
X1624994Y196277D01*
X1624996Y196212D01*
X1624996Y194603D01*
X1627141Y194603D01*
X1627141Y197284D01*
X1786563Y325811D02*
X1786563Y329565D01*
X1786564Y325811D02*
X1786566Y325746D01*
X1786572Y325682D01*
X1786582Y325618D01*
X1786595Y325554D01*
X1786613Y325492D01*
X1786634Y325431D01*
X1786658Y325371D01*
X1786687Y325313D01*
X1786719Y325256D01*
X1786754Y325202D01*
X1786792Y325150D01*
X1786834Y325100D01*
X1786878Y325053D01*
X1786925Y325009D01*
X1786975Y324967D01*
X1787027Y324929D01*
X1787081Y324894D01*
X1787138Y324862D01*
X1787196Y324833D01*
X1787256Y324809D01*
X1787317Y324788D01*
X1787379Y324770D01*
X1787443Y324757D01*
X1787507Y324747D01*
X1787571Y324741D01*
X1787636Y324739D01*
X1788172Y324739D01*
X1783286Y324739D02*
X1783286Y329565D01*
X1781946Y329565D01*
X1781875Y329563D01*
X1781803Y329557D01*
X1781733Y329548D01*
X1781663Y329535D01*
X1781593Y329518D01*
X1781525Y329497D01*
X1781458Y329473D01*
X1781392Y329445D01*
X1781328Y329414D01*
X1781265Y329379D01*
X1781205Y329341D01*
X1781146Y329300D01*
X1781090Y329256D01*
X1781036Y329209D01*
X1780985Y329160D01*
X1780937Y329107D01*
X1780891Y329052D01*
X1780849Y328995D01*
X1780809Y328935D01*
X1780773Y328874D01*
X1780740Y328810D01*
X1780711Y328745D01*
X1780685Y328679D01*
X1780662Y328611D01*
X1780643Y328542D01*
X1780628Y328472D01*
X1780617Y328402D01*
X1780609Y328331D01*
X1780605Y328260D01*
X1780605Y328188D01*
X1780609Y328117D01*
X1780617Y328046D01*
X1780628Y327976D01*
X1780643Y327906D01*
X1780662Y327837D01*
X1780685Y327769D01*
X1780711Y327703D01*
X1780740Y327638D01*
X1780773Y327574D01*
X1780809Y327513D01*
X1780849Y327453D01*
X1780891Y327396D01*
X1780937Y327341D01*
X1780985Y327288D01*
X1781036Y327239D01*
X1781090Y327192D01*
X1781146Y327148D01*
X1781205Y327107D01*
X1781265Y327069D01*
X1781328Y327034D01*
X1781392Y327003D01*
X1781458Y326975D01*
X1781525Y326951D01*
X1781593Y326930D01*
X1781663Y326913D01*
X1781733Y326900D01*
X1781803Y326891D01*
X1781875Y326885D01*
X1781946Y326883D01*
X1781946Y326884D02*
X1783286Y326884D01*
X1778129Y324739D02*
X1776520Y324739D01*
X1776455Y324741D01*
X1776391Y324747D01*
X1776327Y324757D01*
X1776263Y324770D01*
X1776201Y324788D01*
X1776140Y324809D01*
X1776080Y324833D01*
X1776022Y324862D01*
X1775965Y324894D01*
X1775911Y324929D01*
X1775859Y324967D01*
X1775809Y325009D01*
X1775762Y325053D01*
X1775718Y325100D01*
X1775676Y325150D01*
X1775638Y325202D01*
X1775603Y325256D01*
X1775571Y325313D01*
X1775542Y325371D01*
X1775518Y325431D01*
X1775497Y325492D01*
X1775479Y325554D01*
X1775466Y325618D01*
X1775456Y325682D01*
X1775450Y325746D01*
X1775448Y325811D01*
X1775448Y326348D01*
X1775450Y326413D01*
X1775456Y326477D01*
X1775466Y326541D01*
X1775479Y326605D01*
X1775497Y326667D01*
X1775518Y326728D01*
X1775542Y326788D01*
X1775571Y326846D01*
X1775603Y326903D01*
X1775638Y326957D01*
X1775676Y327009D01*
X1775718Y327059D01*
X1775762Y327106D01*
X1775809Y327150D01*
X1775859Y327192D01*
X1775911Y327230D01*
X1775965Y327265D01*
X1776022Y327297D01*
X1776080Y327326D01*
X1776140Y327350D01*
X1776201Y327371D01*
X1776263Y327389D01*
X1776327Y327402D01*
X1776391Y327412D01*
X1776455Y327418D01*
X1776520Y327420D01*
X1778129Y327420D01*
X1778129Y329565D01*
X1775448Y329565D01*
X1786563Y313055D02*
X1786563Y309301D01*
X1786564Y309301D02*
X1786566Y309236D01*
X1786572Y309172D01*
X1786582Y309108D01*
X1786595Y309044D01*
X1786613Y308982D01*
X1786634Y308921D01*
X1786658Y308861D01*
X1786687Y308803D01*
X1786719Y308746D01*
X1786754Y308692D01*
X1786792Y308640D01*
X1786834Y308590D01*
X1786878Y308543D01*
X1786925Y308499D01*
X1786975Y308457D01*
X1787027Y308419D01*
X1787081Y308384D01*
X1787138Y308352D01*
X1787196Y308323D01*
X1787256Y308299D01*
X1787317Y308278D01*
X1787379Y308260D01*
X1787443Y308247D01*
X1787507Y308237D01*
X1787571Y308231D01*
X1787636Y308229D01*
X1788172Y308229D01*
X1783286Y308229D02*
X1783286Y313055D01*
X1781946Y313055D01*
X1781875Y313053D01*
X1781803Y313047D01*
X1781733Y313038D01*
X1781663Y313025D01*
X1781593Y313008D01*
X1781525Y312987D01*
X1781458Y312963D01*
X1781392Y312935D01*
X1781328Y312904D01*
X1781265Y312869D01*
X1781205Y312831D01*
X1781146Y312790D01*
X1781090Y312746D01*
X1781036Y312699D01*
X1780985Y312650D01*
X1780937Y312597D01*
X1780891Y312542D01*
X1780849Y312485D01*
X1780809Y312425D01*
X1780773Y312364D01*
X1780740Y312300D01*
X1780711Y312235D01*
X1780685Y312169D01*
X1780662Y312101D01*
X1780643Y312032D01*
X1780628Y311962D01*
X1780617Y311892D01*
X1780609Y311821D01*
X1780605Y311750D01*
X1780605Y311678D01*
X1780609Y311607D01*
X1780617Y311536D01*
X1780628Y311466D01*
X1780643Y311396D01*
X1780662Y311327D01*
X1780685Y311259D01*
X1780711Y311193D01*
X1780740Y311128D01*
X1780773Y311064D01*
X1780809Y311003D01*
X1780849Y310943D01*
X1780891Y310886D01*
X1780937Y310831D01*
X1780985Y310778D01*
X1781036Y310729D01*
X1781090Y310682D01*
X1781146Y310638D01*
X1781205Y310597D01*
X1781265Y310559D01*
X1781328Y310524D01*
X1781392Y310493D01*
X1781458Y310465D01*
X1781525Y310441D01*
X1781593Y310420D01*
X1781663Y310403D01*
X1781733Y310390D01*
X1781803Y310381D01*
X1781875Y310375D01*
X1781946Y310373D01*
X1781946Y310374D02*
X1783286Y310374D01*
X1777057Y310374D02*
X1775448Y310374D01*
X1777057Y310374D02*
X1777122Y310376D01*
X1777186Y310382D01*
X1777250Y310392D01*
X1777314Y310405D01*
X1777376Y310423D01*
X1777437Y310444D01*
X1777497Y310468D01*
X1777555Y310497D01*
X1777612Y310529D01*
X1777666Y310564D01*
X1777718Y310602D01*
X1777768Y310644D01*
X1777815Y310688D01*
X1777859Y310735D01*
X1777901Y310785D01*
X1777939Y310837D01*
X1777974Y310891D01*
X1778006Y310948D01*
X1778035Y311006D01*
X1778059Y311066D01*
X1778080Y311127D01*
X1778098Y311189D01*
X1778111Y311253D01*
X1778121Y311317D01*
X1778127Y311381D01*
X1778129Y311446D01*
X1778129Y311714D01*
X1778130Y311714D02*
X1778128Y311785D01*
X1778122Y311857D01*
X1778113Y311927D01*
X1778100Y311997D01*
X1778083Y312067D01*
X1778062Y312135D01*
X1778038Y312202D01*
X1778010Y312268D01*
X1777979Y312332D01*
X1777944Y312395D01*
X1777906Y312455D01*
X1777865Y312514D01*
X1777821Y312570D01*
X1777774Y312624D01*
X1777725Y312675D01*
X1777672Y312723D01*
X1777617Y312769D01*
X1777560Y312811D01*
X1777500Y312851D01*
X1777439Y312887D01*
X1777375Y312920D01*
X1777310Y312949D01*
X1777244Y312975D01*
X1777176Y312998D01*
X1777107Y313017D01*
X1777037Y313032D01*
X1776967Y313043D01*
X1776896Y313051D01*
X1776825Y313055D01*
X1776753Y313055D01*
X1776682Y313051D01*
X1776611Y313043D01*
X1776541Y313032D01*
X1776471Y313017D01*
X1776402Y312998D01*
X1776334Y312975D01*
X1776268Y312949D01*
X1776203Y312920D01*
X1776139Y312887D01*
X1776078Y312851D01*
X1776018Y312811D01*
X1775961Y312769D01*
X1775906Y312723D01*
X1775853Y312675D01*
X1775804Y312624D01*
X1775757Y312570D01*
X1775713Y312514D01*
X1775672Y312455D01*
X1775634Y312395D01*
X1775599Y312332D01*
X1775568Y312268D01*
X1775540Y312202D01*
X1775516Y312135D01*
X1775495Y312067D01*
X1775478Y311997D01*
X1775465Y311927D01*
X1775456Y311857D01*
X1775450Y311785D01*
X1775448Y311714D01*
X1775448Y310374D01*
X1775450Y310283D01*
X1775456Y310192D01*
X1775465Y310102D01*
X1775479Y310011D01*
X1775496Y309922D01*
X1775517Y309834D01*
X1775542Y309746D01*
X1775571Y309659D01*
X1775603Y309574D01*
X1775638Y309490D01*
X1775678Y309408D01*
X1775720Y309328D01*
X1775766Y309249D01*
X1775816Y309173D01*
X1775868Y309099D01*
X1775924Y309026D01*
X1775983Y308957D01*
X1776044Y308890D01*
X1776109Y308825D01*
X1776176Y308764D01*
X1776245Y308705D01*
X1776318Y308649D01*
X1776392Y308597D01*
X1776468Y308547D01*
X1776547Y308501D01*
X1776627Y308459D01*
X1776709Y308419D01*
X1776793Y308384D01*
X1776878Y308352D01*
X1776965Y308323D01*
X1777053Y308298D01*
X1777141Y308277D01*
X1777230Y308260D01*
X1777321Y308246D01*
X1777411Y308237D01*
X1777502Y308231D01*
X1777593Y308229D01*
X1786563Y281305D02*
X1786563Y277551D01*
X1786564Y277551D02*
X1786566Y277486D01*
X1786572Y277422D01*
X1786582Y277358D01*
X1786595Y277294D01*
X1786613Y277232D01*
X1786634Y277171D01*
X1786658Y277111D01*
X1786687Y277053D01*
X1786719Y276996D01*
X1786754Y276942D01*
X1786792Y276890D01*
X1786834Y276840D01*
X1786878Y276793D01*
X1786925Y276749D01*
X1786975Y276707D01*
X1787027Y276669D01*
X1787081Y276634D01*
X1787138Y276602D01*
X1787196Y276573D01*
X1787256Y276549D01*
X1787317Y276528D01*
X1787379Y276510D01*
X1787443Y276497D01*
X1787507Y276487D01*
X1787571Y276481D01*
X1787636Y276479D01*
X1788172Y276479D01*
X1783286Y276479D02*
X1783286Y281305D01*
X1781946Y281305D01*
X1781875Y281303D01*
X1781803Y281297D01*
X1781733Y281288D01*
X1781663Y281275D01*
X1781593Y281258D01*
X1781525Y281237D01*
X1781458Y281213D01*
X1781392Y281185D01*
X1781328Y281154D01*
X1781265Y281119D01*
X1781205Y281081D01*
X1781146Y281040D01*
X1781090Y280996D01*
X1781036Y280949D01*
X1780985Y280900D01*
X1780937Y280847D01*
X1780891Y280792D01*
X1780849Y280735D01*
X1780809Y280675D01*
X1780773Y280614D01*
X1780740Y280550D01*
X1780711Y280485D01*
X1780685Y280419D01*
X1780662Y280351D01*
X1780643Y280282D01*
X1780628Y280212D01*
X1780617Y280142D01*
X1780609Y280071D01*
X1780605Y280000D01*
X1780605Y279928D01*
X1780609Y279857D01*
X1780617Y279786D01*
X1780628Y279716D01*
X1780643Y279646D01*
X1780662Y279577D01*
X1780685Y279509D01*
X1780711Y279443D01*
X1780740Y279378D01*
X1780773Y279314D01*
X1780809Y279253D01*
X1780849Y279193D01*
X1780891Y279136D01*
X1780937Y279081D01*
X1780985Y279028D01*
X1781036Y278979D01*
X1781090Y278932D01*
X1781146Y278888D01*
X1781205Y278847D01*
X1781265Y278809D01*
X1781328Y278774D01*
X1781392Y278743D01*
X1781458Y278715D01*
X1781525Y278691D01*
X1781593Y278670D01*
X1781663Y278653D01*
X1781733Y278640D01*
X1781803Y278631D01*
X1781875Y278625D01*
X1781946Y278623D01*
X1781946Y278624D02*
X1783286Y278624D01*
X1778129Y279160D02*
X1776520Y279160D01*
X1776455Y279158D01*
X1776391Y279152D01*
X1776327Y279142D01*
X1776263Y279129D01*
X1776201Y279111D01*
X1776140Y279090D01*
X1776080Y279066D01*
X1776022Y279037D01*
X1775965Y279005D01*
X1775911Y278970D01*
X1775859Y278932D01*
X1775809Y278890D01*
X1775762Y278846D01*
X1775718Y278799D01*
X1775676Y278749D01*
X1775638Y278697D01*
X1775603Y278643D01*
X1775571Y278586D01*
X1775542Y278528D01*
X1775518Y278468D01*
X1775497Y278407D01*
X1775479Y278345D01*
X1775466Y278281D01*
X1775456Y278217D01*
X1775450Y278153D01*
X1775448Y278088D01*
X1775448Y277820D01*
X1775450Y277749D01*
X1775456Y277677D01*
X1775465Y277607D01*
X1775478Y277537D01*
X1775495Y277467D01*
X1775516Y277399D01*
X1775540Y277332D01*
X1775568Y277266D01*
X1775599Y277202D01*
X1775634Y277139D01*
X1775672Y277079D01*
X1775713Y277020D01*
X1775757Y276964D01*
X1775804Y276910D01*
X1775853Y276859D01*
X1775906Y276811D01*
X1775961Y276765D01*
X1776018Y276723D01*
X1776078Y276683D01*
X1776139Y276647D01*
X1776203Y276614D01*
X1776268Y276585D01*
X1776334Y276559D01*
X1776402Y276536D01*
X1776471Y276517D01*
X1776541Y276502D01*
X1776611Y276491D01*
X1776682Y276483D01*
X1776753Y276479D01*
X1776825Y276479D01*
X1776896Y276483D01*
X1776967Y276491D01*
X1777037Y276502D01*
X1777107Y276517D01*
X1777176Y276536D01*
X1777244Y276559D01*
X1777310Y276585D01*
X1777375Y276614D01*
X1777439Y276647D01*
X1777500Y276683D01*
X1777560Y276723D01*
X1777617Y276765D01*
X1777672Y276811D01*
X1777725Y276859D01*
X1777774Y276910D01*
X1777821Y276964D01*
X1777865Y277020D01*
X1777906Y277079D01*
X1777944Y277139D01*
X1777979Y277202D01*
X1778010Y277266D01*
X1778038Y277332D01*
X1778062Y277399D01*
X1778083Y277467D01*
X1778100Y277537D01*
X1778113Y277607D01*
X1778122Y277677D01*
X1778128Y277749D01*
X1778130Y277820D01*
X1778129Y277820D02*
X1778129Y279160D01*
X1778127Y279251D01*
X1778121Y279342D01*
X1778112Y279432D01*
X1778098Y279523D01*
X1778081Y279612D01*
X1778060Y279700D01*
X1778035Y279788D01*
X1778006Y279875D01*
X1777974Y279960D01*
X1777939Y280044D01*
X1777899Y280126D01*
X1777857Y280206D01*
X1777811Y280285D01*
X1777761Y280361D01*
X1777709Y280435D01*
X1777653Y280508D01*
X1777594Y280577D01*
X1777533Y280644D01*
X1777468Y280709D01*
X1777401Y280770D01*
X1777332Y280829D01*
X1777259Y280885D01*
X1777185Y280937D01*
X1777109Y280987D01*
X1777030Y281033D01*
X1776950Y281075D01*
X1776868Y281115D01*
X1776784Y281150D01*
X1776699Y281182D01*
X1776612Y281211D01*
X1776524Y281236D01*
X1776436Y281257D01*
X1776347Y281274D01*
X1776256Y281288D01*
X1776166Y281297D01*
X1776075Y281303D01*
X1775984Y281305D01*
X1789307Y294061D02*
X1789307Y297815D01*
X1789307Y294061D02*
X1789309Y293996D01*
X1789315Y293932D01*
X1789325Y293868D01*
X1789338Y293804D01*
X1789356Y293742D01*
X1789377Y293681D01*
X1789401Y293621D01*
X1789430Y293563D01*
X1789462Y293506D01*
X1789497Y293452D01*
X1789535Y293400D01*
X1789577Y293350D01*
X1789621Y293303D01*
X1789668Y293259D01*
X1789718Y293217D01*
X1789770Y293179D01*
X1789824Y293144D01*
X1789881Y293112D01*
X1789939Y293083D01*
X1789999Y293059D01*
X1790060Y293038D01*
X1790122Y293020D01*
X1790186Y293007D01*
X1790250Y292997D01*
X1790314Y292991D01*
X1790379Y292989D01*
X1790915Y292989D01*
X1786029Y292989D02*
X1786029Y297815D01*
X1784689Y297815D01*
X1784618Y297813D01*
X1784546Y297807D01*
X1784476Y297798D01*
X1784406Y297785D01*
X1784336Y297768D01*
X1784268Y297747D01*
X1784201Y297723D01*
X1784135Y297695D01*
X1784071Y297664D01*
X1784008Y297629D01*
X1783948Y297591D01*
X1783889Y297550D01*
X1783833Y297506D01*
X1783779Y297459D01*
X1783728Y297410D01*
X1783680Y297357D01*
X1783634Y297302D01*
X1783592Y297245D01*
X1783552Y297185D01*
X1783516Y297124D01*
X1783483Y297060D01*
X1783454Y296995D01*
X1783428Y296929D01*
X1783405Y296861D01*
X1783386Y296792D01*
X1783371Y296722D01*
X1783360Y296652D01*
X1783352Y296581D01*
X1783348Y296510D01*
X1783348Y296438D01*
X1783352Y296367D01*
X1783360Y296296D01*
X1783371Y296226D01*
X1783386Y296156D01*
X1783405Y296087D01*
X1783428Y296019D01*
X1783454Y295953D01*
X1783483Y295888D01*
X1783516Y295824D01*
X1783552Y295763D01*
X1783592Y295703D01*
X1783634Y295646D01*
X1783680Y295591D01*
X1783728Y295538D01*
X1783779Y295489D01*
X1783833Y295442D01*
X1783889Y295398D01*
X1783948Y295357D01*
X1784008Y295319D01*
X1784071Y295284D01*
X1784135Y295253D01*
X1784201Y295225D01*
X1784268Y295201D01*
X1784336Y295180D01*
X1784406Y295163D01*
X1784476Y295150D01*
X1784546Y295141D01*
X1784618Y295135D01*
X1784689Y295133D01*
X1784689Y295134D02*
X1786029Y295134D01*
X1780872Y296743D02*
X1779532Y297815D01*
X1779532Y292989D01*
X1780872Y292989D02*
X1778191Y292989D01*
X1775386Y295402D02*
X1775384Y295522D01*
X1775379Y295642D01*
X1775370Y295762D01*
X1775357Y295882D01*
X1775341Y296001D01*
X1775321Y296120D01*
X1775297Y296238D01*
X1775270Y296355D01*
X1775240Y296471D01*
X1775206Y296586D01*
X1775168Y296701D01*
X1775127Y296814D01*
X1775083Y296925D01*
X1775035Y297036D01*
X1774984Y297145D01*
X1774983Y297145D02*
X1774962Y297202D01*
X1774936Y297258D01*
X1774908Y297313D01*
X1774876Y297365D01*
X1774840Y297416D01*
X1774802Y297464D01*
X1774761Y297510D01*
X1774717Y297553D01*
X1774671Y297593D01*
X1774622Y297630D01*
X1774570Y297664D01*
X1774517Y297695D01*
X1774462Y297723D01*
X1774406Y297747D01*
X1774348Y297768D01*
X1774289Y297785D01*
X1774229Y297798D01*
X1774168Y297807D01*
X1774106Y297813D01*
X1774045Y297815D01*
X1773984Y297813D01*
X1773922Y297807D01*
X1773861Y297798D01*
X1773801Y297785D01*
X1773742Y297768D01*
X1773684Y297747D01*
X1773628Y297723D01*
X1773573Y297695D01*
X1773520Y297664D01*
X1773468Y297630D01*
X1773420Y297593D01*
X1773373Y297553D01*
X1773329Y297510D01*
X1773288Y297464D01*
X1773250Y297416D01*
X1773214Y297365D01*
X1773182Y297313D01*
X1773154Y297258D01*
X1773128Y297202D01*
X1773107Y297145D01*
X1773056Y297036D01*
X1773008Y296925D01*
X1772964Y296814D01*
X1772923Y296701D01*
X1772885Y296586D01*
X1772851Y296471D01*
X1772821Y296355D01*
X1772794Y296238D01*
X1772770Y296120D01*
X1772750Y296001D01*
X1772734Y295882D01*
X1772721Y295762D01*
X1772712Y295642D01*
X1772707Y295522D01*
X1772705Y295402D01*
X1775386Y295402D02*
X1775384Y295282D01*
X1775379Y295162D01*
X1775370Y295042D01*
X1775357Y294922D01*
X1775341Y294803D01*
X1775321Y294684D01*
X1775297Y294566D01*
X1775270Y294449D01*
X1775240Y294333D01*
X1775206Y294218D01*
X1775168Y294103D01*
X1775127Y293990D01*
X1775083Y293879D01*
X1775035Y293768D01*
X1774984Y293659D01*
X1774983Y293659D02*
X1774962Y293602D01*
X1774936Y293546D01*
X1774908Y293491D01*
X1774876Y293439D01*
X1774840Y293388D01*
X1774802Y293340D01*
X1774761Y293294D01*
X1774717Y293251D01*
X1774671Y293211D01*
X1774622Y293174D01*
X1774570Y293140D01*
X1774517Y293109D01*
X1774462Y293081D01*
X1774406Y293057D01*
X1774348Y293036D01*
X1774289Y293019D01*
X1774229Y293006D01*
X1774168Y292997D01*
X1774106Y292991D01*
X1774045Y292989D01*
X1773107Y293659D02*
X1773056Y293768D01*
X1773008Y293879D01*
X1772964Y293990D01*
X1772923Y294103D01*
X1772885Y294218D01*
X1772851Y294333D01*
X1772821Y294449D01*
X1772794Y294566D01*
X1772770Y294684D01*
X1772750Y294803D01*
X1772734Y294922D01*
X1772721Y295042D01*
X1772712Y295162D01*
X1772707Y295282D01*
X1772705Y295402D01*
X1773107Y293659D02*
X1773128Y293602D01*
X1773154Y293546D01*
X1773182Y293491D01*
X1773214Y293439D01*
X1773250Y293388D01*
X1773288Y293340D01*
X1773329Y293294D01*
X1773373Y293251D01*
X1773420Y293211D01*
X1773468Y293174D01*
X1773520Y293140D01*
X1773573Y293109D01*
X1773628Y293081D01*
X1773684Y293057D01*
X1773742Y293036D01*
X1773801Y293019D01*
X1773861Y293006D01*
X1773922Y292997D01*
X1773984Y292991D01*
X1774045Y292989D01*
X1775118Y294061D02*
X1772973Y296743D01*
X1827407Y109601D02*
X1827407Y105847D01*
X1827409Y105782D01*
X1827415Y105718D01*
X1827425Y105654D01*
X1827438Y105590D01*
X1827456Y105528D01*
X1827477Y105467D01*
X1827501Y105407D01*
X1827530Y105349D01*
X1827562Y105292D01*
X1827597Y105238D01*
X1827635Y105186D01*
X1827677Y105136D01*
X1827721Y105089D01*
X1827768Y105045D01*
X1827818Y105003D01*
X1827870Y104965D01*
X1827924Y104930D01*
X1827981Y104898D01*
X1828039Y104869D01*
X1828099Y104845D01*
X1828160Y104824D01*
X1828222Y104806D01*
X1828286Y104793D01*
X1828350Y104783D01*
X1828414Y104777D01*
X1828479Y104775D01*
X1829015Y104775D01*
X1824129Y104775D02*
X1824129Y109601D01*
X1822789Y109601D01*
X1822718Y109599D01*
X1822646Y109593D01*
X1822576Y109584D01*
X1822506Y109571D01*
X1822436Y109554D01*
X1822368Y109533D01*
X1822301Y109509D01*
X1822235Y109481D01*
X1822171Y109450D01*
X1822108Y109415D01*
X1822048Y109377D01*
X1821989Y109336D01*
X1821933Y109292D01*
X1821879Y109245D01*
X1821828Y109196D01*
X1821780Y109143D01*
X1821734Y109088D01*
X1821692Y109031D01*
X1821652Y108971D01*
X1821616Y108910D01*
X1821583Y108846D01*
X1821554Y108781D01*
X1821528Y108715D01*
X1821505Y108647D01*
X1821486Y108578D01*
X1821471Y108508D01*
X1821460Y108438D01*
X1821452Y108367D01*
X1821448Y108296D01*
X1821448Y108224D01*
X1821452Y108153D01*
X1821460Y108082D01*
X1821471Y108012D01*
X1821486Y107942D01*
X1821505Y107873D01*
X1821528Y107805D01*
X1821554Y107739D01*
X1821583Y107674D01*
X1821616Y107610D01*
X1821652Y107549D01*
X1821692Y107489D01*
X1821734Y107432D01*
X1821780Y107377D01*
X1821828Y107324D01*
X1821879Y107275D01*
X1821933Y107228D01*
X1821989Y107184D01*
X1822048Y107143D01*
X1822108Y107105D01*
X1822171Y107070D01*
X1822235Y107039D01*
X1822301Y107011D01*
X1822368Y106987D01*
X1822436Y106966D01*
X1822506Y106949D01*
X1822576Y106936D01*
X1822646Y106927D01*
X1822718Y106921D01*
X1822789Y106919D01*
X1822789Y106920D02*
X1824129Y106920D01*
X1818972Y108529D02*
X1817632Y109601D01*
X1817632Y104775D01*
X1818972Y104775D02*
X1816291Y104775D01*
X1813486Y104775D02*
X1812145Y104775D01*
X1812074Y104777D01*
X1812002Y104783D01*
X1811932Y104792D01*
X1811862Y104805D01*
X1811792Y104822D01*
X1811724Y104843D01*
X1811657Y104867D01*
X1811591Y104895D01*
X1811527Y104926D01*
X1811464Y104961D01*
X1811404Y104999D01*
X1811345Y105040D01*
X1811289Y105084D01*
X1811235Y105131D01*
X1811184Y105180D01*
X1811136Y105233D01*
X1811090Y105288D01*
X1811048Y105345D01*
X1811008Y105405D01*
X1810972Y105466D01*
X1810939Y105530D01*
X1810910Y105595D01*
X1810884Y105661D01*
X1810861Y105729D01*
X1810842Y105798D01*
X1810827Y105868D01*
X1810816Y105938D01*
X1810808Y106009D01*
X1810804Y106080D01*
X1810804Y106152D01*
X1810808Y106223D01*
X1810816Y106294D01*
X1810827Y106364D01*
X1810842Y106434D01*
X1810861Y106503D01*
X1810884Y106571D01*
X1810910Y106637D01*
X1810939Y106702D01*
X1810972Y106766D01*
X1811008Y106827D01*
X1811048Y106887D01*
X1811090Y106944D01*
X1811136Y106999D01*
X1811184Y107052D01*
X1811235Y107101D01*
X1811289Y107148D01*
X1811345Y107192D01*
X1811404Y107233D01*
X1811464Y107271D01*
X1811527Y107306D01*
X1811591Y107337D01*
X1811657Y107365D01*
X1811724Y107389D01*
X1811792Y107410D01*
X1811862Y107427D01*
X1811932Y107440D01*
X1812002Y107449D01*
X1812074Y107455D01*
X1812145Y107457D01*
X1811877Y109601D02*
X1813486Y109601D01*
X1811877Y109601D02*
X1811812Y109599D01*
X1811748Y109593D01*
X1811684Y109583D01*
X1811620Y109570D01*
X1811558Y109552D01*
X1811497Y109531D01*
X1811437Y109507D01*
X1811379Y109478D01*
X1811322Y109446D01*
X1811268Y109411D01*
X1811216Y109373D01*
X1811166Y109331D01*
X1811119Y109287D01*
X1811075Y109240D01*
X1811033Y109190D01*
X1810995Y109138D01*
X1810960Y109084D01*
X1810928Y109027D01*
X1810899Y108969D01*
X1810875Y108909D01*
X1810854Y108848D01*
X1810836Y108786D01*
X1810823Y108722D01*
X1810813Y108658D01*
X1810807Y108594D01*
X1810805Y108529D01*
X1810807Y108464D01*
X1810813Y108400D01*
X1810823Y108336D01*
X1810836Y108272D01*
X1810854Y108210D01*
X1810875Y108149D01*
X1810899Y108089D01*
X1810928Y108031D01*
X1810960Y107974D01*
X1810995Y107920D01*
X1811033Y107868D01*
X1811075Y107818D01*
X1811119Y107771D01*
X1811166Y107727D01*
X1811216Y107685D01*
X1811268Y107647D01*
X1811322Y107612D01*
X1811379Y107580D01*
X1811437Y107551D01*
X1811497Y107527D01*
X1811558Y107506D01*
X1811620Y107488D01*
X1811684Y107475D01*
X1811748Y107465D01*
X1811812Y107459D01*
X1811877Y107457D01*
X1811877Y107456D02*
X1812950Y107456D01*
X1827407Y118547D02*
X1827407Y122301D01*
X1827407Y118547D02*
X1827409Y118482D01*
X1827415Y118418D01*
X1827425Y118354D01*
X1827438Y118290D01*
X1827456Y118228D01*
X1827477Y118167D01*
X1827501Y118107D01*
X1827530Y118049D01*
X1827562Y117992D01*
X1827597Y117938D01*
X1827635Y117886D01*
X1827677Y117836D01*
X1827721Y117789D01*
X1827768Y117745D01*
X1827818Y117703D01*
X1827870Y117665D01*
X1827924Y117630D01*
X1827981Y117598D01*
X1828039Y117569D01*
X1828099Y117545D01*
X1828160Y117524D01*
X1828222Y117506D01*
X1828286Y117493D01*
X1828350Y117483D01*
X1828414Y117477D01*
X1828479Y117475D01*
X1829015Y117475D01*
X1824129Y117475D02*
X1824129Y122301D01*
X1822789Y122301D01*
X1822718Y122299D01*
X1822646Y122293D01*
X1822576Y122284D01*
X1822506Y122271D01*
X1822436Y122254D01*
X1822368Y122233D01*
X1822301Y122209D01*
X1822235Y122181D01*
X1822171Y122150D01*
X1822108Y122115D01*
X1822048Y122077D01*
X1821989Y122036D01*
X1821933Y121992D01*
X1821879Y121945D01*
X1821828Y121896D01*
X1821780Y121843D01*
X1821734Y121788D01*
X1821692Y121731D01*
X1821652Y121671D01*
X1821616Y121610D01*
X1821583Y121546D01*
X1821554Y121481D01*
X1821528Y121415D01*
X1821505Y121347D01*
X1821486Y121278D01*
X1821471Y121208D01*
X1821460Y121138D01*
X1821452Y121067D01*
X1821448Y120996D01*
X1821448Y120924D01*
X1821452Y120853D01*
X1821460Y120782D01*
X1821471Y120712D01*
X1821486Y120642D01*
X1821505Y120573D01*
X1821528Y120505D01*
X1821554Y120439D01*
X1821583Y120374D01*
X1821616Y120310D01*
X1821652Y120249D01*
X1821692Y120189D01*
X1821734Y120132D01*
X1821780Y120077D01*
X1821828Y120024D01*
X1821879Y119975D01*
X1821933Y119928D01*
X1821989Y119884D01*
X1822048Y119843D01*
X1822108Y119805D01*
X1822171Y119770D01*
X1822235Y119739D01*
X1822301Y119711D01*
X1822368Y119687D01*
X1822436Y119666D01*
X1822506Y119649D01*
X1822576Y119636D01*
X1822646Y119627D01*
X1822718Y119621D01*
X1822789Y119619D01*
X1822789Y119620D02*
X1824129Y119620D01*
X1818972Y121229D02*
X1817632Y122301D01*
X1817632Y117475D01*
X1818972Y117475D02*
X1816291Y117475D01*
X1813486Y121765D02*
X1813486Y122301D01*
X1810805Y122301D01*
X1812145Y117475D01*
X1827407Y149027D02*
X1827407Y152781D01*
X1827407Y149027D02*
X1827409Y148962D01*
X1827415Y148898D01*
X1827425Y148834D01*
X1827438Y148770D01*
X1827456Y148708D01*
X1827477Y148647D01*
X1827501Y148587D01*
X1827530Y148529D01*
X1827562Y148472D01*
X1827597Y148418D01*
X1827635Y148366D01*
X1827677Y148316D01*
X1827721Y148269D01*
X1827768Y148225D01*
X1827818Y148183D01*
X1827870Y148145D01*
X1827924Y148110D01*
X1827981Y148078D01*
X1828039Y148049D01*
X1828099Y148025D01*
X1828160Y148004D01*
X1828222Y147986D01*
X1828286Y147973D01*
X1828350Y147963D01*
X1828414Y147957D01*
X1828479Y147955D01*
X1829015Y147955D01*
X1824129Y147955D02*
X1824129Y152781D01*
X1822789Y152781D01*
X1822718Y152779D01*
X1822646Y152773D01*
X1822576Y152764D01*
X1822506Y152751D01*
X1822436Y152734D01*
X1822368Y152713D01*
X1822301Y152689D01*
X1822235Y152661D01*
X1822171Y152630D01*
X1822108Y152595D01*
X1822048Y152557D01*
X1821989Y152516D01*
X1821933Y152472D01*
X1821879Y152425D01*
X1821828Y152376D01*
X1821780Y152323D01*
X1821734Y152268D01*
X1821692Y152211D01*
X1821652Y152151D01*
X1821616Y152090D01*
X1821583Y152026D01*
X1821554Y151961D01*
X1821528Y151895D01*
X1821505Y151827D01*
X1821486Y151758D01*
X1821471Y151688D01*
X1821460Y151618D01*
X1821452Y151547D01*
X1821448Y151476D01*
X1821448Y151404D01*
X1821452Y151333D01*
X1821460Y151262D01*
X1821471Y151192D01*
X1821486Y151122D01*
X1821505Y151053D01*
X1821528Y150985D01*
X1821554Y150919D01*
X1821583Y150854D01*
X1821616Y150790D01*
X1821652Y150729D01*
X1821692Y150669D01*
X1821734Y150612D01*
X1821780Y150557D01*
X1821828Y150504D01*
X1821879Y150455D01*
X1821933Y150408D01*
X1821989Y150364D01*
X1822048Y150323D01*
X1822108Y150285D01*
X1822171Y150250D01*
X1822235Y150219D01*
X1822301Y150191D01*
X1822368Y150167D01*
X1822436Y150146D01*
X1822506Y150129D01*
X1822576Y150116D01*
X1822646Y150107D01*
X1822718Y150101D01*
X1822789Y150099D01*
X1822789Y150100D02*
X1824129Y150100D01*
X1818972Y151709D02*
X1817632Y152781D01*
X1817632Y147955D01*
X1818972Y147955D02*
X1816291Y147955D01*
X1812011Y152781D02*
X1811943Y152779D01*
X1811876Y152773D01*
X1811809Y152764D01*
X1811742Y152751D01*
X1811677Y152734D01*
X1811612Y152713D01*
X1811549Y152689D01*
X1811487Y152661D01*
X1811427Y152630D01*
X1811369Y152596D01*
X1811313Y152558D01*
X1811258Y152518D01*
X1811207Y152474D01*
X1811158Y152427D01*
X1811111Y152378D01*
X1811067Y152327D01*
X1811027Y152272D01*
X1810989Y152216D01*
X1810955Y152158D01*
X1810924Y152098D01*
X1810896Y152036D01*
X1810872Y151973D01*
X1810851Y151908D01*
X1810834Y151843D01*
X1810821Y151776D01*
X1810812Y151709D01*
X1810806Y151642D01*
X1810804Y151574D01*
X1812011Y152781D02*
X1812089Y152779D01*
X1812167Y152773D01*
X1812244Y152763D01*
X1812321Y152750D01*
X1812397Y152732D01*
X1812472Y152711D01*
X1812546Y152686D01*
X1812618Y152657D01*
X1812689Y152625D01*
X1812758Y152589D01*
X1812826Y152550D01*
X1812891Y152507D01*
X1812954Y152461D01*
X1813015Y152412D01*
X1813073Y152360D01*
X1813128Y152305D01*
X1813181Y152248D01*
X1813230Y152188D01*
X1813277Y152125D01*
X1813320Y152060D01*
X1813360Y151994D01*
X1813397Y151925D01*
X1813430Y151854D01*
X1813460Y151782D01*
X1813486Y151708D01*
X1811207Y150636D02*
X1811158Y150685D01*
X1811111Y150737D01*
X1811068Y150792D01*
X1811027Y150849D01*
X1810989Y150908D01*
X1810955Y150969D01*
X1810924Y151032D01*
X1810896Y151096D01*
X1810872Y151162D01*
X1810852Y151228D01*
X1810835Y151296D01*
X1810822Y151365D01*
X1810813Y151434D01*
X1810807Y151504D01*
X1810805Y151574D01*
X1811207Y150636D02*
X1813486Y147955D01*
X1810805Y147955D01*
X1827407Y138811D02*
X1827407Y135057D01*
X1827409Y134992D01*
X1827415Y134928D01*
X1827425Y134864D01*
X1827438Y134800D01*
X1827456Y134738D01*
X1827477Y134677D01*
X1827501Y134617D01*
X1827530Y134559D01*
X1827562Y134502D01*
X1827597Y134448D01*
X1827635Y134396D01*
X1827677Y134346D01*
X1827721Y134299D01*
X1827768Y134255D01*
X1827818Y134213D01*
X1827870Y134175D01*
X1827924Y134140D01*
X1827981Y134108D01*
X1828039Y134079D01*
X1828099Y134055D01*
X1828160Y134034D01*
X1828222Y134016D01*
X1828286Y134003D01*
X1828350Y133993D01*
X1828414Y133987D01*
X1828479Y133985D01*
X1829015Y133985D01*
X1824129Y133985D02*
X1824129Y138811D01*
X1822789Y138811D01*
X1822718Y138809D01*
X1822646Y138803D01*
X1822576Y138794D01*
X1822506Y138781D01*
X1822436Y138764D01*
X1822368Y138743D01*
X1822301Y138719D01*
X1822235Y138691D01*
X1822171Y138660D01*
X1822108Y138625D01*
X1822048Y138587D01*
X1821989Y138546D01*
X1821933Y138502D01*
X1821879Y138455D01*
X1821828Y138406D01*
X1821780Y138353D01*
X1821734Y138298D01*
X1821692Y138241D01*
X1821652Y138181D01*
X1821616Y138120D01*
X1821583Y138056D01*
X1821554Y137991D01*
X1821528Y137925D01*
X1821505Y137857D01*
X1821486Y137788D01*
X1821471Y137718D01*
X1821460Y137648D01*
X1821452Y137577D01*
X1821448Y137506D01*
X1821448Y137434D01*
X1821452Y137363D01*
X1821460Y137292D01*
X1821471Y137222D01*
X1821486Y137152D01*
X1821505Y137083D01*
X1821528Y137015D01*
X1821554Y136949D01*
X1821583Y136884D01*
X1821616Y136820D01*
X1821652Y136759D01*
X1821692Y136699D01*
X1821734Y136642D01*
X1821780Y136587D01*
X1821828Y136534D01*
X1821879Y136485D01*
X1821933Y136438D01*
X1821989Y136394D01*
X1822048Y136353D01*
X1822108Y136315D01*
X1822171Y136280D01*
X1822235Y136249D01*
X1822301Y136221D01*
X1822368Y136197D01*
X1822436Y136176D01*
X1822506Y136159D01*
X1822576Y136146D01*
X1822646Y136137D01*
X1822718Y136131D01*
X1822789Y136129D01*
X1822789Y136130D02*
X1824129Y136130D01*
X1818972Y137739D02*
X1817632Y138811D01*
X1817632Y133985D01*
X1818972Y133985D02*
X1816291Y133985D01*
X1813486Y136666D02*
X1811877Y136666D01*
X1811812Y136664D01*
X1811748Y136658D01*
X1811684Y136648D01*
X1811620Y136635D01*
X1811558Y136617D01*
X1811497Y136596D01*
X1811437Y136572D01*
X1811379Y136543D01*
X1811322Y136511D01*
X1811268Y136476D01*
X1811216Y136438D01*
X1811166Y136396D01*
X1811119Y136352D01*
X1811075Y136305D01*
X1811033Y136255D01*
X1810995Y136203D01*
X1810960Y136149D01*
X1810928Y136092D01*
X1810899Y136034D01*
X1810875Y135974D01*
X1810854Y135913D01*
X1810836Y135851D01*
X1810823Y135787D01*
X1810813Y135723D01*
X1810807Y135659D01*
X1810805Y135594D01*
X1810805Y135326D01*
X1810804Y135326D02*
X1810806Y135255D01*
X1810812Y135183D01*
X1810821Y135113D01*
X1810834Y135043D01*
X1810851Y134973D01*
X1810872Y134905D01*
X1810896Y134838D01*
X1810924Y134772D01*
X1810955Y134708D01*
X1810990Y134645D01*
X1811028Y134585D01*
X1811069Y134526D01*
X1811113Y134470D01*
X1811160Y134416D01*
X1811209Y134365D01*
X1811262Y134317D01*
X1811317Y134271D01*
X1811374Y134229D01*
X1811434Y134189D01*
X1811495Y134153D01*
X1811559Y134120D01*
X1811624Y134091D01*
X1811690Y134065D01*
X1811758Y134042D01*
X1811827Y134023D01*
X1811897Y134008D01*
X1811967Y133997D01*
X1812038Y133989D01*
X1812109Y133985D01*
X1812181Y133985D01*
X1812252Y133989D01*
X1812323Y133997D01*
X1812393Y134008D01*
X1812463Y134023D01*
X1812532Y134042D01*
X1812600Y134065D01*
X1812666Y134091D01*
X1812731Y134120D01*
X1812795Y134153D01*
X1812856Y134189D01*
X1812916Y134229D01*
X1812973Y134271D01*
X1813028Y134317D01*
X1813081Y134365D01*
X1813130Y134416D01*
X1813177Y134470D01*
X1813221Y134526D01*
X1813262Y134585D01*
X1813300Y134645D01*
X1813335Y134708D01*
X1813366Y134772D01*
X1813394Y134838D01*
X1813418Y134905D01*
X1813439Y134973D01*
X1813456Y135043D01*
X1813469Y135113D01*
X1813478Y135183D01*
X1813484Y135255D01*
X1813486Y135326D01*
X1813486Y136666D01*
X1813484Y136757D01*
X1813478Y136848D01*
X1813469Y136938D01*
X1813455Y137029D01*
X1813438Y137118D01*
X1813417Y137206D01*
X1813392Y137294D01*
X1813363Y137381D01*
X1813331Y137466D01*
X1813296Y137550D01*
X1813256Y137632D01*
X1813214Y137712D01*
X1813168Y137791D01*
X1813118Y137867D01*
X1813066Y137941D01*
X1813010Y138014D01*
X1812951Y138083D01*
X1812890Y138150D01*
X1812825Y138215D01*
X1812758Y138276D01*
X1812689Y138335D01*
X1812616Y138391D01*
X1812542Y138443D01*
X1812466Y138493D01*
X1812387Y138539D01*
X1812307Y138581D01*
X1812225Y138621D01*
X1812141Y138656D01*
X1812056Y138688D01*
X1811969Y138717D01*
X1811881Y138742D01*
X1811793Y138763D01*
X1811704Y138780D01*
X1811613Y138794D01*
X1811523Y138803D01*
X1811432Y138809D01*
X1811341Y138811D01*
X1657555Y92598D02*
X1652729Y92598D01*
X1657555Y92598D02*
X1657555Y93939D01*
X1657553Y94010D01*
X1657547Y94082D01*
X1657538Y94152D01*
X1657525Y94222D01*
X1657508Y94292D01*
X1657487Y94360D01*
X1657463Y94427D01*
X1657435Y94493D01*
X1657404Y94557D01*
X1657369Y94620D01*
X1657331Y94680D01*
X1657290Y94739D01*
X1657246Y94795D01*
X1657199Y94849D01*
X1657150Y94900D01*
X1657097Y94948D01*
X1657042Y94994D01*
X1656985Y95036D01*
X1656925Y95076D01*
X1656864Y95112D01*
X1656800Y95145D01*
X1656735Y95174D01*
X1656669Y95200D01*
X1656601Y95223D01*
X1656532Y95242D01*
X1656462Y95257D01*
X1656392Y95268D01*
X1656321Y95276D01*
X1656250Y95280D01*
X1656178Y95280D01*
X1656107Y95276D01*
X1656036Y95268D01*
X1655966Y95257D01*
X1655896Y95242D01*
X1655827Y95223D01*
X1655759Y95200D01*
X1655693Y95174D01*
X1655628Y95145D01*
X1655564Y95112D01*
X1655503Y95076D01*
X1655443Y95036D01*
X1655386Y94994D01*
X1655331Y94948D01*
X1655278Y94900D01*
X1655229Y94849D01*
X1655182Y94795D01*
X1655138Y94739D01*
X1655097Y94680D01*
X1655059Y94620D01*
X1655024Y94557D01*
X1654993Y94493D01*
X1654965Y94427D01*
X1654941Y94360D01*
X1654920Y94292D01*
X1654903Y94222D01*
X1654890Y94152D01*
X1654881Y94082D01*
X1654875Y94010D01*
X1654873Y93939D01*
X1654874Y93939D02*
X1654874Y92598D01*
X1654874Y94207D02*
X1652729Y95279D01*
X1654070Y98020D02*
X1654141Y98022D01*
X1654213Y98028D01*
X1654283Y98037D01*
X1654353Y98050D01*
X1654423Y98067D01*
X1654491Y98088D01*
X1654558Y98112D01*
X1654624Y98140D01*
X1654688Y98171D01*
X1654751Y98206D01*
X1654811Y98244D01*
X1654870Y98285D01*
X1654926Y98329D01*
X1654980Y98376D01*
X1655031Y98425D01*
X1655079Y98478D01*
X1655125Y98533D01*
X1655167Y98590D01*
X1655207Y98650D01*
X1655243Y98711D01*
X1655276Y98775D01*
X1655305Y98840D01*
X1655331Y98906D01*
X1655354Y98974D01*
X1655373Y99043D01*
X1655388Y99113D01*
X1655399Y99183D01*
X1655407Y99254D01*
X1655411Y99325D01*
X1655411Y99397D01*
X1655407Y99468D01*
X1655399Y99539D01*
X1655388Y99609D01*
X1655373Y99679D01*
X1655354Y99748D01*
X1655331Y99816D01*
X1655305Y99882D01*
X1655276Y99947D01*
X1655243Y100011D01*
X1655207Y100072D01*
X1655167Y100132D01*
X1655125Y100189D01*
X1655079Y100244D01*
X1655031Y100297D01*
X1654980Y100346D01*
X1654926Y100393D01*
X1654870Y100437D01*
X1654811Y100478D01*
X1654751Y100516D01*
X1654688Y100551D01*
X1654624Y100582D01*
X1654558Y100610D01*
X1654491Y100634D01*
X1654423Y100655D01*
X1654353Y100672D01*
X1654283Y100685D01*
X1654213Y100694D01*
X1654141Y100700D01*
X1654070Y100702D01*
X1653999Y100700D01*
X1653927Y100694D01*
X1653857Y100685D01*
X1653787Y100672D01*
X1653717Y100655D01*
X1653649Y100634D01*
X1653582Y100610D01*
X1653516Y100582D01*
X1653452Y100551D01*
X1653389Y100516D01*
X1653329Y100478D01*
X1653270Y100437D01*
X1653214Y100393D01*
X1653160Y100346D01*
X1653109Y100297D01*
X1653061Y100244D01*
X1653015Y100189D01*
X1652973Y100132D01*
X1652933Y100072D01*
X1652897Y100011D01*
X1652864Y99947D01*
X1652835Y99882D01*
X1652809Y99816D01*
X1652786Y99748D01*
X1652767Y99679D01*
X1652752Y99609D01*
X1652741Y99539D01*
X1652733Y99468D01*
X1652729Y99397D01*
X1652729Y99325D01*
X1652733Y99254D01*
X1652741Y99183D01*
X1652752Y99113D01*
X1652767Y99043D01*
X1652786Y98974D01*
X1652809Y98906D01*
X1652835Y98840D01*
X1652864Y98775D01*
X1652897Y98711D01*
X1652933Y98650D01*
X1652973Y98590D01*
X1653015Y98533D01*
X1653061Y98478D01*
X1653109Y98425D01*
X1653160Y98376D01*
X1653214Y98329D01*
X1653270Y98285D01*
X1653329Y98244D01*
X1653389Y98206D01*
X1653452Y98171D01*
X1653516Y98140D01*
X1653582Y98112D01*
X1653649Y98088D01*
X1653717Y98067D01*
X1653787Y98050D01*
X1653857Y98037D01*
X1653927Y98028D01*
X1653999Y98022D01*
X1654070Y98020D01*
X1656483Y98289D02*
X1656548Y98291D01*
X1656612Y98297D01*
X1656676Y98307D01*
X1656740Y98320D01*
X1656802Y98338D01*
X1656863Y98359D01*
X1656923Y98383D01*
X1656981Y98412D01*
X1657038Y98444D01*
X1657092Y98479D01*
X1657144Y98517D01*
X1657194Y98559D01*
X1657241Y98603D01*
X1657285Y98650D01*
X1657327Y98700D01*
X1657365Y98752D01*
X1657400Y98806D01*
X1657432Y98863D01*
X1657461Y98921D01*
X1657485Y98981D01*
X1657506Y99042D01*
X1657524Y99104D01*
X1657537Y99168D01*
X1657547Y99232D01*
X1657553Y99296D01*
X1657555Y99361D01*
X1657553Y99426D01*
X1657547Y99490D01*
X1657537Y99554D01*
X1657524Y99618D01*
X1657506Y99680D01*
X1657485Y99741D01*
X1657461Y99801D01*
X1657432Y99859D01*
X1657400Y99916D01*
X1657365Y99970D01*
X1657327Y100022D01*
X1657285Y100072D01*
X1657241Y100119D01*
X1657194Y100163D01*
X1657144Y100205D01*
X1657092Y100243D01*
X1657038Y100278D01*
X1656981Y100310D01*
X1656923Y100339D01*
X1656863Y100363D01*
X1656802Y100384D01*
X1656740Y100402D01*
X1656676Y100415D01*
X1656612Y100425D01*
X1656548Y100431D01*
X1656483Y100433D01*
X1656418Y100431D01*
X1656354Y100425D01*
X1656290Y100415D01*
X1656226Y100402D01*
X1656164Y100384D01*
X1656103Y100363D01*
X1656043Y100339D01*
X1655985Y100310D01*
X1655928Y100278D01*
X1655874Y100243D01*
X1655822Y100205D01*
X1655772Y100163D01*
X1655725Y100119D01*
X1655681Y100072D01*
X1655639Y100022D01*
X1655601Y99970D01*
X1655566Y99916D01*
X1655534Y99859D01*
X1655505Y99801D01*
X1655481Y99741D01*
X1655460Y99680D01*
X1655442Y99618D01*
X1655429Y99554D01*
X1655419Y99490D01*
X1655413Y99426D01*
X1655411Y99361D01*
X1655413Y99296D01*
X1655419Y99232D01*
X1655429Y99168D01*
X1655442Y99104D01*
X1655460Y99042D01*
X1655481Y98981D01*
X1655505Y98921D01*
X1655534Y98863D01*
X1655566Y98806D01*
X1655601Y98752D01*
X1655639Y98700D01*
X1655681Y98650D01*
X1655725Y98603D01*
X1655772Y98559D01*
X1655822Y98517D01*
X1655874Y98479D01*
X1655928Y98444D01*
X1655985Y98412D01*
X1656043Y98383D01*
X1656103Y98359D01*
X1656164Y98338D01*
X1656226Y98320D01*
X1656290Y98307D01*
X1656354Y98297D01*
X1656418Y98291D01*
X1656483Y98289D01*
X1655052Y155575D02*
X1655052Y160401D01*
X1653711Y160401D01*
X1653640Y160399D01*
X1653568Y160393D01*
X1653498Y160384D01*
X1653428Y160371D01*
X1653358Y160354D01*
X1653290Y160333D01*
X1653223Y160309D01*
X1653157Y160281D01*
X1653093Y160250D01*
X1653030Y160215D01*
X1652970Y160177D01*
X1652911Y160136D01*
X1652855Y160092D01*
X1652801Y160045D01*
X1652750Y159996D01*
X1652702Y159943D01*
X1652656Y159888D01*
X1652614Y159831D01*
X1652574Y159771D01*
X1652538Y159710D01*
X1652505Y159646D01*
X1652476Y159581D01*
X1652450Y159515D01*
X1652427Y159447D01*
X1652408Y159378D01*
X1652393Y159308D01*
X1652382Y159238D01*
X1652374Y159167D01*
X1652370Y159096D01*
X1652370Y159024D01*
X1652374Y158953D01*
X1652382Y158882D01*
X1652393Y158812D01*
X1652408Y158742D01*
X1652427Y158673D01*
X1652450Y158605D01*
X1652476Y158539D01*
X1652505Y158474D01*
X1652538Y158410D01*
X1652574Y158349D01*
X1652614Y158289D01*
X1652656Y158232D01*
X1652702Y158177D01*
X1652750Y158124D01*
X1652801Y158075D01*
X1652855Y158028D01*
X1652911Y157984D01*
X1652970Y157943D01*
X1653030Y157905D01*
X1653093Y157870D01*
X1653157Y157839D01*
X1653223Y157811D01*
X1653290Y157787D01*
X1653358Y157766D01*
X1653428Y157749D01*
X1653498Y157736D01*
X1653568Y157727D01*
X1653640Y157721D01*
X1653711Y157719D01*
X1653711Y157720D02*
X1655052Y157720D01*
X1653443Y157720D02*
X1652371Y155575D01*
X1648557Y157720D02*
X1646948Y157720D01*
X1648557Y157720D02*
X1648622Y157722D01*
X1648686Y157728D01*
X1648750Y157738D01*
X1648814Y157751D01*
X1648876Y157769D01*
X1648937Y157790D01*
X1648997Y157814D01*
X1649055Y157843D01*
X1649112Y157875D01*
X1649166Y157910D01*
X1649218Y157948D01*
X1649268Y157990D01*
X1649315Y158034D01*
X1649359Y158081D01*
X1649401Y158131D01*
X1649439Y158183D01*
X1649474Y158237D01*
X1649506Y158294D01*
X1649535Y158352D01*
X1649559Y158412D01*
X1649580Y158473D01*
X1649598Y158535D01*
X1649611Y158599D01*
X1649621Y158663D01*
X1649627Y158727D01*
X1649629Y158792D01*
X1649629Y159060D01*
X1649630Y159060D02*
X1649628Y159131D01*
X1649622Y159203D01*
X1649613Y159273D01*
X1649600Y159343D01*
X1649583Y159413D01*
X1649562Y159481D01*
X1649538Y159548D01*
X1649510Y159614D01*
X1649479Y159678D01*
X1649444Y159741D01*
X1649406Y159801D01*
X1649365Y159860D01*
X1649321Y159916D01*
X1649274Y159970D01*
X1649225Y160021D01*
X1649172Y160069D01*
X1649117Y160115D01*
X1649060Y160157D01*
X1649000Y160197D01*
X1648939Y160233D01*
X1648875Y160266D01*
X1648810Y160295D01*
X1648744Y160321D01*
X1648676Y160344D01*
X1648607Y160363D01*
X1648537Y160378D01*
X1648467Y160389D01*
X1648396Y160397D01*
X1648325Y160401D01*
X1648253Y160401D01*
X1648182Y160397D01*
X1648111Y160389D01*
X1648041Y160378D01*
X1647971Y160363D01*
X1647902Y160344D01*
X1647834Y160321D01*
X1647768Y160295D01*
X1647703Y160266D01*
X1647639Y160233D01*
X1647578Y160197D01*
X1647518Y160157D01*
X1647461Y160115D01*
X1647406Y160069D01*
X1647353Y160021D01*
X1647304Y159970D01*
X1647257Y159916D01*
X1647213Y159860D01*
X1647172Y159801D01*
X1647134Y159741D01*
X1647099Y159678D01*
X1647068Y159614D01*
X1647040Y159548D01*
X1647016Y159481D01*
X1646995Y159413D01*
X1646978Y159343D01*
X1646965Y159273D01*
X1646956Y159203D01*
X1646950Y159131D01*
X1646948Y159060D01*
X1646948Y157720D01*
X1646950Y157629D01*
X1646956Y157538D01*
X1646965Y157448D01*
X1646979Y157357D01*
X1646996Y157268D01*
X1647017Y157180D01*
X1647042Y157092D01*
X1647071Y157005D01*
X1647103Y156920D01*
X1647138Y156836D01*
X1647178Y156754D01*
X1647220Y156674D01*
X1647266Y156595D01*
X1647316Y156519D01*
X1647368Y156445D01*
X1647424Y156372D01*
X1647483Y156303D01*
X1647544Y156236D01*
X1647609Y156171D01*
X1647676Y156110D01*
X1647745Y156051D01*
X1647818Y155995D01*
X1647892Y155943D01*
X1647968Y155893D01*
X1648047Y155847D01*
X1648127Y155805D01*
X1648209Y155765D01*
X1648293Y155730D01*
X1648378Y155698D01*
X1648465Y155669D01*
X1648553Y155644D01*
X1648641Y155623D01*
X1648730Y155606D01*
X1648821Y155592D01*
X1648911Y155583D01*
X1649002Y155577D01*
X1649093Y155575D01*
X1685815Y89855D02*
X1690641Y89855D01*
X1690641Y91196D01*
X1690639Y91267D01*
X1690633Y91339D01*
X1690624Y91409D01*
X1690611Y91479D01*
X1690594Y91549D01*
X1690573Y91617D01*
X1690549Y91684D01*
X1690521Y91750D01*
X1690490Y91814D01*
X1690455Y91877D01*
X1690417Y91937D01*
X1690376Y91996D01*
X1690332Y92052D01*
X1690285Y92106D01*
X1690236Y92157D01*
X1690183Y92205D01*
X1690128Y92251D01*
X1690071Y92293D01*
X1690011Y92333D01*
X1689950Y92369D01*
X1689886Y92402D01*
X1689821Y92431D01*
X1689755Y92457D01*
X1689687Y92480D01*
X1689618Y92499D01*
X1689548Y92514D01*
X1689478Y92525D01*
X1689407Y92533D01*
X1689336Y92537D01*
X1689264Y92537D01*
X1689193Y92533D01*
X1689122Y92525D01*
X1689052Y92514D01*
X1688982Y92499D01*
X1688913Y92480D01*
X1688845Y92457D01*
X1688779Y92431D01*
X1688714Y92402D01*
X1688650Y92369D01*
X1688589Y92333D01*
X1688529Y92293D01*
X1688472Y92251D01*
X1688417Y92205D01*
X1688364Y92157D01*
X1688315Y92106D01*
X1688268Y92052D01*
X1688224Y91996D01*
X1688183Y91937D01*
X1688145Y91877D01*
X1688110Y91814D01*
X1688079Y91750D01*
X1688051Y91684D01*
X1688027Y91617D01*
X1688006Y91549D01*
X1687989Y91479D01*
X1687976Y91409D01*
X1687967Y91339D01*
X1687961Y91267D01*
X1687959Y91196D01*
X1687960Y91196D02*
X1687960Y89855D01*
X1687960Y91464D02*
X1685815Y92536D01*
X1689569Y95278D02*
X1690641Y96618D01*
X1685815Y96618D01*
X1685815Y95278D02*
X1685815Y97959D01*
X1688228Y100764D02*
X1688348Y100766D01*
X1688468Y100771D01*
X1688588Y100780D01*
X1688708Y100793D01*
X1688827Y100809D01*
X1688946Y100829D01*
X1689064Y100853D01*
X1689181Y100880D01*
X1689297Y100910D01*
X1689412Y100944D01*
X1689527Y100982D01*
X1689640Y101023D01*
X1689751Y101067D01*
X1689862Y101115D01*
X1689971Y101166D01*
X1689971Y101167D02*
X1690028Y101188D01*
X1690084Y101214D01*
X1690139Y101242D01*
X1690191Y101274D01*
X1690242Y101310D01*
X1690290Y101348D01*
X1690336Y101389D01*
X1690379Y101433D01*
X1690419Y101479D01*
X1690456Y101528D01*
X1690490Y101580D01*
X1690521Y101633D01*
X1690549Y101688D01*
X1690573Y101744D01*
X1690594Y101802D01*
X1690611Y101861D01*
X1690624Y101921D01*
X1690633Y101982D01*
X1690639Y102044D01*
X1690641Y102105D01*
X1690639Y102166D01*
X1690633Y102228D01*
X1690624Y102289D01*
X1690611Y102349D01*
X1690594Y102408D01*
X1690573Y102466D01*
X1690549Y102522D01*
X1690521Y102577D01*
X1690490Y102630D01*
X1690456Y102682D01*
X1690419Y102731D01*
X1690379Y102777D01*
X1690336Y102821D01*
X1690290Y102862D01*
X1690242Y102900D01*
X1690191Y102936D01*
X1690139Y102968D01*
X1690084Y102996D01*
X1690028Y103022D01*
X1689971Y103043D01*
X1689862Y103094D01*
X1689751Y103142D01*
X1689640Y103186D01*
X1689527Y103227D01*
X1689412Y103265D01*
X1689297Y103299D01*
X1689181Y103329D01*
X1689064Y103356D01*
X1688946Y103380D01*
X1688827Y103400D01*
X1688708Y103416D01*
X1688588Y103429D01*
X1688468Y103438D01*
X1688348Y103443D01*
X1688228Y103445D01*
X1688228Y100764D02*
X1688108Y100766D01*
X1687988Y100771D01*
X1687868Y100780D01*
X1687748Y100793D01*
X1687629Y100809D01*
X1687510Y100829D01*
X1687392Y100853D01*
X1687275Y100880D01*
X1687159Y100910D01*
X1687044Y100944D01*
X1686929Y100982D01*
X1686816Y101023D01*
X1686705Y101067D01*
X1686594Y101115D01*
X1686485Y101166D01*
X1686485Y101167D02*
X1686428Y101188D01*
X1686372Y101214D01*
X1686317Y101242D01*
X1686265Y101274D01*
X1686214Y101310D01*
X1686166Y101348D01*
X1686120Y101389D01*
X1686077Y101433D01*
X1686037Y101479D01*
X1686000Y101528D01*
X1685966Y101580D01*
X1685935Y101633D01*
X1685907Y101688D01*
X1685883Y101744D01*
X1685862Y101802D01*
X1685845Y101861D01*
X1685832Y101921D01*
X1685823Y101982D01*
X1685817Y102044D01*
X1685815Y102105D01*
X1686485Y103043D02*
X1686594Y103094D01*
X1686705Y103142D01*
X1686816Y103186D01*
X1686929Y103227D01*
X1687044Y103265D01*
X1687159Y103299D01*
X1687275Y103329D01*
X1687392Y103356D01*
X1687510Y103380D01*
X1687629Y103400D01*
X1687748Y103416D01*
X1687868Y103429D01*
X1687988Y103438D01*
X1688108Y103443D01*
X1688228Y103445D01*
X1686485Y103043D02*
X1686428Y103022D01*
X1686372Y102996D01*
X1686317Y102968D01*
X1686265Y102936D01*
X1686214Y102900D01*
X1686166Y102862D01*
X1686120Y102821D01*
X1686077Y102777D01*
X1686037Y102730D01*
X1686000Y102682D01*
X1685966Y102630D01*
X1685935Y102577D01*
X1685907Y102522D01*
X1685883Y102466D01*
X1685862Y102408D01*
X1685845Y102349D01*
X1685832Y102289D01*
X1685823Y102228D01*
X1685817Y102166D01*
X1685815Y102105D01*
X1686887Y101032D02*
X1689569Y103177D01*
X1625805Y89855D02*
X1620979Y89855D01*
X1625805Y89855D02*
X1625805Y91195D01*
X1625803Y91266D01*
X1625797Y91338D01*
X1625788Y91408D01*
X1625775Y91478D01*
X1625758Y91548D01*
X1625737Y91616D01*
X1625713Y91683D01*
X1625685Y91749D01*
X1625654Y91813D01*
X1625619Y91876D01*
X1625581Y91936D01*
X1625540Y91995D01*
X1625496Y92051D01*
X1625449Y92105D01*
X1625400Y92156D01*
X1625347Y92204D01*
X1625292Y92250D01*
X1625235Y92292D01*
X1625175Y92332D01*
X1625114Y92368D01*
X1625050Y92401D01*
X1624985Y92430D01*
X1624919Y92456D01*
X1624851Y92479D01*
X1624782Y92498D01*
X1624712Y92513D01*
X1624642Y92524D01*
X1624571Y92532D01*
X1624500Y92536D01*
X1624428Y92536D01*
X1624357Y92532D01*
X1624286Y92524D01*
X1624216Y92513D01*
X1624146Y92498D01*
X1624077Y92479D01*
X1624009Y92456D01*
X1623943Y92430D01*
X1623878Y92401D01*
X1623814Y92368D01*
X1623753Y92332D01*
X1623693Y92292D01*
X1623636Y92250D01*
X1623581Y92204D01*
X1623528Y92156D01*
X1623479Y92105D01*
X1623432Y92051D01*
X1623388Y91995D01*
X1623347Y91936D01*
X1623309Y91876D01*
X1623274Y91813D01*
X1623243Y91749D01*
X1623215Y91683D01*
X1623191Y91616D01*
X1623170Y91548D01*
X1623153Y91478D01*
X1623140Y91408D01*
X1623131Y91338D01*
X1623125Y91266D01*
X1623123Y91195D01*
X1623124Y91195D02*
X1623124Y89855D01*
X1623124Y91464D02*
X1620979Y92536D01*
X1624733Y95278D02*
X1625805Y96618D01*
X1620979Y96618D01*
X1620979Y95278D02*
X1620979Y97959D01*
X1624733Y100764D02*
X1625805Y102104D01*
X1620979Y102104D01*
X1620979Y100764D02*
X1620979Y103445D01*
X1600645Y154559D02*
X1600645Y159385D01*
X1599305Y159385D01*
X1599234Y159383D01*
X1599162Y159377D01*
X1599092Y159368D01*
X1599022Y159355D01*
X1598952Y159338D01*
X1598884Y159317D01*
X1598817Y159293D01*
X1598751Y159265D01*
X1598687Y159234D01*
X1598624Y159199D01*
X1598564Y159161D01*
X1598505Y159120D01*
X1598449Y159076D01*
X1598395Y159029D01*
X1598344Y158980D01*
X1598296Y158927D01*
X1598250Y158872D01*
X1598208Y158815D01*
X1598168Y158755D01*
X1598132Y158694D01*
X1598099Y158630D01*
X1598070Y158565D01*
X1598044Y158499D01*
X1598021Y158431D01*
X1598002Y158362D01*
X1597987Y158292D01*
X1597976Y158222D01*
X1597968Y158151D01*
X1597964Y158080D01*
X1597964Y158008D01*
X1597968Y157937D01*
X1597976Y157866D01*
X1597987Y157796D01*
X1598002Y157726D01*
X1598021Y157657D01*
X1598044Y157589D01*
X1598070Y157523D01*
X1598099Y157458D01*
X1598132Y157394D01*
X1598168Y157333D01*
X1598208Y157273D01*
X1598250Y157216D01*
X1598296Y157161D01*
X1598344Y157108D01*
X1598395Y157059D01*
X1598449Y157012D01*
X1598505Y156968D01*
X1598564Y156927D01*
X1598624Y156889D01*
X1598687Y156854D01*
X1598751Y156823D01*
X1598817Y156795D01*
X1598884Y156771D01*
X1598952Y156750D01*
X1599022Y156733D01*
X1599092Y156720D01*
X1599162Y156711D01*
X1599234Y156705D01*
X1599305Y156703D01*
X1599305Y156704D02*
X1600645Y156704D01*
X1599036Y156704D02*
X1597964Y154559D01*
X1595222Y158313D02*
X1593882Y159385D01*
X1593882Y154559D01*
X1595222Y154559D02*
X1592541Y154559D01*
X1588262Y159385D02*
X1588194Y159383D01*
X1588127Y159377D01*
X1588060Y159368D01*
X1587993Y159355D01*
X1587928Y159338D01*
X1587863Y159317D01*
X1587800Y159293D01*
X1587738Y159265D01*
X1587678Y159234D01*
X1587620Y159200D01*
X1587564Y159162D01*
X1587509Y159122D01*
X1587458Y159078D01*
X1587409Y159031D01*
X1587362Y158982D01*
X1587318Y158931D01*
X1587278Y158876D01*
X1587240Y158820D01*
X1587206Y158762D01*
X1587175Y158702D01*
X1587147Y158640D01*
X1587123Y158577D01*
X1587102Y158512D01*
X1587085Y158447D01*
X1587072Y158380D01*
X1587063Y158313D01*
X1587057Y158246D01*
X1587055Y158178D01*
X1588262Y159385D02*
X1588340Y159383D01*
X1588418Y159377D01*
X1588495Y159367D01*
X1588572Y159354D01*
X1588648Y159336D01*
X1588723Y159315D01*
X1588797Y159290D01*
X1588869Y159261D01*
X1588940Y159229D01*
X1589009Y159193D01*
X1589077Y159154D01*
X1589142Y159111D01*
X1589205Y159065D01*
X1589266Y159016D01*
X1589324Y158964D01*
X1589379Y158909D01*
X1589432Y158852D01*
X1589481Y158792D01*
X1589528Y158729D01*
X1589571Y158664D01*
X1589611Y158598D01*
X1589648Y158529D01*
X1589681Y158458D01*
X1589711Y158386D01*
X1589737Y158312D01*
X1587457Y157240D02*
X1587408Y157289D01*
X1587361Y157341D01*
X1587318Y157396D01*
X1587277Y157453D01*
X1587239Y157512D01*
X1587205Y157573D01*
X1587174Y157636D01*
X1587146Y157700D01*
X1587122Y157766D01*
X1587102Y157832D01*
X1587085Y157900D01*
X1587072Y157969D01*
X1587063Y158038D01*
X1587057Y158108D01*
X1587055Y158178D01*
X1587457Y157240D02*
X1589736Y154559D01*
X1587055Y154559D01*
X1589565Y80855D02*
X1594391Y80855D01*
X1594391Y82196D01*
X1594389Y82267D01*
X1594383Y82339D01*
X1594374Y82409D01*
X1594361Y82479D01*
X1594344Y82549D01*
X1594323Y82617D01*
X1594299Y82684D01*
X1594271Y82750D01*
X1594240Y82814D01*
X1594205Y82877D01*
X1594167Y82937D01*
X1594126Y82996D01*
X1594082Y83052D01*
X1594035Y83106D01*
X1593986Y83157D01*
X1593933Y83205D01*
X1593878Y83251D01*
X1593821Y83293D01*
X1593761Y83333D01*
X1593700Y83369D01*
X1593636Y83402D01*
X1593571Y83431D01*
X1593505Y83457D01*
X1593437Y83480D01*
X1593368Y83499D01*
X1593298Y83514D01*
X1593228Y83525D01*
X1593157Y83533D01*
X1593086Y83537D01*
X1593014Y83537D01*
X1592943Y83533D01*
X1592872Y83525D01*
X1592802Y83514D01*
X1592732Y83499D01*
X1592663Y83480D01*
X1592595Y83457D01*
X1592529Y83431D01*
X1592464Y83402D01*
X1592400Y83369D01*
X1592339Y83333D01*
X1592279Y83293D01*
X1592222Y83251D01*
X1592167Y83205D01*
X1592114Y83157D01*
X1592065Y83106D01*
X1592018Y83052D01*
X1591974Y82996D01*
X1591933Y82937D01*
X1591895Y82877D01*
X1591860Y82814D01*
X1591829Y82750D01*
X1591801Y82684D01*
X1591777Y82617D01*
X1591756Y82549D01*
X1591739Y82479D01*
X1591726Y82409D01*
X1591717Y82339D01*
X1591711Y82267D01*
X1591709Y82196D01*
X1591710Y82196D02*
X1591710Y80855D01*
X1591710Y82464D02*
X1589565Y83536D01*
X1593319Y86278D02*
X1594391Y87618D01*
X1589565Y87618D01*
X1589565Y86278D02*
X1589565Y88959D01*
X1589565Y91764D02*
X1589565Y93105D01*
X1589567Y93176D01*
X1589573Y93248D01*
X1589582Y93318D01*
X1589595Y93388D01*
X1589612Y93458D01*
X1589633Y93526D01*
X1589657Y93593D01*
X1589685Y93659D01*
X1589716Y93723D01*
X1589751Y93786D01*
X1589789Y93846D01*
X1589830Y93905D01*
X1589874Y93961D01*
X1589921Y94015D01*
X1589970Y94066D01*
X1590023Y94114D01*
X1590078Y94160D01*
X1590135Y94202D01*
X1590195Y94242D01*
X1590256Y94278D01*
X1590320Y94311D01*
X1590385Y94340D01*
X1590451Y94366D01*
X1590519Y94389D01*
X1590588Y94408D01*
X1590658Y94423D01*
X1590728Y94434D01*
X1590799Y94442D01*
X1590870Y94446D01*
X1590942Y94446D01*
X1591013Y94442D01*
X1591084Y94434D01*
X1591154Y94423D01*
X1591224Y94408D01*
X1591293Y94389D01*
X1591361Y94366D01*
X1591427Y94340D01*
X1591492Y94311D01*
X1591556Y94278D01*
X1591617Y94242D01*
X1591677Y94202D01*
X1591734Y94160D01*
X1591789Y94114D01*
X1591842Y94066D01*
X1591891Y94015D01*
X1591938Y93961D01*
X1591982Y93905D01*
X1592023Y93846D01*
X1592061Y93786D01*
X1592096Y93723D01*
X1592127Y93659D01*
X1592155Y93593D01*
X1592179Y93526D01*
X1592200Y93458D01*
X1592217Y93388D01*
X1592230Y93318D01*
X1592239Y93248D01*
X1592245Y93176D01*
X1592247Y93105D01*
X1594391Y93373D02*
X1594391Y91764D01*
X1594391Y93373D02*
X1594389Y93438D01*
X1594383Y93502D01*
X1594373Y93566D01*
X1594360Y93630D01*
X1594342Y93692D01*
X1594321Y93753D01*
X1594297Y93813D01*
X1594268Y93871D01*
X1594236Y93928D01*
X1594201Y93982D01*
X1594163Y94034D01*
X1594121Y94084D01*
X1594077Y94131D01*
X1594030Y94175D01*
X1593980Y94217D01*
X1593928Y94255D01*
X1593874Y94290D01*
X1593817Y94322D01*
X1593759Y94351D01*
X1593699Y94375D01*
X1593638Y94396D01*
X1593576Y94414D01*
X1593512Y94427D01*
X1593448Y94437D01*
X1593384Y94443D01*
X1593319Y94445D01*
X1593254Y94443D01*
X1593190Y94437D01*
X1593126Y94427D01*
X1593062Y94414D01*
X1593000Y94396D01*
X1592939Y94375D01*
X1592879Y94351D01*
X1592821Y94322D01*
X1592764Y94290D01*
X1592710Y94255D01*
X1592658Y94217D01*
X1592608Y94175D01*
X1592561Y94131D01*
X1592517Y94084D01*
X1592475Y94034D01*
X1592437Y93982D01*
X1592402Y93928D01*
X1592370Y93871D01*
X1592341Y93813D01*
X1592317Y93753D01*
X1592296Y93692D01*
X1592278Y93630D01*
X1592265Y93566D01*
X1592255Y93502D01*
X1592249Y93438D01*
X1592247Y93373D01*
X1592246Y93373D02*
X1592246Y92300D01*
X622745Y634619D02*
X622745Y639445D01*
X621405Y639445D01*
X621334Y639443D01*
X621262Y639437D01*
X621192Y639428D01*
X621122Y639415D01*
X621052Y639398D01*
X620984Y639377D01*
X620917Y639353D01*
X620851Y639325D01*
X620787Y639294D01*
X620724Y639259D01*
X620664Y639221D01*
X620605Y639180D01*
X620549Y639136D01*
X620495Y639089D01*
X620444Y639040D01*
X620396Y638987D01*
X620350Y638932D01*
X620308Y638875D01*
X620268Y638815D01*
X620232Y638754D01*
X620199Y638690D01*
X620170Y638625D01*
X620144Y638559D01*
X620121Y638491D01*
X620102Y638422D01*
X620087Y638352D01*
X620076Y638282D01*
X620068Y638211D01*
X620064Y638140D01*
X620064Y638068D01*
X620068Y637997D01*
X620076Y637926D01*
X620087Y637856D01*
X620102Y637786D01*
X620121Y637717D01*
X620144Y637649D01*
X620170Y637583D01*
X620199Y637518D01*
X620232Y637454D01*
X620268Y637393D01*
X620308Y637333D01*
X620350Y637276D01*
X620396Y637221D01*
X620444Y637168D01*
X620495Y637119D01*
X620549Y637072D01*
X620605Y637028D01*
X620664Y636987D01*
X620724Y636949D01*
X620787Y636914D01*
X620851Y636883D01*
X620917Y636855D01*
X620984Y636831D01*
X621052Y636810D01*
X621122Y636793D01*
X621192Y636780D01*
X621262Y636771D01*
X621334Y636765D01*
X621405Y636763D01*
X621405Y636764D02*
X622745Y636764D01*
X621136Y636764D02*
X620064Y634619D01*
X617322Y638373D02*
X615982Y639445D01*
X615982Y634619D01*
X617322Y634619D02*
X614641Y634619D01*
X611837Y635960D02*
X611835Y636031D01*
X611829Y636103D01*
X611820Y636173D01*
X611807Y636243D01*
X611790Y636313D01*
X611769Y636381D01*
X611745Y636448D01*
X611717Y636514D01*
X611686Y636578D01*
X611651Y636641D01*
X611613Y636701D01*
X611572Y636760D01*
X611528Y636816D01*
X611481Y636870D01*
X611432Y636921D01*
X611379Y636969D01*
X611324Y637015D01*
X611267Y637057D01*
X611207Y637097D01*
X611146Y637133D01*
X611082Y637166D01*
X611017Y637195D01*
X610951Y637221D01*
X610883Y637244D01*
X610814Y637263D01*
X610744Y637278D01*
X610674Y637289D01*
X610603Y637297D01*
X610532Y637301D01*
X610460Y637301D01*
X610389Y637297D01*
X610318Y637289D01*
X610248Y637278D01*
X610178Y637263D01*
X610109Y637244D01*
X610041Y637221D01*
X609975Y637195D01*
X609910Y637166D01*
X609846Y637133D01*
X609785Y637097D01*
X609725Y637057D01*
X609668Y637015D01*
X609613Y636969D01*
X609560Y636921D01*
X609511Y636870D01*
X609464Y636816D01*
X609420Y636760D01*
X609379Y636701D01*
X609341Y636641D01*
X609306Y636578D01*
X609275Y636514D01*
X609247Y636448D01*
X609223Y636381D01*
X609202Y636313D01*
X609185Y636243D01*
X609172Y636173D01*
X609163Y636103D01*
X609157Y636031D01*
X609155Y635960D01*
X609157Y635889D01*
X609163Y635817D01*
X609172Y635747D01*
X609185Y635677D01*
X609202Y635607D01*
X609223Y635539D01*
X609247Y635472D01*
X609275Y635406D01*
X609306Y635342D01*
X609341Y635279D01*
X609379Y635219D01*
X609420Y635160D01*
X609464Y635104D01*
X609511Y635050D01*
X609560Y634999D01*
X609613Y634951D01*
X609668Y634905D01*
X609725Y634863D01*
X609785Y634823D01*
X609846Y634787D01*
X609910Y634754D01*
X609975Y634725D01*
X610041Y634699D01*
X610109Y634676D01*
X610178Y634657D01*
X610248Y634642D01*
X610318Y634631D01*
X610389Y634623D01*
X610460Y634619D01*
X610532Y634619D01*
X610603Y634623D01*
X610674Y634631D01*
X610744Y634642D01*
X610814Y634657D01*
X610883Y634676D01*
X610951Y634699D01*
X611017Y634725D01*
X611082Y634754D01*
X611146Y634787D01*
X611207Y634823D01*
X611267Y634863D01*
X611324Y634905D01*
X611379Y634951D01*
X611432Y634999D01*
X611481Y635050D01*
X611528Y635104D01*
X611572Y635160D01*
X611613Y635219D01*
X611651Y635279D01*
X611686Y635342D01*
X611717Y635406D01*
X611745Y635472D01*
X611769Y635539D01*
X611790Y635607D01*
X611807Y635677D01*
X611820Y635747D01*
X611829Y635817D01*
X611835Y635889D01*
X611837Y635960D01*
X611568Y638373D02*
X611566Y638438D01*
X611560Y638502D01*
X611550Y638566D01*
X611537Y638630D01*
X611519Y638692D01*
X611498Y638753D01*
X611474Y638813D01*
X611445Y638871D01*
X611413Y638928D01*
X611378Y638982D01*
X611340Y639034D01*
X611298Y639084D01*
X611254Y639131D01*
X611207Y639175D01*
X611157Y639217D01*
X611105Y639255D01*
X611051Y639290D01*
X610994Y639322D01*
X610936Y639351D01*
X610876Y639375D01*
X610815Y639396D01*
X610753Y639414D01*
X610689Y639427D01*
X610625Y639437D01*
X610561Y639443D01*
X610496Y639445D01*
X610431Y639443D01*
X610367Y639437D01*
X610303Y639427D01*
X610239Y639414D01*
X610177Y639396D01*
X610116Y639375D01*
X610056Y639351D01*
X609998Y639322D01*
X609941Y639290D01*
X609887Y639255D01*
X609835Y639217D01*
X609785Y639175D01*
X609738Y639131D01*
X609694Y639084D01*
X609652Y639034D01*
X609614Y638982D01*
X609579Y638928D01*
X609547Y638871D01*
X609518Y638813D01*
X609494Y638753D01*
X609473Y638692D01*
X609455Y638630D01*
X609442Y638566D01*
X609432Y638502D01*
X609426Y638438D01*
X609424Y638373D01*
X609426Y638308D01*
X609432Y638244D01*
X609442Y638180D01*
X609455Y638116D01*
X609473Y638054D01*
X609494Y637993D01*
X609518Y637933D01*
X609547Y637875D01*
X609579Y637818D01*
X609614Y637764D01*
X609652Y637712D01*
X609694Y637662D01*
X609738Y637615D01*
X609785Y637571D01*
X609835Y637529D01*
X609887Y637491D01*
X609941Y637456D01*
X609998Y637424D01*
X610056Y637395D01*
X610116Y637371D01*
X610177Y637350D01*
X610239Y637332D01*
X610303Y637319D01*
X610367Y637309D01*
X610431Y637303D01*
X610496Y637301D01*
X610561Y637303D01*
X610625Y637309D01*
X610689Y637319D01*
X610753Y637332D01*
X610815Y637350D01*
X610876Y637371D01*
X610936Y637395D01*
X610994Y637424D01*
X611051Y637456D01*
X611105Y637491D01*
X611157Y637529D01*
X611207Y637571D01*
X611254Y637615D01*
X611298Y637662D01*
X611340Y637712D01*
X611378Y637764D01*
X611413Y637818D01*
X611445Y637875D01*
X611474Y637933D01*
X611498Y637993D01*
X611519Y638054D01*
X611537Y638116D01*
X611550Y638180D01*
X611560Y638244D01*
X611566Y638308D01*
X611568Y638373D01*
X661035Y705675D02*
X665861Y705675D01*
X665861Y707016D01*
X665859Y707087D01*
X665853Y707159D01*
X665844Y707229D01*
X665831Y707299D01*
X665814Y707369D01*
X665793Y707437D01*
X665769Y707504D01*
X665741Y707570D01*
X665710Y707634D01*
X665675Y707697D01*
X665637Y707757D01*
X665596Y707816D01*
X665552Y707872D01*
X665505Y707926D01*
X665456Y707977D01*
X665403Y708025D01*
X665348Y708071D01*
X665291Y708113D01*
X665231Y708153D01*
X665170Y708189D01*
X665106Y708222D01*
X665041Y708251D01*
X664975Y708277D01*
X664907Y708300D01*
X664838Y708319D01*
X664768Y708334D01*
X664698Y708345D01*
X664627Y708353D01*
X664556Y708357D01*
X664484Y708357D01*
X664413Y708353D01*
X664342Y708345D01*
X664272Y708334D01*
X664202Y708319D01*
X664133Y708300D01*
X664065Y708277D01*
X663999Y708251D01*
X663934Y708222D01*
X663870Y708189D01*
X663809Y708153D01*
X663749Y708113D01*
X663692Y708071D01*
X663637Y708025D01*
X663584Y707977D01*
X663535Y707926D01*
X663488Y707872D01*
X663444Y707816D01*
X663403Y707757D01*
X663365Y707697D01*
X663330Y707634D01*
X663299Y707570D01*
X663271Y707504D01*
X663247Y707437D01*
X663226Y707369D01*
X663209Y707299D01*
X663196Y707229D01*
X663187Y707159D01*
X663181Y707087D01*
X663179Y707016D01*
X663180Y707016D02*
X663180Y705675D01*
X663180Y707284D02*
X661035Y708356D01*
X664789Y711098D02*
X665861Y712438D01*
X661035Y712438D01*
X661035Y711098D02*
X661035Y713779D01*
X663180Y717656D02*
X663180Y719265D01*
X663180Y717656D02*
X663182Y717591D01*
X663188Y717527D01*
X663198Y717463D01*
X663211Y717399D01*
X663229Y717337D01*
X663250Y717276D01*
X663274Y717216D01*
X663303Y717158D01*
X663335Y717101D01*
X663370Y717047D01*
X663408Y716995D01*
X663450Y716945D01*
X663494Y716898D01*
X663541Y716854D01*
X663591Y716812D01*
X663643Y716774D01*
X663697Y716739D01*
X663754Y716707D01*
X663812Y716678D01*
X663872Y716654D01*
X663933Y716633D01*
X663995Y716615D01*
X664059Y716602D01*
X664123Y716592D01*
X664187Y716586D01*
X664252Y716584D01*
X664520Y716584D01*
X664591Y716586D01*
X664663Y716592D01*
X664733Y716601D01*
X664803Y716614D01*
X664873Y716631D01*
X664941Y716652D01*
X665008Y716676D01*
X665074Y716704D01*
X665138Y716735D01*
X665201Y716770D01*
X665261Y716808D01*
X665320Y716849D01*
X665376Y716893D01*
X665430Y716940D01*
X665481Y716989D01*
X665529Y717042D01*
X665575Y717097D01*
X665617Y717154D01*
X665657Y717214D01*
X665693Y717275D01*
X665726Y717339D01*
X665755Y717404D01*
X665781Y717470D01*
X665804Y717538D01*
X665823Y717607D01*
X665838Y717677D01*
X665849Y717747D01*
X665857Y717818D01*
X665861Y717889D01*
X665861Y717961D01*
X665857Y718032D01*
X665849Y718103D01*
X665838Y718173D01*
X665823Y718243D01*
X665804Y718312D01*
X665781Y718380D01*
X665755Y718446D01*
X665726Y718511D01*
X665693Y718575D01*
X665657Y718636D01*
X665617Y718696D01*
X665575Y718753D01*
X665529Y718808D01*
X665481Y718861D01*
X665430Y718910D01*
X665376Y718957D01*
X665320Y719001D01*
X665261Y719042D01*
X665201Y719080D01*
X665138Y719115D01*
X665074Y719146D01*
X665008Y719174D01*
X664941Y719198D01*
X664873Y719219D01*
X664803Y719236D01*
X664733Y719249D01*
X664663Y719258D01*
X664591Y719264D01*
X664520Y719266D01*
X664520Y719265D02*
X663180Y719265D01*
X663089Y719263D01*
X662998Y719257D01*
X662908Y719248D01*
X662817Y719234D01*
X662728Y719217D01*
X662640Y719196D01*
X662552Y719171D01*
X662465Y719142D01*
X662380Y719110D01*
X662296Y719075D01*
X662214Y719035D01*
X662134Y718993D01*
X662055Y718947D01*
X661979Y718897D01*
X661905Y718845D01*
X661832Y718789D01*
X661763Y718730D01*
X661696Y718669D01*
X661631Y718604D01*
X661570Y718537D01*
X661511Y718468D01*
X661455Y718395D01*
X661403Y718321D01*
X661353Y718245D01*
X661307Y718166D01*
X661265Y718086D01*
X661225Y718004D01*
X661190Y717920D01*
X661158Y717835D01*
X661129Y717748D01*
X661104Y717660D01*
X661083Y717572D01*
X661066Y717483D01*
X661052Y717392D01*
X661043Y717302D01*
X661037Y717211D01*
X661035Y717120D01*
X1647781Y238140D02*
X1647783Y238256D01*
X1647789Y238371D01*
X1647799Y238487D01*
X1647813Y238602D01*
X1647831Y238716D01*
X1647853Y238830D01*
X1647878Y238943D01*
X1647908Y239055D01*
X1647942Y239165D01*
X1647979Y239275D01*
X1648020Y239383D01*
X1648065Y239490D01*
X1648113Y239595D01*
X1648165Y239699D01*
X1648221Y239800D01*
X1648280Y239900D01*
X1648342Y239997D01*
X1648408Y240093D01*
X1648477Y240186D01*
X1648549Y240276D01*
X1648624Y240364D01*
X1648703Y240449D01*
X1648784Y240532D01*
X1648868Y240612D01*
X1648955Y240689D01*
X1649044Y240762D01*
X1649136Y240833D01*
X1649230Y240900D01*
X1649326Y240964D01*
X1649425Y241025D01*
X1649525Y241082D01*
X1649628Y241136D01*
X1649732Y241187D01*
X1649838Y241233D01*
X1649946Y241276D01*
X1650055Y241315D01*
X1650165Y241351D01*
X1650276Y241382D01*
X1650389Y241410D01*
X1650502Y241434D01*
X1650616Y241454D01*
X1650731Y241470D01*
X1650846Y241482D01*
X1650961Y241490D01*
X1651077Y241494D01*
X1651193Y241494D01*
X1651309Y241490D01*
X1651424Y241482D01*
X1651539Y241470D01*
X1651654Y241454D01*
X1651768Y241434D01*
X1651881Y241410D01*
X1651994Y241382D01*
X1652105Y241351D01*
X1652215Y241315D01*
X1652324Y241276D01*
X1652432Y241233D01*
X1652538Y241187D01*
X1652642Y241136D01*
X1652745Y241082D01*
X1652845Y241025D01*
X1652944Y240964D01*
X1653040Y240900D01*
X1653134Y240833D01*
X1653226Y240762D01*
X1653315Y240689D01*
X1653402Y240612D01*
X1653486Y240532D01*
X1653567Y240449D01*
X1653646Y240364D01*
X1653721Y240276D01*
X1653793Y240186D01*
X1653862Y240093D01*
X1653928Y239997D01*
X1653990Y239900D01*
X1654049Y239800D01*
X1654105Y239699D01*
X1654157Y239595D01*
X1654205Y239490D01*
X1654250Y239383D01*
X1654291Y239275D01*
X1654328Y239165D01*
X1654362Y239055D01*
X1654392Y238943D01*
X1654417Y238830D01*
X1654439Y238716D01*
X1654457Y238602D01*
X1654471Y238487D01*
X1654481Y238371D01*
X1654487Y238256D01*
X1654489Y238140D01*
X1654487Y238024D01*
X1654481Y237909D01*
X1654471Y237793D01*
X1654457Y237678D01*
X1654439Y237564D01*
X1654417Y237450D01*
X1654392Y237337D01*
X1654362Y237225D01*
X1654328Y237115D01*
X1654291Y237005D01*
X1654250Y236897D01*
X1654205Y236790D01*
X1654157Y236685D01*
X1654105Y236581D01*
X1654049Y236480D01*
X1653990Y236380D01*
X1653928Y236283D01*
X1653862Y236187D01*
X1653793Y236094D01*
X1653721Y236004D01*
X1653646Y235916D01*
X1653567Y235831D01*
X1653486Y235748D01*
X1653402Y235668D01*
X1653315Y235591D01*
X1653226Y235518D01*
X1653134Y235447D01*
X1653040Y235380D01*
X1652944Y235316D01*
X1652845Y235255D01*
X1652745Y235198D01*
X1652642Y235144D01*
X1652538Y235093D01*
X1652432Y235047D01*
X1652324Y235004D01*
X1652215Y234965D01*
X1652105Y234929D01*
X1651994Y234898D01*
X1651881Y234870D01*
X1651768Y234846D01*
X1651654Y234826D01*
X1651539Y234810D01*
X1651424Y234798D01*
X1651309Y234790D01*
X1651193Y234786D01*
X1651077Y234786D01*
X1650961Y234790D01*
X1650846Y234798D01*
X1650731Y234810D01*
X1650616Y234826D01*
X1650502Y234846D01*
X1650389Y234870D01*
X1650276Y234898D01*
X1650165Y234929D01*
X1650055Y234965D01*
X1649946Y235004D01*
X1649838Y235047D01*
X1649732Y235093D01*
X1649628Y235144D01*
X1649525Y235198D01*
X1649425Y235255D01*
X1649326Y235316D01*
X1649230Y235380D01*
X1649136Y235447D01*
X1649044Y235518D01*
X1648955Y235591D01*
X1648868Y235668D01*
X1648784Y235748D01*
X1648703Y235831D01*
X1648624Y235916D01*
X1648549Y236004D01*
X1648477Y236094D01*
X1648408Y236187D01*
X1648342Y236283D01*
X1648280Y236380D01*
X1648221Y236480D01*
X1648165Y236581D01*
X1648113Y236685D01*
X1648065Y236790D01*
X1648020Y236897D01*
X1647979Y237005D01*
X1647942Y237115D01*
X1647908Y237225D01*
X1647878Y237337D01*
X1647853Y237450D01*
X1647831Y237564D01*
X1647813Y237678D01*
X1647799Y237793D01*
X1647789Y237909D01*
X1647783Y238024D01*
X1647781Y238140D01*
X1677035Y243840D02*
X1677035Y212340D01*
X1645535Y212340D01*
X1645535Y243840D01*
X1677035Y243840D01*
X1643250Y223465D02*
X1639765Y223465D01*
X1639765Y223464D02*
X1639694Y223466D01*
X1639622Y223472D01*
X1639552Y223481D01*
X1639482Y223494D01*
X1639412Y223511D01*
X1639344Y223532D01*
X1639277Y223556D01*
X1639211Y223584D01*
X1639147Y223615D01*
X1639084Y223650D01*
X1639024Y223688D01*
X1638965Y223729D01*
X1638909Y223773D01*
X1638855Y223820D01*
X1638804Y223869D01*
X1638756Y223922D01*
X1638710Y223977D01*
X1638668Y224034D01*
X1638628Y224094D01*
X1638592Y224155D01*
X1638559Y224219D01*
X1638530Y224284D01*
X1638504Y224350D01*
X1638481Y224418D01*
X1638462Y224487D01*
X1638447Y224557D01*
X1638436Y224627D01*
X1638428Y224698D01*
X1638424Y224769D01*
X1638424Y224841D01*
X1638428Y224912D01*
X1638436Y224983D01*
X1638447Y225053D01*
X1638462Y225123D01*
X1638481Y225192D01*
X1638504Y225260D01*
X1638530Y225326D01*
X1638559Y225391D01*
X1638592Y225455D01*
X1638628Y225516D01*
X1638668Y225576D01*
X1638710Y225633D01*
X1638756Y225688D01*
X1638804Y225741D01*
X1638855Y225790D01*
X1638909Y225837D01*
X1638965Y225881D01*
X1639024Y225922D01*
X1639084Y225960D01*
X1639147Y225995D01*
X1639211Y226026D01*
X1639277Y226054D01*
X1639344Y226078D01*
X1639412Y226099D01*
X1639482Y226116D01*
X1639552Y226129D01*
X1639622Y226138D01*
X1639694Y226144D01*
X1639765Y226146D01*
X1643250Y226146D01*
X1642178Y229134D02*
X1643250Y230475D01*
X1638424Y230475D01*
X1638424Y231815D02*
X1638424Y229134D01*
D48*
X962058Y783454D02*
X962058Y784696D01*
X962058Y783454D02*
X962060Y783384D01*
X962066Y783315D01*
X962076Y783246D01*
X962089Y783178D01*
X962107Y783110D01*
X962128Y783044D01*
X962153Y782979D01*
X962181Y782915D01*
X962213Y782853D01*
X962248Y782793D01*
X962287Y782735D01*
X962329Y782680D01*
X962374Y782626D01*
X962422Y782576D01*
X962472Y782528D01*
X962526Y782483D01*
X962581Y782441D01*
X962639Y782402D01*
X962699Y782367D01*
X962761Y782335D01*
X962825Y782307D01*
X962890Y782282D01*
X962956Y782261D01*
X963024Y782243D01*
X963092Y782230D01*
X963161Y782220D01*
X963230Y782214D01*
X963300Y782212D01*
X966404Y782212D01*
X966474Y782214D01*
X966543Y782220D01*
X966612Y782230D01*
X966680Y782243D01*
X966748Y782261D01*
X966814Y782282D01*
X966879Y782307D01*
X966943Y782335D01*
X967005Y782367D01*
X967065Y782402D01*
X967123Y782441D01*
X967178Y782483D01*
X967232Y782528D01*
X967282Y782576D01*
X967330Y782626D01*
X967375Y782680D01*
X967417Y782735D01*
X967456Y782793D01*
X967491Y782853D01*
X967523Y782915D01*
X967551Y782979D01*
X967576Y783044D01*
X967597Y783110D01*
X967615Y783178D01*
X967628Y783246D01*
X967638Y783315D01*
X967644Y783384D01*
X967646Y783454D01*
X967646Y784696D01*
X962058Y786800D02*
X962058Y788352D01*
X962060Y788429D01*
X962066Y788507D01*
X962075Y788583D01*
X962089Y788660D01*
X962106Y788735D01*
X962127Y788809D01*
X962152Y788883D01*
X962180Y788955D01*
X962212Y789025D01*
X962247Y789094D01*
X962286Y789161D01*
X962328Y789226D01*
X962373Y789289D01*
X962421Y789350D01*
X962472Y789408D01*
X962526Y789463D01*
X962583Y789516D01*
X962642Y789565D01*
X962704Y789612D01*
X962768Y789656D01*
X962834Y789696D01*
X962902Y789733D01*
X962972Y789767D01*
X963043Y789797D01*
X963116Y789823D01*
X963190Y789846D01*
X963265Y789865D01*
X963340Y789880D01*
X963417Y789892D01*
X963494Y789900D01*
X963571Y789904D01*
X963649Y789904D01*
X963726Y789900D01*
X963803Y789892D01*
X963880Y789880D01*
X963955Y789865D01*
X964030Y789846D01*
X964104Y789823D01*
X964177Y789797D01*
X964248Y789767D01*
X964318Y789733D01*
X964386Y789696D01*
X964452Y789656D01*
X964516Y789612D01*
X964578Y789565D01*
X964637Y789516D01*
X964694Y789463D01*
X964748Y789408D01*
X964799Y789350D01*
X964847Y789289D01*
X964892Y789226D01*
X964934Y789161D01*
X964973Y789094D01*
X965008Y789025D01*
X965040Y788955D01*
X965068Y788883D01*
X965093Y788809D01*
X965114Y788735D01*
X965131Y788660D01*
X965145Y788583D01*
X965154Y788507D01*
X965160Y788429D01*
X965162Y788352D01*
X967646Y788663D02*
X967646Y786800D01*
X967646Y788663D02*
X967644Y788733D01*
X967638Y788802D01*
X967628Y788871D01*
X967615Y788939D01*
X967597Y789007D01*
X967576Y789073D01*
X967551Y789138D01*
X967523Y789202D01*
X967491Y789264D01*
X967456Y789324D01*
X967417Y789382D01*
X967375Y789437D01*
X967330Y789491D01*
X967282Y789541D01*
X967232Y789589D01*
X967178Y789634D01*
X967123Y789676D01*
X967065Y789715D01*
X967005Y789750D01*
X966943Y789782D01*
X966879Y789810D01*
X966814Y789835D01*
X966748Y789856D01*
X966680Y789874D01*
X966612Y789887D01*
X966543Y789897D01*
X966474Y789903D01*
X966404Y789905D01*
X966334Y789903D01*
X966265Y789897D01*
X966196Y789887D01*
X966128Y789874D01*
X966060Y789856D01*
X965994Y789835D01*
X965929Y789810D01*
X965865Y789782D01*
X965803Y789750D01*
X965743Y789715D01*
X965685Y789676D01*
X965630Y789634D01*
X965576Y789589D01*
X965526Y789541D01*
X965478Y789491D01*
X965433Y789437D01*
X965391Y789382D01*
X965352Y789324D01*
X965317Y789264D01*
X965285Y789202D01*
X965257Y789138D01*
X965232Y789073D01*
X965211Y789007D01*
X965193Y788939D01*
X965180Y788871D01*
X965170Y788802D01*
X965164Y788733D01*
X965162Y788663D01*
X965162Y787421D01*
X967025Y792287D02*
X967646Y792287D01*
X967646Y795391D01*
X962058Y793839D01*
D47*
X1062463Y894777D02*
X1063536Y894777D01*
X1063601Y894779D01*
X1063665Y894785D01*
X1063729Y894795D01*
X1063793Y894808D01*
X1063855Y894826D01*
X1063916Y894847D01*
X1063976Y894871D01*
X1064034Y894900D01*
X1064091Y894932D01*
X1064145Y894967D01*
X1064197Y895005D01*
X1064247Y895047D01*
X1064294Y895091D01*
X1064338Y895138D01*
X1064380Y895188D01*
X1064418Y895240D01*
X1064453Y895294D01*
X1064485Y895351D01*
X1064514Y895409D01*
X1064538Y895469D01*
X1064559Y895530D01*
X1064577Y895592D01*
X1064590Y895656D01*
X1064600Y895720D01*
X1064606Y895784D01*
X1064608Y895849D01*
X1064608Y898531D01*
X1064606Y898596D01*
X1064600Y898660D01*
X1064590Y898724D01*
X1064577Y898788D01*
X1064559Y898850D01*
X1064538Y898911D01*
X1064514Y898971D01*
X1064485Y899029D01*
X1064453Y899086D01*
X1064418Y899140D01*
X1064380Y899192D01*
X1064338Y899242D01*
X1064294Y899289D01*
X1064247Y899333D01*
X1064197Y899375D01*
X1064145Y899413D01*
X1064091Y899448D01*
X1064034Y899480D01*
X1063976Y899509D01*
X1063916Y899533D01*
X1063855Y899554D01*
X1063793Y899572D01*
X1063729Y899585D01*
X1063665Y899595D01*
X1063601Y899601D01*
X1063536Y899603D01*
X1062463Y899603D01*
X1060007Y894777D02*
X1058667Y894777D01*
X1058596Y894779D01*
X1058524Y894785D01*
X1058454Y894794D01*
X1058384Y894807D01*
X1058314Y894824D01*
X1058246Y894845D01*
X1058179Y894869D01*
X1058113Y894897D01*
X1058049Y894928D01*
X1057986Y894963D01*
X1057926Y895001D01*
X1057867Y895042D01*
X1057811Y895086D01*
X1057757Y895133D01*
X1057706Y895182D01*
X1057658Y895235D01*
X1057612Y895290D01*
X1057570Y895347D01*
X1057530Y895407D01*
X1057494Y895468D01*
X1057461Y895532D01*
X1057432Y895597D01*
X1057406Y895663D01*
X1057383Y895731D01*
X1057364Y895800D01*
X1057349Y895870D01*
X1057338Y895940D01*
X1057330Y896011D01*
X1057326Y896082D01*
X1057326Y896154D01*
X1057330Y896225D01*
X1057338Y896296D01*
X1057349Y896366D01*
X1057364Y896436D01*
X1057383Y896505D01*
X1057406Y896573D01*
X1057432Y896639D01*
X1057461Y896704D01*
X1057494Y896768D01*
X1057530Y896829D01*
X1057570Y896889D01*
X1057612Y896946D01*
X1057658Y897001D01*
X1057706Y897054D01*
X1057757Y897103D01*
X1057811Y897150D01*
X1057867Y897194D01*
X1057926Y897235D01*
X1057986Y897273D01*
X1058049Y897308D01*
X1058113Y897339D01*
X1058179Y897367D01*
X1058246Y897391D01*
X1058314Y897412D01*
X1058384Y897429D01*
X1058454Y897442D01*
X1058524Y897451D01*
X1058596Y897457D01*
X1058667Y897459D01*
X1058399Y899603D02*
X1060007Y899603D01*
X1058399Y899603D02*
X1058334Y899601D01*
X1058270Y899595D01*
X1058206Y899585D01*
X1058142Y899572D01*
X1058080Y899554D01*
X1058019Y899533D01*
X1057959Y899509D01*
X1057901Y899480D01*
X1057844Y899448D01*
X1057790Y899413D01*
X1057738Y899375D01*
X1057688Y899333D01*
X1057641Y899289D01*
X1057597Y899242D01*
X1057555Y899192D01*
X1057517Y899140D01*
X1057482Y899086D01*
X1057450Y899029D01*
X1057421Y898971D01*
X1057397Y898911D01*
X1057376Y898850D01*
X1057358Y898788D01*
X1057345Y898724D01*
X1057335Y898660D01*
X1057329Y898596D01*
X1057327Y898531D01*
X1057329Y898466D01*
X1057335Y898402D01*
X1057345Y898338D01*
X1057358Y898274D01*
X1057376Y898212D01*
X1057397Y898151D01*
X1057421Y898091D01*
X1057450Y898033D01*
X1057482Y897976D01*
X1057517Y897922D01*
X1057555Y897870D01*
X1057597Y897820D01*
X1057641Y897773D01*
X1057688Y897729D01*
X1057738Y897687D01*
X1057790Y897649D01*
X1057844Y897614D01*
X1057901Y897582D01*
X1057959Y897553D01*
X1058019Y897529D01*
X1058080Y897508D01*
X1058142Y897490D01*
X1058206Y897477D01*
X1058270Y897467D01*
X1058334Y897461D01*
X1058399Y897459D01*
X1058399Y897458D02*
X1059471Y897458D01*
X1054521Y896118D02*
X1054519Y896189D01*
X1054513Y896261D01*
X1054504Y896331D01*
X1054491Y896401D01*
X1054474Y896471D01*
X1054453Y896539D01*
X1054429Y896606D01*
X1054401Y896672D01*
X1054370Y896736D01*
X1054335Y896799D01*
X1054297Y896859D01*
X1054256Y896918D01*
X1054212Y896974D01*
X1054165Y897028D01*
X1054116Y897079D01*
X1054063Y897127D01*
X1054008Y897173D01*
X1053951Y897215D01*
X1053891Y897255D01*
X1053830Y897291D01*
X1053766Y897324D01*
X1053701Y897353D01*
X1053635Y897379D01*
X1053567Y897402D01*
X1053498Y897421D01*
X1053428Y897436D01*
X1053358Y897447D01*
X1053287Y897455D01*
X1053216Y897459D01*
X1053144Y897459D01*
X1053073Y897455D01*
X1053002Y897447D01*
X1052932Y897436D01*
X1052862Y897421D01*
X1052793Y897402D01*
X1052725Y897379D01*
X1052659Y897353D01*
X1052594Y897324D01*
X1052530Y897291D01*
X1052469Y897255D01*
X1052409Y897215D01*
X1052352Y897173D01*
X1052297Y897127D01*
X1052244Y897079D01*
X1052195Y897028D01*
X1052148Y896974D01*
X1052104Y896918D01*
X1052063Y896859D01*
X1052025Y896799D01*
X1051990Y896736D01*
X1051959Y896672D01*
X1051931Y896606D01*
X1051907Y896539D01*
X1051886Y896471D01*
X1051869Y896401D01*
X1051856Y896331D01*
X1051847Y896261D01*
X1051841Y896189D01*
X1051839Y896118D01*
X1051841Y896047D01*
X1051847Y895975D01*
X1051856Y895905D01*
X1051869Y895835D01*
X1051886Y895765D01*
X1051907Y895697D01*
X1051931Y895630D01*
X1051959Y895564D01*
X1051990Y895500D01*
X1052025Y895437D01*
X1052063Y895377D01*
X1052104Y895318D01*
X1052148Y895262D01*
X1052195Y895208D01*
X1052244Y895157D01*
X1052297Y895109D01*
X1052352Y895063D01*
X1052409Y895021D01*
X1052469Y894981D01*
X1052530Y894945D01*
X1052594Y894912D01*
X1052659Y894883D01*
X1052725Y894857D01*
X1052793Y894834D01*
X1052862Y894815D01*
X1052932Y894800D01*
X1053002Y894789D01*
X1053073Y894781D01*
X1053144Y894777D01*
X1053216Y894777D01*
X1053287Y894781D01*
X1053358Y894789D01*
X1053428Y894800D01*
X1053498Y894815D01*
X1053567Y894834D01*
X1053635Y894857D01*
X1053701Y894883D01*
X1053766Y894912D01*
X1053830Y894945D01*
X1053891Y894981D01*
X1053951Y895021D01*
X1054008Y895063D01*
X1054063Y895109D01*
X1054116Y895157D01*
X1054165Y895208D01*
X1054212Y895262D01*
X1054256Y895318D01*
X1054297Y895377D01*
X1054335Y895437D01*
X1054370Y895500D01*
X1054401Y895564D01*
X1054429Y895630D01*
X1054453Y895697D01*
X1054474Y895765D01*
X1054491Y895835D01*
X1054504Y895905D01*
X1054513Y895975D01*
X1054519Y896047D01*
X1054521Y896118D01*
X1054252Y898531D02*
X1054250Y898596D01*
X1054244Y898660D01*
X1054234Y898724D01*
X1054221Y898788D01*
X1054203Y898850D01*
X1054182Y898911D01*
X1054158Y898971D01*
X1054129Y899029D01*
X1054097Y899086D01*
X1054062Y899140D01*
X1054024Y899192D01*
X1053982Y899242D01*
X1053938Y899289D01*
X1053891Y899333D01*
X1053841Y899375D01*
X1053789Y899413D01*
X1053735Y899448D01*
X1053678Y899480D01*
X1053620Y899509D01*
X1053560Y899533D01*
X1053499Y899554D01*
X1053437Y899572D01*
X1053373Y899585D01*
X1053309Y899595D01*
X1053245Y899601D01*
X1053180Y899603D01*
X1053115Y899601D01*
X1053051Y899595D01*
X1052987Y899585D01*
X1052923Y899572D01*
X1052861Y899554D01*
X1052800Y899533D01*
X1052740Y899509D01*
X1052682Y899480D01*
X1052625Y899448D01*
X1052571Y899413D01*
X1052519Y899375D01*
X1052469Y899333D01*
X1052422Y899289D01*
X1052378Y899242D01*
X1052336Y899192D01*
X1052298Y899140D01*
X1052263Y899086D01*
X1052231Y899029D01*
X1052202Y898971D01*
X1052178Y898911D01*
X1052157Y898850D01*
X1052139Y898788D01*
X1052126Y898724D01*
X1052116Y898660D01*
X1052110Y898596D01*
X1052108Y898531D01*
X1052110Y898466D01*
X1052116Y898402D01*
X1052126Y898338D01*
X1052139Y898274D01*
X1052157Y898212D01*
X1052178Y898151D01*
X1052202Y898091D01*
X1052231Y898033D01*
X1052263Y897976D01*
X1052298Y897922D01*
X1052336Y897870D01*
X1052378Y897820D01*
X1052422Y897773D01*
X1052469Y897729D01*
X1052519Y897687D01*
X1052571Y897649D01*
X1052625Y897614D01*
X1052682Y897582D01*
X1052740Y897553D01*
X1052800Y897529D01*
X1052861Y897508D01*
X1052923Y897490D01*
X1052987Y897477D01*
X1053051Y897467D01*
X1053115Y897461D01*
X1053180Y897459D01*
X1053245Y897461D01*
X1053309Y897467D01*
X1053373Y897477D01*
X1053437Y897490D01*
X1053499Y897508D01*
X1053560Y897529D01*
X1053620Y897553D01*
X1053678Y897582D01*
X1053735Y897614D01*
X1053789Y897649D01*
X1053841Y897687D01*
X1053891Y897729D01*
X1053938Y897773D01*
X1053982Y897820D01*
X1054024Y897870D01*
X1054062Y897922D01*
X1054097Y897976D01*
X1054129Y898033D01*
X1054158Y898091D01*
X1054182Y898151D01*
X1054203Y898212D01*
X1054221Y898274D01*
X1054234Y898338D01*
X1054244Y898402D01*
X1054250Y898466D01*
X1054252Y898531D01*
X1023874Y763778D02*
X1023876Y763849D01*
X1023882Y763920D01*
X1023892Y763991D01*
X1023906Y764061D01*
X1023924Y764130D01*
X1023945Y764197D01*
X1023971Y764264D01*
X1024000Y764329D01*
X1024032Y764392D01*
X1024069Y764454D01*
X1024108Y764513D01*
X1024151Y764570D01*
X1024197Y764624D01*
X1024246Y764676D01*
X1024298Y764725D01*
X1024352Y764771D01*
X1024409Y764814D01*
X1024468Y764853D01*
X1024530Y764890D01*
X1024593Y764922D01*
X1024658Y764951D01*
X1024725Y764977D01*
X1024792Y764998D01*
X1024861Y765016D01*
X1024931Y765030D01*
X1025002Y765040D01*
X1025073Y765046D01*
X1025144Y765048D01*
X1025215Y765046D01*
X1025286Y765040D01*
X1025357Y765030D01*
X1025427Y765016D01*
X1025496Y764998D01*
X1025563Y764977D01*
X1025630Y764951D01*
X1025695Y764922D01*
X1025758Y764890D01*
X1025820Y764853D01*
X1025879Y764814D01*
X1025936Y764771D01*
X1025990Y764725D01*
X1026042Y764676D01*
X1026091Y764624D01*
X1026137Y764570D01*
X1026180Y764513D01*
X1026219Y764454D01*
X1026256Y764392D01*
X1026288Y764329D01*
X1026317Y764264D01*
X1026343Y764197D01*
X1026364Y764130D01*
X1026382Y764061D01*
X1026396Y763991D01*
X1026406Y763920D01*
X1026412Y763849D01*
X1026414Y763778D01*
X1026412Y763707D01*
X1026406Y763636D01*
X1026396Y763565D01*
X1026382Y763495D01*
X1026364Y763426D01*
X1026343Y763359D01*
X1026317Y763292D01*
X1026288Y763227D01*
X1026256Y763164D01*
X1026219Y763102D01*
X1026180Y763043D01*
X1026137Y762986D01*
X1026091Y762932D01*
X1026042Y762880D01*
X1025990Y762831D01*
X1025936Y762785D01*
X1025879Y762742D01*
X1025820Y762703D01*
X1025758Y762666D01*
X1025695Y762634D01*
X1025630Y762605D01*
X1025563Y762579D01*
X1025496Y762558D01*
X1025427Y762540D01*
X1025357Y762526D01*
X1025286Y762516D01*
X1025215Y762510D01*
X1025144Y762508D01*
X1025073Y762510D01*
X1025002Y762516D01*
X1024931Y762526D01*
X1024861Y762540D01*
X1024792Y762558D01*
X1024725Y762579D01*
X1024658Y762605D01*
X1024593Y762634D01*
X1024530Y762666D01*
X1024468Y762703D01*
X1024409Y762742D01*
X1024352Y762785D01*
X1024298Y762831D01*
X1024246Y762880D01*
X1024197Y762932D01*
X1024151Y762986D01*
X1024108Y763043D01*
X1024069Y763102D01*
X1024032Y763164D01*
X1024000Y763227D01*
X1023971Y763292D01*
X1023945Y763359D01*
X1023924Y763426D01*
X1023906Y763495D01*
X1023892Y763565D01*
X1023882Y763636D01*
X1023876Y763707D01*
X1023874Y763778D01*
D49*
X1015416Y741780D02*
X1015416Y730096D01*
X1015416Y741780D02*
X1012170Y741780D01*
X1012057Y741778D01*
X1011944Y741772D01*
X1011831Y741762D01*
X1011718Y741748D01*
X1011606Y741731D01*
X1011495Y741709D01*
X1011385Y741684D01*
X1011275Y741654D01*
X1011167Y741621D01*
X1011060Y741584D01*
X1010954Y741544D01*
X1010850Y741499D01*
X1010747Y741451D01*
X1010646Y741400D01*
X1010547Y741345D01*
X1010450Y741287D01*
X1010355Y741225D01*
X1010262Y741160D01*
X1010172Y741092D01*
X1010084Y741021D01*
X1009998Y740946D01*
X1009915Y740869D01*
X1009835Y740789D01*
X1009758Y740706D01*
X1009683Y740620D01*
X1009612Y740532D01*
X1009544Y740442D01*
X1009479Y740349D01*
X1009417Y740254D01*
X1009359Y740157D01*
X1009304Y740058D01*
X1009253Y739957D01*
X1009205Y739854D01*
X1009160Y739750D01*
X1009120Y739644D01*
X1009083Y739537D01*
X1009050Y739429D01*
X1009020Y739319D01*
X1008995Y739209D01*
X1008973Y739098D01*
X1008956Y738986D01*
X1008942Y738873D01*
X1008932Y738760D01*
X1008926Y738647D01*
X1008924Y738534D01*
X1008925Y738534D02*
X1008925Y733342D01*
X1008924Y733342D02*
X1008926Y733229D01*
X1008932Y733116D01*
X1008942Y733003D01*
X1008956Y732890D01*
X1008973Y732778D01*
X1008995Y732667D01*
X1009020Y732557D01*
X1009050Y732447D01*
X1009083Y732339D01*
X1009120Y732232D01*
X1009160Y732126D01*
X1009205Y732022D01*
X1009253Y731919D01*
X1009304Y731818D01*
X1009359Y731719D01*
X1009417Y731622D01*
X1009479Y731527D01*
X1009544Y731434D01*
X1009612Y731344D01*
X1009683Y731256D01*
X1009758Y731170D01*
X1009835Y731087D01*
X1009915Y731007D01*
X1009998Y730930D01*
X1010084Y730855D01*
X1010172Y730784D01*
X1010262Y730716D01*
X1010355Y730651D01*
X1010450Y730589D01*
X1010547Y730531D01*
X1010646Y730476D01*
X1010747Y730425D01*
X1010850Y730377D01*
X1010954Y730332D01*
X1011060Y730292D01*
X1011167Y730255D01*
X1011275Y730222D01*
X1011385Y730192D01*
X1011495Y730167D01*
X1011606Y730145D01*
X1011718Y730128D01*
X1011831Y730114D01*
X1011944Y730104D01*
X1012057Y730098D01*
X1012170Y730096D01*
X1015416Y730096D01*
X1003605Y733342D02*
X1003603Y733455D01*
X1003597Y733568D01*
X1003587Y733681D01*
X1003573Y733794D01*
X1003556Y733906D01*
X1003534Y734017D01*
X1003509Y734127D01*
X1003479Y734237D01*
X1003446Y734345D01*
X1003409Y734452D01*
X1003369Y734558D01*
X1003324Y734662D01*
X1003276Y734765D01*
X1003225Y734866D01*
X1003170Y734965D01*
X1003112Y735062D01*
X1003050Y735157D01*
X1002985Y735250D01*
X1002917Y735340D01*
X1002846Y735428D01*
X1002771Y735514D01*
X1002694Y735597D01*
X1002614Y735677D01*
X1002531Y735754D01*
X1002445Y735829D01*
X1002357Y735900D01*
X1002267Y735968D01*
X1002174Y736033D01*
X1002079Y736095D01*
X1001982Y736153D01*
X1001883Y736208D01*
X1001782Y736259D01*
X1001679Y736307D01*
X1001575Y736352D01*
X1001469Y736392D01*
X1001362Y736429D01*
X1001254Y736462D01*
X1001144Y736492D01*
X1001034Y736517D01*
X1000923Y736539D01*
X1000811Y736556D01*
X1000698Y736570D01*
X1000585Y736580D01*
X1000472Y736586D01*
X1000359Y736588D01*
X1000246Y736586D01*
X1000133Y736580D01*
X1000020Y736570D01*
X999907Y736556D01*
X999795Y736539D01*
X999684Y736517D01*
X999574Y736492D01*
X999464Y736462D01*
X999356Y736429D01*
X999249Y736392D01*
X999143Y736352D01*
X999039Y736307D01*
X998936Y736259D01*
X998835Y736208D01*
X998736Y736153D01*
X998639Y736095D01*
X998544Y736033D01*
X998451Y735968D01*
X998361Y735900D01*
X998273Y735829D01*
X998187Y735754D01*
X998104Y735677D01*
X998024Y735597D01*
X997947Y735514D01*
X997872Y735428D01*
X997801Y735340D01*
X997733Y735250D01*
X997668Y735157D01*
X997606Y735062D01*
X997548Y734965D01*
X997493Y734866D01*
X997442Y734765D01*
X997394Y734662D01*
X997349Y734558D01*
X997309Y734452D01*
X997272Y734345D01*
X997239Y734237D01*
X997209Y734127D01*
X997184Y734017D01*
X997162Y733906D01*
X997145Y733794D01*
X997131Y733681D01*
X997121Y733568D01*
X997115Y733455D01*
X997113Y733342D01*
X997115Y733229D01*
X997121Y733116D01*
X997131Y733003D01*
X997145Y732890D01*
X997162Y732778D01*
X997184Y732667D01*
X997209Y732557D01*
X997239Y732447D01*
X997272Y732339D01*
X997309Y732232D01*
X997349Y732126D01*
X997394Y732022D01*
X997442Y731919D01*
X997493Y731818D01*
X997548Y731719D01*
X997606Y731622D01*
X997668Y731527D01*
X997733Y731434D01*
X997801Y731344D01*
X997872Y731256D01*
X997947Y731170D01*
X998024Y731087D01*
X998104Y731007D01*
X998187Y730930D01*
X998273Y730855D01*
X998361Y730784D01*
X998451Y730716D01*
X998544Y730651D01*
X998639Y730589D01*
X998736Y730531D01*
X998835Y730476D01*
X998936Y730425D01*
X999039Y730377D01*
X999143Y730332D01*
X999249Y730292D01*
X999356Y730255D01*
X999464Y730222D01*
X999574Y730192D01*
X999684Y730167D01*
X999795Y730145D01*
X999907Y730128D01*
X1000020Y730114D01*
X1000133Y730104D01*
X1000246Y730098D01*
X1000359Y730096D01*
X1000472Y730098D01*
X1000585Y730104D01*
X1000698Y730114D01*
X1000811Y730128D01*
X1000923Y730145D01*
X1001034Y730167D01*
X1001144Y730192D01*
X1001254Y730222D01*
X1001362Y730255D01*
X1001469Y730292D01*
X1001575Y730332D01*
X1001679Y730377D01*
X1001782Y730425D01*
X1001883Y730476D01*
X1001982Y730531D01*
X1002079Y730589D01*
X1002174Y730651D01*
X1002267Y730716D01*
X1002357Y730784D01*
X1002445Y730855D01*
X1002531Y730930D01*
X1002614Y731007D01*
X1002694Y731087D01*
X1002771Y731170D01*
X1002846Y731256D01*
X1002917Y731344D01*
X1002985Y731434D01*
X1003050Y731527D01*
X1003112Y731622D01*
X1003170Y731719D01*
X1003225Y731818D01*
X1003276Y731919D01*
X1003324Y732022D01*
X1003369Y732126D01*
X1003409Y732232D01*
X1003446Y732339D01*
X1003479Y732447D01*
X1003509Y732557D01*
X1003534Y732667D01*
X1003556Y732778D01*
X1003573Y732890D01*
X1003587Y733003D01*
X1003597Y733116D01*
X1003603Y733229D01*
X1003605Y733342D01*
X1002955Y739184D02*
X1002953Y739285D01*
X1002947Y739385D01*
X1002937Y739485D01*
X1002924Y739585D01*
X1002906Y739684D01*
X1002885Y739783D01*
X1002860Y739880D01*
X1002831Y739977D01*
X1002798Y740072D01*
X1002762Y740166D01*
X1002722Y740258D01*
X1002679Y740349D01*
X1002632Y740438D01*
X1002582Y740525D01*
X1002528Y740611D01*
X1002471Y740694D01*
X1002411Y740774D01*
X1002348Y740853D01*
X1002281Y740929D01*
X1002212Y741002D01*
X1002140Y741072D01*
X1002066Y741140D01*
X1001989Y741205D01*
X1001909Y741266D01*
X1001827Y741325D01*
X1001743Y741380D01*
X1001657Y741432D01*
X1001569Y741481D01*
X1001479Y741526D01*
X1001387Y741568D01*
X1001294Y741606D01*
X1001199Y741640D01*
X1001104Y741671D01*
X1001007Y741698D01*
X1000909Y741721D01*
X1000810Y741741D01*
X1000710Y741756D01*
X1000610Y741768D01*
X1000510Y741776D01*
X1000409Y741780D01*
X1000309Y741780D01*
X1000208Y741776D01*
X1000108Y741768D01*
X1000008Y741756D01*
X999908Y741741D01*
X999809Y741721D01*
X999711Y741698D01*
X999614Y741671D01*
X999519Y741640D01*
X999424Y741606D01*
X999331Y741568D01*
X999239Y741526D01*
X999149Y741481D01*
X999061Y741432D01*
X998975Y741380D01*
X998891Y741325D01*
X998809Y741266D01*
X998729Y741205D01*
X998652Y741140D01*
X998578Y741072D01*
X998506Y741002D01*
X998437Y740929D01*
X998370Y740853D01*
X998307Y740774D01*
X998247Y740694D01*
X998190Y740611D01*
X998136Y740525D01*
X998086Y740438D01*
X998039Y740349D01*
X997996Y740258D01*
X997956Y740166D01*
X997920Y740072D01*
X997887Y739977D01*
X997858Y739880D01*
X997833Y739783D01*
X997812Y739684D01*
X997794Y739585D01*
X997781Y739485D01*
X997771Y739385D01*
X997765Y739285D01*
X997763Y739184D01*
X997765Y739083D01*
X997771Y738983D01*
X997781Y738883D01*
X997794Y738783D01*
X997812Y738684D01*
X997833Y738585D01*
X997858Y738488D01*
X997887Y738391D01*
X997920Y738296D01*
X997956Y738202D01*
X997996Y738110D01*
X998039Y738019D01*
X998086Y737930D01*
X998136Y737843D01*
X998190Y737757D01*
X998247Y737674D01*
X998307Y737594D01*
X998370Y737515D01*
X998437Y737439D01*
X998506Y737366D01*
X998578Y737296D01*
X998652Y737228D01*
X998729Y737163D01*
X998809Y737102D01*
X998891Y737043D01*
X998975Y736988D01*
X999061Y736936D01*
X999149Y736887D01*
X999239Y736842D01*
X999331Y736800D01*
X999424Y736762D01*
X999519Y736728D01*
X999614Y736697D01*
X999711Y736670D01*
X999809Y736647D01*
X999908Y736627D01*
X1000008Y736612D01*
X1000108Y736600D01*
X1000208Y736592D01*
X1000309Y736588D01*
X1000409Y736588D01*
X1000510Y736592D01*
X1000610Y736600D01*
X1000710Y736612D01*
X1000810Y736627D01*
X1000909Y736647D01*
X1001007Y736670D01*
X1001104Y736697D01*
X1001199Y736728D01*
X1001294Y736762D01*
X1001387Y736800D01*
X1001479Y736842D01*
X1001569Y736887D01*
X1001657Y736936D01*
X1001743Y736988D01*
X1001827Y737043D01*
X1001909Y737102D01*
X1001989Y737163D01*
X1002066Y737228D01*
X1002140Y737296D01*
X1002212Y737366D01*
X1002281Y737439D01*
X1002348Y737515D01*
X1002411Y737594D01*
X1002471Y737674D01*
X1002528Y737757D01*
X1002582Y737843D01*
X1002632Y737930D01*
X1002679Y738019D01*
X1002722Y738110D01*
X1002762Y738202D01*
X1002798Y738296D01*
X1002831Y738391D01*
X1002860Y738488D01*
X1002885Y738585D01*
X1002906Y738684D01*
X1002924Y738783D01*
X1002937Y738883D01*
X1002947Y738983D01*
X1002953Y739083D01*
X1002955Y739184D01*
D47*
X1016804Y797588D02*
X1016804Y801488D01*
X1016804Y797588D02*
X1053804Y797588D01*
X1053804Y813088D01*
X1053804Y849188D02*
X1053804Y864588D01*
X1016804Y864588D01*
X1016804Y860588D01*
D50*
X987304Y808088D02*
X987306Y808151D01*
X987312Y808213D01*
X987322Y808275D01*
X987335Y808337D01*
X987353Y808397D01*
X987374Y808456D01*
X987399Y808514D01*
X987428Y808570D01*
X987460Y808624D01*
X987495Y808676D01*
X987533Y808725D01*
X987575Y808773D01*
X987619Y808817D01*
X987667Y808859D01*
X987716Y808897D01*
X987768Y808932D01*
X987822Y808964D01*
X987878Y808993D01*
X987936Y809018D01*
X987995Y809039D01*
X988055Y809057D01*
X988117Y809070D01*
X988179Y809080D01*
X988241Y809086D01*
X988304Y809088D01*
X988367Y809086D01*
X988429Y809080D01*
X988491Y809070D01*
X988553Y809057D01*
X988613Y809039D01*
X988672Y809018D01*
X988730Y808993D01*
X988786Y808964D01*
X988840Y808932D01*
X988892Y808897D01*
X988941Y808859D01*
X988989Y808817D01*
X989033Y808773D01*
X989075Y808725D01*
X989113Y808676D01*
X989148Y808624D01*
X989180Y808570D01*
X989209Y808514D01*
X989234Y808456D01*
X989255Y808397D01*
X989273Y808337D01*
X989286Y808275D01*
X989296Y808213D01*
X989302Y808151D01*
X989304Y808088D01*
X989302Y808025D01*
X989296Y807963D01*
X989286Y807901D01*
X989273Y807839D01*
X989255Y807779D01*
X989234Y807720D01*
X989209Y807662D01*
X989180Y807606D01*
X989148Y807552D01*
X989113Y807500D01*
X989075Y807451D01*
X989033Y807403D01*
X988989Y807359D01*
X988941Y807317D01*
X988892Y807279D01*
X988840Y807244D01*
X988786Y807212D01*
X988730Y807183D01*
X988672Y807158D01*
X988613Y807137D01*
X988553Y807119D01*
X988491Y807106D01*
X988429Y807096D01*
X988367Y807090D01*
X988304Y807088D01*
X988241Y807090D01*
X988179Y807096D01*
X988117Y807106D01*
X988055Y807119D01*
X987995Y807137D01*
X987936Y807158D01*
X987878Y807183D01*
X987822Y807212D01*
X987768Y807244D01*
X987716Y807279D01*
X987667Y807317D01*
X987619Y807359D01*
X987575Y807403D01*
X987533Y807451D01*
X987495Y807500D01*
X987460Y807552D01*
X987428Y807606D01*
X987399Y807662D01*
X987374Y807720D01*
X987353Y807779D01*
X987335Y807839D01*
X987322Y807901D01*
X987312Y807963D01*
X987306Y808025D01*
X987304Y808088D01*
D10*
X1064861Y790264D02*
X1064861Y778506D01*
X1064859Y778373D01*
X1064853Y778241D01*
X1064843Y778108D01*
X1064830Y777976D01*
X1064812Y777845D01*
X1064791Y777713D01*
X1064766Y777583D01*
X1064737Y777454D01*
X1064704Y777325D01*
X1064667Y777197D01*
X1064627Y777071D01*
X1064583Y776946D01*
X1064536Y776822D01*
X1064484Y776699D01*
X1064429Y776578D01*
X1064371Y776459D01*
X1064309Y776341D01*
X1064244Y776226D01*
X1064175Y776112D01*
X1064104Y776001D01*
X1064028Y775891D01*
X1063950Y775784D01*
X1063869Y775679D01*
X1063784Y775577D01*
X1063697Y775477D01*
X1063606Y775380D01*
X1063513Y775285D01*
X1063417Y775193D01*
X1063318Y775104D01*
X1063217Y775018D01*
X1063114Y774935D01*
X1063008Y774855D01*
X1062899Y774779D01*
X1062789Y774705D01*
X1062676Y774635D01*
X1062562Y774568D01*
X1062445Y774504D01*
X1062327Y774444D01*
X1062207Y774388D01*
X1062085Y774335D01*
X1061962Y774285D01*
X1061837Y774239D01*
X1061711Y774197D01*
X1061584Y774159D01*
X1061456Y774124D01*
X1061327Y774093D01*
X1061197Y774066D01*
X1061066Y774043D01*
X1060935Y774023D01*
X1060803Y774008D01*
X1060671Y773996D01*
X1060538Y773988D01*
X1060405Y773984D01*
X1060273Y773984D01*
X1060140Y773988D01*
X1060007Y773996D01*
X1059875Y774008D01*
X1059743Y774023D01*
X1059612Y774043D01*
X1059481Y774066D01*
X1059351Y774093D01*
X1059222Y774124D01*
X1059094Y774159D01*
X1058967Y774197D01*
X1058841Y774239D01*
X1058716Y774285D01*
X1058593Y774335D01*
X1058471Y774388D01*
X1058351Y774444D01*
X1058233Y774504D01*
X1058116Y774568D01*
X1058002Y774635D01*
X1057889Y774705D01*
X1057779Y774779D01*
X1057670Y774855D01*
X1057564Y774935D01*
X1057461Y775018D01*
X1057360Y775104D01*
X1057261Y775193D01*
X1057165Y775285D01*
X1057072Y775380D01*
X1056981Y775477D01*
X1056894Y775577D01*
X1056809Y775679D01*
X1056728Y775784D01*
X1056650Y775891D01*
X1056574Y776001D01*
X1056503Y776112D01*
X1056434Y776226D01*
X1056369Y776341D01*
X1056307Y776459D01*
X1056249Y776578D01*
X1056194Y776699D01*
X1056142Y776822D01*
X1056095Y776946D01*
X1056051Y777071D01*
X1056011Y777197D01*
X1055974Y777325D01*
X1055941Y777454D01*
X1055912Y777583D01*
X1055887Y777713D01*
X1055866Y777845D01*
X1055848Y777976D01*
X1055835Y778108D01*
X1055825Y778241D01*
X1055819Y778373D01*
X1055817Y778506D01*
X1055817Y790264D01*
X1048691Y786646D02*
X1044168Y790264D01*
X1044168Y773984D01*
X1039646Y773984D02*
X1048691Y773984D01*
X1033042Y786646D02*
X1028519Y790264D01*
X1028519Y773984D01*
X1023997Y773984D02*
X1033042Y773984D01*
D47*
X926879Y784536D02*
X926879Y785609D01*
X926879Y784536D02*
X926881Y784471D01*
X926887Y784407D01*
X926897Y784343D01*
X926910Y784279D01*
X926928Y784217D01*
X926949Y784156D01*
X926973Y784096D01*
X927002Y784038D01*
X927034Y783981D01*
X927069Y783927D01*
X927107Y783875D01*
X927149Y783825D01*
X927193Y783778D01*
X927240Y783734D01*
X927290Y783692D01*
X927342Y783654D01*
X927396Y783619D01*
X927453Y783587D01*
X927511Y783558D01*
X927571Y783534D01*
X927632Y783513D01*
X927694Y783495D01*
X927758Y783482D01*
X927822Y783472D01*
X927886Y783466D01*
X927951Y783464D01*
X930633Y783464D01*
X930698Y783466D01*
X930762Y783472D01*
X930826Y783482D01*
X930890Y783495D01*
X930952Y783513D01*
X931013Y783534D01*
X931073Y783558D01*
X931131Y783587D01*
X931188Y783619D01*
X931242Y783654D01*
X931294Y783692D01*
X931344Y783734D01*
X931391Y783778D01*
X931435Y783825D01*
X931477Y783875D01*
X931515Y783927D01*
X931550Y783981D01*
X931582Y784038D01*
X931611Y784096D01*
X931635Y784156D01*
X931656Y784217D01*
X931674Y784279D01*
X931687Y784343D01*
X931697Y784407D01*
X931703Y784471D01*
X931705Y784536D01*
X931705Y785609D01*
X926879Y788065D02*
X926879Y789405D01*
X926881Y789476D01*
X926887Y789548D01*
X926896Y789618D01*
X926909Y789688D01*
X926926Y789758D01*
X926947Y789826D01*
X926971Y789893D01*
X926999Y789959D01*
X927030Y790023D01*
X927065Y790086D01*
X927103Y790146D01*
X927144Y790205D01*
X927188Y790261D01*
X927235Y790315D01*
X927284Y790366D01*
X927337Y790414D01*
X927392Y790460D01*
X927449Y790502D01*
X927509Y790542D01*
X927570Y790578D01*
X927634Y790611D01*
X927699Y790640D01*
X927765Y790666D01*
X927833Y790689D01*
X927902Y790708D01*
X927972Y790723D01*
X928042Y790734D01*
X928113Y790742D01*
X928184Y790746D01*
X928256Y790746D01*
X928327Y790742D01*
X928398Y790734D01*
X928468Y790723D01*
X928538Y790708D01*
X928607Y790689D01*
X928675Y790666D01*
X928741Y790640D01*
X928806Y790611D01*
X928870Y790578D01*
X928931Y790542D01*
X928991Y790502D01*
X929048Y790460D01*
X929103Y790414D01*
X929156Y790366D01*
X929205Y790315D01*
X929252Y790261D01*
X929296Y790205D01*
X929337Y790146D01*
X929375Y790086D01*
X929410Y790023D01*
X929441Y789959D01*
X929469Y789893D01*
X929493Y789826D01*
X929514Y789758D01*
X929531Y789688D01*
X929544Y789618D01*
X929553Y789548D01*
X929559Y789476D01*
X929561Y789405D01*
X931705Y789673D02*
X931705Y788065D01*
X931705Y789673D02*
X931703Y789738D01*
X931697Y789802D01*
X931687Y789866D01*
X931674Y789930D01*
X931656Y789992D01*
X931635Y790053D01*
X931611Y790113D01*
X931582Y790171D01*
X931550Y790228D01*
X931515Y790282D01*
X931477Y790334D01*
X931435Y790384D01*
X931391Y790431D01*
X931344Y790475D01*
X931294Y790517D01*
X931242Y790555D01*
X931188Y790590D01*
X931131Y790622D01*
X931073Y790651D01*
X931013Y790675D01*
X930952Y790696D01*
X930890Y790714D01*
X930826Y790727D01*
X930762Y790737D01*
X930698Y790743D01*
X930633Y790745D01*
X930568Y790743D01*
X930504Y790737D01*
X930440Y790727D01*
X930376Y790714D01*
X930314Y790696D01*
X930253Y790675D01*
X930193Y790651D01*
X930135Y790622D01*
X930078Y790590D01*
X930024Y790555D01*
X929972Y790517D01*
X929922Y790475D01*
X929875Y790431D01*
X929831Y790384D01*
X929789Y790334D01*
X929751Y790282D01*
X929716Y790228D01*
X929684Y790171D01*
X929655Y790113D01*
X929631Y790053D01*
X929610Y789992D01*
X929592Y789930D01*
X929579Y789866D01*
X929569Y789802D01*
X929563Y789738D01*
X929561Y789673D01*
X929560Y789673D02*
X929560Y788601D01*
X929560Y793551D02*
X929560Y795160D01*
X929558Y795225D01*
X929552Y795289D01*
X929542Y795353D01*
X929529Y795417D01*
X929511Y795479D01*
X929490Y795540D01*
X929466Y795600D01*
X929437Y795658D01*
X929405Y795715D01*
X929370Y795769D01*
X929332Y795821D01*
X929290Y795871D01*
X929246Y795918D01*
X929199Y795962D01*
X929149Y796004D01*
X929097Y796042D01*
X929043Y796077D01*
X928986Y796109D01*
X928928Y796138D01*
X928868Y796162D01*
X928807Y796183D01*
X928745Y796201D01*
X928681Y796214D01*
X928617Y796224D01*
X928553Y796230D01*
X928488Y796232D01*
X928220Y796232D01*
X928220Y796233D02*
X928149Y796231D01*
X928077Y796225D01*
X928007Y796216D01*
X927937Y796203D01*
X927867Y796186D01*
X927799Y796165D01*
X927732Y796141D01*
X927666Y796113D01*
X927602Y796082D01*
X927539Y796047D01*
X927479Y796009D01*
X927420Y795968D01*
X927364Y795924D01*
X927310Y795877D01*
X927259Y795828D01*
X927211Y795775D01*
X927165Y795720D01*
X927123Y795663D01*
X927083Y795603D01*
X927047Y795542D01*
X927014Y795478D01*
X926985Y795413D01*
X926959Y795347D01*
X926936Y795279D01*
X926917Y795210D01*
X926902Y795140D01*
X926891Y795070D01*
X926883Y794999D01*
X926879Y794928D01*
X926879Y794856D01*
X926883Y794785D01*
X926891Y794714D01*
X926902Y794644D01*
X926917Y794574D01*
X926936Y794505D01*
X926959Y794437D01*
X926985Y794371D01*
X927014Y794306D01*
X927047Y794242D01*
X927083Y794181D01*
X927123Y794121D01*
X927165Y794064D01*
X927211Y794009D01*
X927259Y793956D01*
X927310Y793907D01*
X927364Y793860D01*
X927420Y793816D01*
X927479Y793775D01*
X927539Y793737D01*
X927602Y793702D01*
X927666Y793671D01*
X927732Y793643D01*
X927799Y793619D01*
X927867Y793598D01*
X927937Y793581D01*
X928007Y793568D01*
X928077Y793559D01*
X928149Y793553D01*
X928220Y793551D01*
X929560Y793551D01*
X929651Y793553D01*
X929742Y793559D01*
X929832Y793568D01*
X929923Y793582D01*
X930012Y793599D01*
X930100Y793620D01*
X930188Y793645D01*
X930275Y793674D01*
X930360Y793706D01*
X930444Y793741D01*
X930526Y793781D01*
X930606Y793823D01*
X930685Y793869D01*
X930761Y793919D01*
X930835Y793971D01*
X930908Y794027D01*
X930977Y794086D01*
X931044Y794147D01*
X931109Y794212D01*
X931170Y794279D01*
X931229Y794348D01*
X931285Y794420D01*
X931337Y794495D01*
X931387Y794571D01*
X931433Y794650D01*
X931475Y794730D01*
X931515Y794812D01*
X931550Y794896D01*
X931582Y794981D01*
X931611Y795068D01*
X931636Y795155D01*
X931657Y795244D01*
X931674Y795333D01*
X931688Y795424D01*
X931697Y795514D01*
X931703Y795605D01*
X931705Y795696D01*
D49*
X1270254Y680024D02*
X1270254Y677427D01*
X1270256Y677328D01*
X1270262Y677228D01*
X1270271Y677129D01*
X1270284Y677031D01*
X1270301Y676933D01*
X1270322Y676835D01*
X1270347Y676739D01*
X1270375Y676644D01*
X1270407Y676550D01*
X1270442Y676457D01*
X1270481Y676365D01*
X1270524Y676275D01*
X1270569Y676187D01*
X1270619Y676100D01*
X1270671Y676016D01*
X1270727Y675933D01*
X1270785Y675853D01*
X1270847Y675775D01*
X1270912Y675700D01*
X1270980Y675627D01*
X1271050Y675557D01*
X1271123Y675489D01*
X1271198Y675424D01*
X1271276Y675362D01*
X1271356Y675304D01*
X1271439Y675248D01*
X1271523Y675196D01*
X1271610Y675146D01*
X1271698Y675101D01*
X1271788Y675058D01*
X1271880Y675019D01*
X1271973Y674984D01*
X1272067Y674952D01*
X1272162Y674924D01*
X1272258Y674899D01*
X1272356Y674878D01*
X1272454Y674861D01*
X1272552Y674848D01*
X1272651Y674839D01*
X1272751Y674833D01*
X1272850Y674831D01*
X1279342Y674831D01*
X1279441Y674833D01*
X1279541Y674839D01*
X1279640Y674848D01*
X1279738Y674861D01*
X1279836Y674878D01*
X1279934Y674899D01*
X1280030Y674924D01*
X1280125Y674952D01*
X1280219Y674984D01*
X1280312Y675019D01*
X1280404Y675058D01*
X1280494Y675101D01*
X1280582Y675146D01*
X1280669Y675196D01*
X1280753Y675248D01*
X1280836Y675304D01*
X1280916Y675362D01*
X1280994Y675424D01*
X1281069Y675489D01*
X1281142Y675557D01*
X1281212Y675627D01*
X1281280Y675700D01*
X1281345Y675775D01*
X1281407Y675853D01*
X1281465Y675933D01*
X1281521Y676016D01*
X1281573Y676100D01*
X1281623Y676187D01*
X1281668Y676275D01*
X1281711Y676365D01*
X1281750Y676457D01*
X1281785Y676549D01*
X1281817Y676644D01*
X1281845Y676739D01*
X1281870Y676835D01*
X1281891Y676933D01*
X1281908Y677031D01*
X1281921Y677129D01*
X1281930Y677228D01*
X1281936Y677328D01*
X1281938Y677427D01*
X1281938Y680024D01*
X1281938Y687959D02*
X1281936Y688066D01*
X1281930Y688172D01*
X1281920Y688278D01*
X1281907Y688384D01*
X1281889Y688490D01*
X1281868Y688594D01*
X1281843Y688698D01*
X1281814Y688801D01*
X1281782Y688902D01*
X1281745Y689002D01*
X1281705Y689101D01*
X1281662Y689199D01*
X1281615Y689295D01*
X1281564Y689389D01*
X1281510Y689481D01*
X1281453Y689571D01*
X1281393Y689659D01*
X1281329Y689744D01*
X1281262Y689827D01*
X1281192Y689908D01*
X1281120Y689986D01*
X1281044Y690062D01*
X1280966Y690134D01*
X1280885Y690204D01*
X1280802Y690271D01*
X1280717Y690335D01*
X1280629Y690395D01*
X1280539Y690452D01*
X1280447Y690506D01*
X1280353Y690557D01*
X1280257Y690604D01*
X1280159Y690647D01*
X1280060Y690687D01*
X1279960Y690724D01*
X1279859Y690756D01*
X1279756Y690785D01*
X1279652Y690810D01*
X1279548Y690831D01*
X1279442Y690849D01*
X1279336Y690862D01*
X1279230Y690872D01*
X1279124Y690878D01*
X1279017Y690880D01*
X1281938Y687959D02*
X1281936Y687838D01*
X1281930Y687717D01*
X1281920Y687597D01*
X1281907Y687476D01*
X1281889Y687357D01*
X1281868Y687237D01*
X1281843Y687119D01*
X1281814Y687002D01*
X1281781Y686885D01*
X1281745Y686770D01*
X1281704Y686656D01*
X1281661Y686543D01*
X1281613Y686431D01*
X1281562Y686322D01*
X1281507Y686214D01*
X1281449Y686107D01*
X1281388Y686003D01*
X1281323Y685901D01*
X1281255Y685801D01*
X1281184Y685703D01*
X1281110Y685607D01*
X1281033Y685514D01*
X1280952Y685424D01*
X1280869Y685336D01*
X1280783Y685251D01*
X1280694Y685168D01*
X1280603Y685089D01*
X1280509Y685012D01*
X1280413Y684939D01*
X1280315Y684869D01*
X1280214Y684802D01*
X1280111Y684738D01*
X1280006Y684678D01*
X1279899Y684621D01*
X1279791Y684567D01*
X1279681Y684517D01*
X1279569Y684471D01*
X1279456Y684428D01*
X1279341Y684389D01*
X1276745Y689907D02*
X1276822Y689986D01*
X1276903Y690062D01*
X1276986Y690135D01*
X1277071Y690205D01*
X1277159Y690272D01*
X1277249Y690336D01*
X1277341Y690396D01*
X1277436Y690453D01*
X1277532Y690507D01*
X1277630Y690558D01*
X1277730Y690605D01*
X1277832Y690649D01*
X1277935Y690689D01*
X1278039Y690725D01*
X1278145Y690757D01*
X1278251Y690786D01*
X1278359Y690811D01*
X1278467Y690833D01*
X1278577Y690850D01*
X1278686Y690864D01*
X1278796Y690873D01*
X1278907Y690879D01*
X1279017Y690881D01*
X1276745Y689906D02*
X1270254Y684389D01*
X1270254Y690880D01*
X1276096Y695819D02*
X1276326Y695822D01*
X1276556Y695830D01*
X1276785Y695844D01*
X1277014Y695863D01*
X1277243Y695888D01*
X1277470Y695918D01*
X1277698Y695953D01*
X1277924Y695994D01*
X1278149Y696040D01*
X1278373Y696092D01*
X1278595Y696149D01*
X1278817Y696211D01*
X1279036Y696279D01*
X1279254Y696352D01*
X1279471Y696430D01*
X1279685Y696513D01*
X1279897Y696601D01*
X1280107Y696694D01*
X1280315Y696793D01*
X1280315Y696792D02*
X1280405Y696825D01*
X1280494Y696861D01*
X1280582Y696901D01*
X1280667Y696945D01*
X1280751Y696992D01*
X1280833Y697042D01*
X1280913Y697096D01*
X1280990Y697152D01*
X1281066Y697212D01*
X1281139Y697275D01*
X1281209Y697340D01*
X1281277Y697409D01*
X1281341Y697480D01*
X1281403Y697553D01*
X1281462Y697629D01*
X1281518Y697707D01*
X1281571Y697788D01*
X1281620Y697870D01*
X1281666Y697954D01*
X1281709Y698041D01*
X1281748Y698128D01*
X1281784Y698218D01*
X1281816Y698308D01*
X1281844Y698400D01*
X1281869Y698493D01*
X1281890Y698587D01*
X1281907Y698681D01*
X1281921Y698776D01*
X1281930Y698872D01*
X1281936Y698968D01*
X1281938Y699064D01*
X1281936Y699160D01*
X1281930Y699256D01*
X1281921Y699352D01*
X1281907Y699447D01*
X1281890Y699541D01*
X1281869Y699635D01*
X1281844Y699728D01*
X1281816Y699820D01*
X1281784Y699910D01*
X1281748Y700000D01*
X1281709Y700087D01*
X1281666Y700174D01*
X1281620Y700258D01*
X1281571Y700340D01*
X1281518Y700421D01*
X1281462Y700499D01*
X1281403Y700575D01*
X1281341Y700648D01*
X1281277Y700719D01*
X1281209Y700788D01*
X1281139Y700853D01*
X1281066Y700916D01*
X1280990Y700976D01*
X1280913Y701032D01*
X1280833Y701086D01*
X1280751Y701136D01*
X1280667Y701183D01*
X1280582Y701227D01*
X1280494Y701267D01*
X1280405Y701303D01*
X1280315Y701336D01*
X1280315Y701337D02*
X1280108Y701436D01*
X1279898Y701529D01*
X1279685Y701617D01*
X1279471Y701700D01*
X1279255Y701778D01*
X1279037Y701851D01*
X1278817Y701919D01*
X1278596Y701981D01*
X1278373Y702038D01*
X1278149Y702090D01*
X1277924Y702136D01*
X1277698Y702177D01*
X1277471Y702212D01*
X1277243Y702242D01*
X1277014Y702267D01*
X1276785Y702286D01*
X1276556Y702300D01*
X1276326Y702308D01*
X1276096Y702311D01*
X1276096Y695819D02*
X1275866Y695822D01*
X1275636Y695830D01*
X1275407Y695844D01*
X1275178Y695863D01*
X1274949Y695888D01*
X1274721Y695918D01*
X1274494Y695953D01*
X1274268Y695994D01*
X1274043Y696040D01*
X1273819Y696092D01*
X1273596Y696149D01*
X1273375Y696211D01*
X1273155Y696279D01*
X1272937Y696352D01*
X1272721Y696430D01*
X1272507Y696513D01*
X1272295Y696601D01*
X1272084Y696694D01*
X1271877Y696793D01*
X1271877Y696792D02*
X1271787Y696825D01*
X1271698Y696861D01*
X1271610Y696902D01*
X1271525Y696945D01*
X1271441Y696992D01*
X1271359Y697042D01*
X1271279Y697096D01*
X1271202Y697152D01*
X1271126Y697212D01*
X1271053Y697275D01*
X1270983Y697340D01*
X1270915Y697409D01*
X1270851Y697480D01*
X1270789Y697553D01*
X1270730Y697629D01*
X1270674Y697707D01*
X1270621Y697788D01*
X1270572Y697870D01*
X1270526Y697954D01*
X1270483Y698041D01*
X1270444Y698128D01*
X1270408Y698218D01*
X1270376Y698308D01*
X1270348Y698400D01*
X1270323Y698493D01*
X1270302Y698587D01*
X1270285Y698681D01*
X1270271Y698776D01*
X1270262Y698872D01*
X1270256Y698968D01*
X1270254Y699064D01*
X1271877Y701336D02*
X1272084Y701435D01*
X1272295Y701528D01*
X1272507Y701616D01*
X1272721Y701699D01*
X1272937Y701777D01*
X1273155Y701850D01*
X1273375Y701918D01*
X1273596Y701980D01*
X1273819Y702037D01*
X1274043Y702089D01*
X1274268Y702135D01*
X1274494Y702176D01*
X1274721Y702211D01*
X1274949Y702241D01*
X1275178Y702266D01*
X1275407Y702285D01*
X1275636Y702299D01*
X1275866Y702307D01*
X1276096Y702310D01*
X1271877Y701336D02*
X1271787Y701303D01*
X1271698Y701267D01*
X1271610Y701227D01*
X1271525Y701183D01*
X1271441Y701136D01*
X1271359Y701086D01*
X1271279Y701032D01*
X1271202Y700976D01*
X1271126Y700916D01*
X1271053Y700853D01*
X1270983Y700788D01*
X1270915Y700719D01*
X1270851Y700648D01*
X1270789Y700575D01*
X1270730Y700499D01*
X1270674Y700421D01*
X1270621Y700340D01*
X1270572Y700258D01*
X1270526Y700174D01*
X1270483Y700087D01*
X1270444Y700000D01*
X1270408Y699910D01*
X1270376Y699820D01*
X1270348Y699728D01*
X1270323Y699635D01*
X1270302Y699541D01*
X1270285Y699447D01*
X1270271Y699352D01*
X1270262Y699256D01*
X1270256Y699160D01*
X1270254Y699064D01*
X1272850Y696468D02*
X1279342Y701661D01*
X1291082Y679770D02*
X1291082Y677173D01*
X1291084Y677074D01*
X1291090Y676974D01*
X1291099Y676875D01*
X1291112Y676777D01*
X1291129Y676679D01*
X1291150Y676581D01*
X1291175Y676485D01*
X1291203Y676390D01*
X1291235Y676296D01*
X1291270Y676203D01*
X1291309Y676111D01*
X1291352Y676021D01*
X1291397Y675933D01*
X1291447Y675846D01*
X1291499Y675762D01*
X1291555Y675679D01*
X1291613Y675599D01*
X1291675Y675521D01*
X1291740Y675446D01*
X1291808Y675373D01*
X1291878Y675303D01*
X1291951Y675235D01*
X1292026Y675170D01*
X1292104Y675108D01*
X1292184Y675050D01*
X1292267Y674994D01*
X1292351Y674942D01*
X1292438Y674892D01*
X1292526Y674847D01*
X1292616Y674804D01*
X1292708Y674765D01*
X1292801Y674730D01*
X1292895Y674698D01*
X1292990Y674670D01*
X1293086Y674645D01*
X1293184Y674624D01*
X1293282Y674607D01*
X1293380Y674594D01*
X1293479Y674585D01*
X1293579Y674579D01*
X1293678Y674577D01*
X1300170Y674577D01*
X1300269Y674579D01*
X1300369Y674585D01*
X1300468Y674594D01*
X1300566Y674607D01*
X1300664Y674624D01*
X1300762Y674645D01*
X1300858Y674670D01*
X1300953Y674698D01*
X1301047Y674730D01*
X1301140Y674765D01*
X1301232Y674804D01*
X1301322Y674847D01*
X1301410Y674892D01*
X1301497Y674942D01*
X1301581Y674994D01*
X1301664Y675050D01*
X1301744Y675108D01*
X1301822Y675170D01*
X1301897Y675235D01*
X1301970Y675303D01*
X1302040Y675373D01*
X1302108Y675446D01*
X1302173Y675521D01*
X1302235Y675599D01*
X1302293Y675679D01*
X1302349Y675762D01*
X1302401Y675846D01*
X1302451Y675933D01*
X1302496Y676021D01*
X1302539Y676111D01*
X1302578Y676203D01*
X1302613Y676295D01*
X1302645Y676390D01*
X1302673Y676485D01*
X1302698Y676581D01*
X1302719Y676679D01*
X1302736Y676777D01*
X1302749Y676875D01*
X1302758Y676974D01*
X1302764Y677074D01*
X1302766Y677173D01*
X1302766Y679770D01*
X1302766Y687705D02*
X1302764Y687812D01*
X1302758Y687918D01*
X1302748Y688024D01*
X1302735Y688130D01*
X1302717Y688236D01*
X1302696Y688340D01*
X1302671Y688444D01*
X1302642Y688547D01*
X1302610Y688648D01*
X1302573Y688748D01*
X1302533Y688847D01*
X1302490Y688945D01*
X1302443Y689041D01*
X1302392Y689135D01*
X1302338Y689227D01*
X1302281Y689317D01*
X1302221Y689405D01*
X1302157Y689490D01*
X1302090Y689573D01*
X1302020Y689654D01*
X1301948Y689732D01*
X1301872Y689808D01*
X1301794Y689880D01*
X1301713Y689950D01*
X1301630Y690017D01*
X1301545Y690081D01*
X1301457Y690141D01*
X1301367Y690198D01*
X1301275Y690252D01*
X1301181Y690303D01*
X1301085Y690350D01*
X1300987Y690393D01*
X1300888Y690433D01*
X1300788Y690470D01*
X1300687Y690502D01*
X1300584Y690531D01*
X1300480Y690556D01*
X1300376Y690577D01*
X1300270Y690595D01*
X1300164Y690608D01*
X1300058Y690618D01*
X1299952Y690624D01*
X1299845Y690626D01*
X1302766Y687705D02*
X1302764Y687584D01*
X1302758Y687463D01*
X1302748Y687343D01*
X1302735Y687222D01*
X1302717Y687103D01*
X1302696Y686983D01*
X1302671Y686865D01*
X1302642Y686748D01*
X1302609Y686631D01*
X1302573Y686516D01*
X1302532Y686402D01*
X1302489Y686289D01*
X1302441Y686177D01*
X1302390Y686068D01*
X1302335Y685960D01*
X1302277Y685853D01*
X1302216Y685749D01*
X1302151Y685647D01*
X1302083Y685547D01*
X1302012Y685449D01*
X1301938Y685353D01*
X1301861Y685260D01*
X1301780Y685170D01*
X1301697Y685082D01*
X1301611Y684997D01*
X1301522Y684914D01*
X1301431Y684835D01*
X1301337Y684758D01*
X1301241Y684685D01*
X1301143Y684615D01*
X1301042Y684548D01*
X1300939Y684484D01*
X1300834Y684424D01*
X1300727Y684367D01*
X1300619Y684313D01*
X1300509Y684263D01*
X1300397Y684217D01*
X1300284Y684174D01*
X1300169Y684135D01*
X1297573Y689653D02*
X1297650Y689732D01*
X1297731Y689808D01*
X1297814Y689881D01*
X1297899Y689951D01*
X1297987Y690018D01*
X1298077Y690082D01*
X1298169Y690142D01*
X1298264Y690199D01*
X1298360Y690253D01*
X1298458Y690304D01*
X1298558Y690351D01*
X1298660Y690395D01*
X1298763Y690435D01*
X1298867Y690471D01*
X1298973Y690503D01*
X1299079Y690532D01*
X1299187Y690557D01*
X1299295Y690579D01*
X1299405Y690596D01*
X1299514Y690610D01*
X1299624Y690619D01*
X1299735Y690625D01*
X1299845Y690627D01*
X1297573Y689652D02*
X1291082Y684135D01*
X1291082Y690626D01*
X1293678Y695565D02*
X1302766Y698161D01*
X1293678Y695565D02*
X1293678Y702056D01*
X1296275Y700109D02*
X1291082Y700109D01*
D51*
X103772Y167513D02*
X103772Y160147D01*
X103772Y167513D02*
X100498Y167513D01*
X100498Y164239D02*
X103772Y164239D01*
X97691Y165876D02*
X95645Y167513D01*
X95645Y160147D01*
X97691Y160147D02*
X93599Y160147D01*
X103010Y93091D02*
X103010Y85725D01*
X103010Y93091D02*
X99736Y93091D01*
X99736Y89817D02*
X103010Y89817D01*
X94679Y93092D02*
X94594Y93090D01*
X94509Y93084D01*
X94425Y93074D01*
X94341Y93061D01*
X94257Y93043D01*
X94175Y93022D01*
X94094Y92997D01*
X94014Y92968D01*
X93935Y92935D01*
X93858Y92899D01*
X93783Y92859D01*
X93709Y92816D01*
X93638Y92770D01*
X93569Y92720D01*
X93502Y92667D01*
X93438Y92611D01*
X93377Y92552D01*
X93318Y92491D01*
X93262Y92427D01*
X93209Y92360D01*
X93159Y92291D01*
X93113Y92220D01*
X93070Y92146D01*
X93030Y92071D01*
X92994Y91994D01*
X92961Y91915D01*
X92932Y91835D01*
X92907Y91754D01*
X92886Y91672D01*
X92868Y91588D01*
X92855Y91504D01*
X92845Y91420D01*
X92839Y91335D01*
X92837Y91250D01*
X94679Y93091D02*
X94775Y93089D01*
X94871Y93083D01*
X94966Y93073D01*
X95061Y93060D01*
X95156Y93042D01*
X95249Y93021D01*
X95342Y92996D01*
X95433Y92967D01*
X95524Y92935D01*
X95613Y92899D01*
X95700Y92859D01*
X95786Y92816D01*
X95870Y92770D01*
X95952Y92720D01*
X96032Y92666D01*
X96109Y92610D01*
X96184Y92550D01*
X96257Y92488D01*
X96327Y92422D01*
X96395Y92354D01*
X96460Y92283D01*
X96521Y92210D01*
X96580Y92134D01*
X96636Y92055D01*
X96688Y91975D01*
X96737Y91892D01*
X96783Y91808D01*
X96825Y91722D01*
X96863Y91634D01*
X96898Y91545D01*
X96930Y91454D01*
X93451Y89818D02*
X93391Y89877D01*
X93334Y89939D01*
X93279Y90003D01*
X93228Y90070D01*
X93179Y90139D01*
X93133Y90209D01*
X93090Y90282D01*
X93050Y90356D01*
X93014Y90432D01*
X92981Y90510D01*
X92951Y90589D01*
X92924Y90669D01*
X92901Y90750D01*
X92882Y90832D01*
X92866Y90914D01*
X92853Y90998D01*
X92844Y91082D01*
X92839Y91166D01*
X92837Y91250D01*
X93451Y89817D02*
X96929Y85725D01*
X92837Y85725D01*
X563609Y615949D02*
X563609Y623315D01*
X563609Y615949D02*
X560335Y615949D01*
X557529Y621678D02*
X555483Y623315D01*
X555483Y615949D01*
X557529Y615949D02*
X553437Y615949D01*
M02*
