M48
;GenerationSoftware,Autodesk,EAGLE,9.2.2*%
;CreationDate,2019-01-23T00:30:51Z*%
FMAT,2
ICI,OFF
METRIC,TZ,000.000
T10C0.406
T9C0.850
T8C0.900
T7C0.950
T6C1.000
T5C1.016
T4C1.067
T3C1.300
T2C3.200
T1C3.300
%
G90
M71
T1
X4000Y4000
X4000Y96000
X196000Y96000
X196000Y4000
T2
X195707Y10033
X195707Y21463
X195707Y38735
X195707Y27305
T3
X158066Y96239
X155526Y96239
X70534Y96191
X73074Y96191
X75614Y96191
X78154Y96191
X80694Y96191
X83234Y96191
X118289Y96087
X115749Y96087
X113209Y96087
X110669Y96087
X108129Y96087
X105589Y96087
X146935Y96183
X144395Y96183
X141855Y96183
X139315Y96183
X136775Y96183
X134235Y96183
X131695Y96183
X129155Y96183
X160606Y96239
X163146Y96239
X196250Y64620
X196250Y67160
X196250Y69700
X196250Y72240
X196250Y74780
X196250Y77320
X196250Y79860
X196250Y82400
X188195Y96288
X185655Y96288
X183115Y96288
X165686Y96239
X168226Y96239
X180575Y96288
X178035Y96288
X175495Y96288
X5207Y79948
X5207Y84948
X155580Y3698
X153040Y3698
X150500Y3698
X147960Y3698
X145420Y3698
X142880Y3698
X140340Y3698
X137800Y3698
X132024Y3646
X129484Y3646
X126944Y3646
X124404Y3646
X121864Y3646
X119324Y3646
X116784Y3646
X114244Y3646
X194310Y51475
X194310Y56475
X5080Y57745
X5080Y52745
X34675Y95535
X34675Y83535
X22475Y95535
X20475Y89535
X22475Y83535
T4
X3026Y15354
X3026Y11544
X3226Y22844
X3226Y19034
T5
X67691Y3632
X70231Y3632
X69088Y29083
X69164Y75133
X71704Y75133
X74244Y75133
X76784Y75133
X79324Y75133
X81864Y75133
X84404Y75133
X86944Y75133
X86944Y87833
X84404Y87833
X81864Y87833
X79324Y87833
X76784Y87833
X74244Y87833
X71704Y87833
X69164Y87833
X166903Y35814
X169443Y35814
X60325Y96520
X57785Y96520
X101346Y3658
X103886Y3658
X66548Y29083
X74066Y54991
X76606Y54991
X83515Y3658
X80975Y3658
T6
X186817Y17653
X186817Y20193
X189357Y18923
X189357Y28575
X189357Y31115
X189357Y33655
X186817Y29845
X186817Y32385
X186817Y34925
X189357Y36195
X186817Y37465
X189357Y11303
X189357Y13843
X189357Y16383
X186817Y12573
X186817Y15113
T7
X103251Y61341
X105791Y63881
X103251Y63881
X105791Y61341
X105791Y58801
X103251Y58801
T8
X48935Y43180
X53935Y43180
X48935Y55245
X53935Y55245
X48935Y67310
X53935Y67310
T9
X154686Y56642
X154686Y59182
X154686Y61722
X154686Y64262
X154686Y66802
X154686Y69342
X154686Y71882
X154686Y74422
X148107Y42037
X148107Y44577
X148107Y54737
X148107Y49657
X148107Y52197
X148107Y59817
X148107Y57277
X148107Y47117
T10
X38989Y37160
X76581Y62992
X86233Y62992
X114554Y76962
X127076Y75590
X60350Y27330
X58776Y16256
X125730Y69596
X88189Y18034
X129032Y66548
X84099Y12573
X128143Y65710
X80315Y12522
X136017Y86411
X134493Y85547
X135712Y84633
X128245Y37516
X117729Y37541
X61290Y15900
X128194Y38633
X118262Y38735
X122428Y59944
X122428Y63846
X122428Y66894
X77978Y69952
X122428Y65878
X80264Y69088
X122428Y64862
X82601Y68250
X147574Y75870
X145593Y77800
X134188Y79553
X132182Y79527
X146812Y74930
X144882Y76886
X134163Y78511
X132055Y78511
X151968Y65786
X146101Y74016
X144145Y76149
X134112Y77495
X132105Y77495
X150876Y64897
X145339Y73330
X103632Y55626
X134087Y76454
X132105Y76454
X142494Y74828
X141808Y74016
X140970Y73127
X140183Y72314
X139776Y68504
X134442Y52908
X139700Y69698
X133782Y54305
X51054Y22784
X52324Y22784
X53619Y22809
X51029Y21565
X52324Y21565
X53619Y21539
X51054Y20066
X52375Y20066
X53594Y20041
X51689Y7899
X52934Y7925
X54127Y7950
X54254Y6629
X52959Y6629
X51638Y6579
X51689Y5258
X52959Y5309
X54229Y5334
X36449Y37160
X33909Y37160
X12700Y58166
X12700Y56642
X12700Y55118
X14224Y55118
X14224Y56642
X14224Y58166
X22606Y53848
X23876Y53848
X22606Y55118
X23876Y55118
X12446Y38354
X14224Y38354
X14224Y36830
X12446Y36830
X12446Y35306
X14224Y35306
X14224Y34036
X12446Y34036
X31369Y37160
X31369Y39065
X33909Y39065
X36449Y39065
X38989Y39065
X38989Y40970
X36449Y40970
X33909Y40970
X31369Y40970
X127838Y76352
X114427Y77978
X86233Y64389
X75565Y64389
X126492Y60452
X104394Y11811
X125984Y61468
X100736Y11709
X108331Y18161
X125476Y62992
X94361Y92075
X48387Y17374
X52908Y29464
X73406Y70866
X70358Y68834
X94361Y90551
X92329Y92075
X92329Y90551
X94361Y89027
X65024Y11176
X59944Y12192
X17323Y48971
X18593Y47701
X18593Y50241
X19863Y48971
X19863Y47701
X17323Y50241
X17323Y47701
X18593Y48971
X19863Y50241
X137770Y25908
X129997Y39370
X139040Y25933
X125806Y45771
X140310Y25959
X126568Y42977
X141605Y25883
X127457Y42240
X122428Y61214
X64008Y73914
X187198Y57912
X185928Y57912
X184658Y57912
X184658Y59182
X185928Y59182
X187198Y59182
X187198Y60452
X185928Y60452
X184658Y60452
X111760Y84582
X111760Y85852
X111760Y83312
X110490Y83312
X109220Y83312
X109220Y84582
X109220Y85852
X110490Y84582
X110490Y85852
X104140Y75336
X120218Y24028
X123850Y36576
X121818Y24003
X125298Y36525
X123368Y24054
X126644Y36474
X118796Y28677
X122174Y36601
X106832Y40132
X123215Y68910
X178410Y32106
X171069Y15875
X169291Y20447
X178181Y14859
X176530Y30582
X166370Y17526
X170180Y19431
X175946Y15621
X175844Y28956
X163703Y17018
X171907Y17983
X178181Y11684
X177902Y27432
X171577Y16891
X176784Y11938
X133858Y40792
X167386Y26670
X135839Y39522
X166116Y26670
X107137Y55550
X57582Y14275
X57861Y6172
X57912Y22073
X135128Y87935
X120244Y79654
X113995Y89332
X141224Y51994
X76505Y15138
X96774Y9931
X96850Y14986
X98298Y20371
X97155Y25171
X99644Y18390
X106934Y16866
X95555Y9957
X99441Y26924
X99416Y28448
X161290Y8890
X159131Y9779
X109576Y9601
X95631Y15011
X75590Y10185
X88798Y13741
X97180Y20853
X127009Y28883
X144882Y28575
X138938Y65786
X148336Y64516
X96672Y76251
X105664Y46228
X102362Y49276
X122174Y47574
X122784Y51511
X116078Y62992
X121412Y76200
X130734Y75514
X174752Y68580
X173482Y68580
X172212Y68580
X57760Y31953
X135001Y90526
X126746Y58191
X126060Y65710
X139548Y21717
X118770Y21438
X140970Y37846
X140970Y36703
X163576Y30734
X166243Y43434
X160020Y49530
X143307Y75463
M30